<svg width="104" height="24" viewBox="0 0 104 24" fill="none" xmlns="http://www.w3.org/2000/svg">
<rect x="0.241211" width="103.687" height="24" rx="4" fill="#3B7CFF" fill-opacity="0.8"/>
<path d="M34.6925 16L32.9765 13.54C32.9045 13.548 32.7965 13.552 32.6525 13.552H30.7565V16H29.1965V7.6H32.6525C33.3805 7.6 34.0125 7.72 34.5485 7.96C35.0925 8.2 35.5085 8.544 35.7965 8.992C36.0845 9.44 36.2285 9.972 36.2285 10.588C36.2285 11.22 36.0725 11.764 35.7605 12.22C35.4565 12.676 35.0165 13.016 34.4405 13.24L36.3725 16H34.6925ZM34.6565 10.588C34.6565 10.052 34.4805 9.64 34.1285 9.352C33.7765 9.064 33.2605 8.92 32.5805 8.92H30.7565V12.268H32.5805C33.2605 12.268 33.7765 12.124 34.1285 11.836C34.4805 11.54 34.6565 11.124 34.6565 10.588ZM44.2538 12.832C44.2538 12.936 44.2458 13.084 44.2298 13.276H39.2018C39.2898 13.748 39.5178 14.124 39.8858 14.404C40.2618 14.676 40.7258 14.812 41.2778 14.812C41.9818 14.812 42.5618 14.58 43.0178 14.116L43.8218 15.04C43.5338 15.384 43.1698 15.644 42.7298 15.82C42.2898 15.996 41.7938 16.084 41.2418 16.084C40.5378 16.084 39.9178 15.944 39.3818 15.664C38.8458 15.384 38.4298 14.996 38.1338 14.5C37.8458 13.996 37.7018 13.428 37.7018 12.796C37.7018 12.172 37.8418 11.612 38.1218 11.116C38.4098 10.612 38.8058 10.22 39.3098 9.94C39.8138 9.66 40.3818 9.52 41.0138 9.52C41.6378 9.52 42.1938 9.66 42.6818 9.94C43.1778 10.212 43.5618 10.6 43.8338 11.104C44.1138 11.6 44.2538 12.176 44.2538 12.832ZM41.0138 10.72C40.5338 10.72 40.1258 10.864 39.7898 11.152C39.4618 11.432 39.2618 11.808 39.1898 12.28H42.8258C42.7618 11.816 42.5658 11.44 42.2378 11.152C41.9098 10.864 41.5018 10.72 41.0138 10.72ZM48.0746 16.084C47.5546 16.084 47.0466 16.016 46.5506 15.88C46.0546 15.744 45.6586 15.572 45.3626 15.364L45.9386 14.224C46.2266 14.416 46.5706 14.572 46.9706 14.692C47.3786 14.804 47.7786 14.86 48.1706 14.86C49.0666 14.86 49.5146 14.624 49.5146 14.152C49.5146 13.928 49.3986 13.772 49.1666 13.684C48.9426 13.596 48.5786 13.512 48.0746 13.432C47.5466 13.352 47.1146 13.26 46.7786 13.156C46.4506 13.052 46.1626 12.872 45.9146 12.616C45.6746 12.352 45.5546 11.988 45.5546 11.524C45.5546 10.916 45.8066 10.432 46.3106 10.072C46.8226 9.704 47.5106 9.52 48.3746 9.52C48.8146 9.52 49.2546 9.572 49.6946 9.676C50.1346 9.772 50.4946 9.904 50.7746 10.072L50.1986 11.212C49.6546 10.892 49.0426 10.732 48.3626 10.732C47.9226 10.732 47.5866 10.8 47.3546 10.936C47.1306 11.064 47.0186 11.236 47.0186 11.452C47.0186 11.692 47.1386 11.864 47.3786 11.968C47.6266 12.064 48.0066 12.156 48.5186 12.244C49.0306 12.324 49.4506 12.416 49.7786 12.52C50.1066 12.624 50.3866 12.8 50.6186 13.048C50.8586 13.296 50.9786 13.648 50.9786 14.104C50.9786 14.704 50.7186 15.184 50.1986 15.544C49.6786 15.904 48.9706 16.084 48.0746 16.084ZM58.8744 9.592V16H57.4464V15.184C57.2064 15.472 56.9064 15.696 56.5464 15.856C56.1864 16.008 55.7984 16.084 55.3824 16.084C54.5264 16.084 53.8504 15.848 53.3544 15.376C52.8664 14.896 52.6224 14.188 52.6224 13.252V9.592H54.1224V13.048C54.1224 13.624 54.2504 14.056 54.5064 14.344C54.7704 14.624 55.1424 14.764 55.6224 14.764C56.1584 14.764 56.5824 14.6 56.8944 14.272C57.2144 13.936 57.3744 13.456 57.3744 12.832V9.592H58.8744ZM61.2384 7.096H62.7384V16H61.2384V7.096ZM69.2755 15.652C69.0995 15.796 68.8835 15.904 68.6275 15.976C68.3795 16.048 68.1155 16.084 67.8355 16.084C67.1315 16.084 66.5875 15.9 66.2035 15.532C65.8195 15.164 65.6275 14.628 65.6275 13.924V10.84H64.5715V9.64H65.6275V8.176H67.1275V9.64H68.8435V10.84H67.1275V13.888C67.1275 14.2 67.2035 14.44 67.3555 14.608C67.5075 14.768 67.7275 14.848 68.0155 14.848C68.3515 14.848 68.6315 14.76 68.8555 14.584L69.2755 15.652ZM72.8895 16.084C72.3695 16.084 71.8615 16.016 71.3655 15.88C70.8695 15.744 70.4735 15.572 70.1775 15.364L70.7535 14.224C71.0415 14.416 71.3855 14.572 71.7855 14.692C72.1935 14.804 72.5935 14.86 72.9855 14.86C73.8815 14.86 74.3295 14.624 74.3295 14.152C74.3295 13.928 74.2135 13.772 73.9815 13.684C73.7575 13.596 73.3935 13.512 72.8895 13.432C72.3615 13.352 71.9295 13.26 71.5935 13.156C71.2655 13.052 70.9775 12.872 70.7295 12.616C70.4895 12.352 70.3695 11.988 70.3695 11.524C70.3695 10.916 70.6215 10.432 71.1255 10.072C71.6375 9.704 72.3255 9.52 73.1895 9.52C73.6295 9.52 74.0695 9.572 74.5095 9.676C74.9495 9.772 75.3095 9.904 75.5895 10.072L75.0135 11.212C74.4695 10.892 73.8575 10.732 73.1775 10.732C72.7375 10.732 72.4015 10.8 72.1695 10.936C71.9455 11.064 71.8335 11.236 71.8335 11.452C71.8335 11.692 71.9535 11.864 72.1935 11.968C72.4415 12.064 72.8215 12.156 73.3335 12.244C73.8455 12.324 74.2655 12.416 74.5935 12.52C74.9215 12.624 75.2015 12.8 75.4335 13.048C75.6735 13.296 75.7935 13.648 75.7935 14.104C75.7935 14.704 75.5335 15.184 75.0135 15.544C74.4935 15.904 73.7855 16.084 72.8895 16.084Z" fill="white"/>
<rect x="0.741211" y="0.5" width="102.687" height="23" stroke="white"/>
</svg>
