<svg width="115" height="20" viewBox="0 0 115 20" fill="none" xmlns="http://www.w3.org/2000/svg">
<g clip-path="url(#clip0)">
<path d="M23.6235 11.5788H18.4766L17.4112 14H15.9862L20.3721 4.315H21.7418L26.1416 14H24.6888L23.6235 11.5788ZM23.1392 10.4719L21.05 5.72625L18.9608 10.4719H23.1392ZM30.4717 14.083C29.7246 14.083 29.0558 13.9216 28.4655 13.5988C27.8844 13.2759 27.4278 12.8332 27.0958 12.2705C26.7637 11.6987 26.5977 11.053 26.5977 10.3335C26.5977 9.61408 26.7637 8.97303 27.0958 8.41037C27.4278 7.8385 27.8844 7.39576 28.4655 7.08215C29.0558 6.75931 29.7246 6.5979 30.4717 6.5979C31.1358 6.5979 31.7261 6.73164 32.2427 6.99913C32.7684 7.26662 33.1743 7.65402 33.4602 8.16133L32.4502 8.81161C32.2196 8.4611 31.9337 8.19823 31.5924 8.02297C31.2511 7.84772 30.8729 7.7601 30.4579 7.7601C29.9782 7.7601 29.5447 7.86617 29.1573 8.07832C28.7791 8.29046 28.4794 8.59485 28.258 8.99147C28.0458 9.37887 27.9398 9.82623 27.9398 10.3335C27.9398 10.8501 28.0458 11.3066 28.258 11.7033C28.4794 12.0907 28.7791 12.3904 29.1573 12.6026C29.5447 12.8147 29.9782 12.9208 30.4579 12.9208C30.8729 12.9208 31.2511 12.8332 31.5924 12.6579C31.9337 12.4827 32.2196 12.2198 32.4502 11.8693L33.4602 12.5057C33.1743 13.0131 32.7684 13.4051 32.2427 13.6818C31.7261 13.9493 31.1358 14.083 30.4717 14.083ZM39.3481 13.5711C39.1544 13.7371 38.9145 13.8663 38.6286 13.9585C38.3427 14.0415 38.0475 14.083 37.7431 14.083C37.0052 14.083 36.4333 13.8847 36.0275 13.4881C35.6216 13.0915 35.4187 12.5242 35.4187 11.7863V7.7601H34.1735V6.66707H35.4187V5.06213H36.7469V6.66707H38.85V7.7601H36.7469V11.7309C36.7469 12.1276 36.8438 12.432 37.0375 12.6441C37.2404 12.8562 37.5263 12.9623 37.8953 12.9623C38.3011 12.9623 38.647 12.847 38.933 12.6164L39.3481 13.5711ZM40.9044 6.66707H42.2327V14H40.9044V6.66707ZM41.5686 5.25583C41.3103 5.25583 41.0935 5.17282 40.9183 5.00679C40.7523 4.84076 40.6692 4.63784 40.6692 4.39802C40.6692 4.1582 40.7523 3.95528 40.9183 3.78925C41.0935 3.614 41.3103 3.52637 41.5686 3.52637C41.8268 3.52637 42.039 3.60938 42.205 3.77541C42.3803 3.93222 42.4679 4.13053 42.4679 4.37035C42.4679 4.61939 42.3803 4.83154 42.205 5.00679C42.039 5.17282 41.8268 5.25583 41.5686 5.25583ZM51.2082 6.66707L47.9984 14H46.6425L43.4326 6.66707H44.8162L47.3342 12.5473L49.9077 6.66707H51.2082ZM58.8231 10.375C58.8231 10.4765 58.8138 10.6103 58.7954 10.7763H52.846C52.929 11.4219 53.2104 11.9431 53.69 12.3397C54.1789 12.7271 54.783 12.9208 55.5025 12.9208C56.3788 12.9208 57.0844 12.6257 57.6194 12.0353L58.3526 12.8931C58.0206 13.2805 57.6055 13.5757 57.1074 13.7786C56.6186 13.9816 56.0698 14.083 55.461 14.083C54.6862 14.083 53.999 13.9262 53.3995 13.6126C52.7999 13.2898 52.3341 12.8424 52.0021 12.2705C51.6792 11.6987 51.5178 11.053 51.5178 10.3335C51.5178 9.6233 51.6746 8.98225 51.9882 8.41037C52.3111 7.8385 52.7492 7.39576 53.3026 7.08215C53.8653 6.75931 54.4971 6.5979 55.1981 6.5979C55.8991 6.5979 56.5217 6.75931 57.0659 7.08215C57.6194 7.39576 58.0483 7.8385 58.3526 8.41037C58.6663 8.98225 58.8231 9.63714 58.8231 10.375ZM55.1981 7.71859C54.5617 7.71859 54.0267 7.91229 53.5932 8.29969C53.1689 8.68709 52.9198 9.1944 52.846 9.82162H57.5502C57.4764 9.20362 57.2227 8.70092 56.7892 8.31352C56.3649 7.9169 55.8345 7.71859 55.1981 7.71859Z" fill="#8998AC"/>
<path fill-rule="evenodd" clip-rule="evenodd" d="M4.43066 13.8916C6.6398 13.8916 8.43066 12.1007 8.43066 9.8916C8.43066 7.68246 6.6398 5.8916 4.43066 5.8916C2.22152 5.8916 0.430664 7.68246 0.430664 9.8916C0.430664 12.1007 2.22152 13.8916 4.43066 13.8916Z" fill="#56CCF2"/>
</g>
<defs>
<clipPath id="clip0">
<rect width="114" height="19.6428" fill="white" transform="translate(0.430664)"/>
</clipPath>
</defs>
</svg>
