<svg width="115" height="21" viewBox="0 0 115 21" fill="none" xmlns="http://www.w3.org/2000/svg">
<g clip-path="url(#clip0)">
<path d="M24.6203 11.4342C24.4986 12.4745 24.1136 13.2785 23.465 13.8459C22.821 14.4089 21.963 14.6904 20.8911 14.6904C19.7291 14.6904 18.7968 14.2738 18.0942 13.4406C17.3961 12.6074 17.0471 11.4927 17.0471 10.0965V9.15072C17.0471 8.23645 17.2092 7.43252 17.5335 6.73893C17.8623 6.04535 18.3262 5.5139 18.9252 5.14458C19.5242 4.77077 20.2178 4.58386 21.0059 4.58386C22.0508 4.58386 22.8885 4.87661 23.5191 5.4621C24.1496 6.04309 24.5167 6.84928 24.6203 7.88065H23.3164C23.2038 7.09699 22.9583 6.52951 22.58 6.17821C22.2062 5.82691 21.6815 5.65126 21.0059 5.65126C20.1772 5.65126 19.5264 5.95752 19.0535 6.57004C18.5851 7.18256 18.3509 8.05405 18.3509 9.1845V10.1371C18.3509 11.2045 18.5739 12.0534 19.0198 12.684C19.4656 13.3145 20.0894 13.6298 20.8911 13.6298C21.6117 13.6298 22.1634 13.4676 22.5462 13.1434C22.9336 12.8146 23.1903 12.2448 23.3164 11.4342H24.6203ZM27.5096 14.5553H26.2598V4.17852H27.5096V14.5553ZM29.1356 10.8329C29.1356 10.1168 29.2752 9.47275 29.5544 8.90076C29.8382 8.32878 30.23 7.88741 30.7299 7.57664C31.2344 7.26588 31.8086 7.1105 32.4526 7.1105C33.448 7.1105 34.2519 7.45504 34.8644 8.14412C35.4815 8.83321 35.79 9.74973 35.79 10.8937V10.9815C35.79 11.6931 35.6526 12.3327 35.3779 12.9001C35.1076 13.4631 34.7181 13.9022 34.2091 14.2175C33.7047 14.5328 33.1237 14.6904 32.4661 14.6904C31.4753 14.6904 30.6714 14.3459 30.0544 13.6568C29.4418 12.9677 29.1356 12.0557 29.1356 10.9207V10.8329ZM30.3921 10.9815C30.3921 11.7922 30.5791 12.443 30.9529 12.9339C31.3312 13.4248 31.8356 13.6703 32.4661 13.6703C33.1012 13.6703 33.6056 13.4226 33.9794 12.9272C34.3532 12.4272 34.5402 11.7292 34.5402 10.8329C34.5402 10.0312 34.3487 9.38267 33.9659 8.88725C33.5876 8.38733 33.0832 8.13737 32.4526 8.13737C31.8356 8.13737 31.3379 8.38282 30.9596 8.87374C30.5813 9.36466 30.3921 10.0673 30.3921 10.9815ZM41.564 12.6164C41.564 12.2786 41.4356 12.0174 41.1789 11.8327C40.9267 11.6436 40.4831 11.4814 39.848 11.3463C39.2175 11.2112 38.7153 11.0491 38.3415 10.8599C37.9722 10.6708 37.6975 10.4456 37.5173 10.1843C37.3417 9.92313 37.2538 9.61237 37.2538 9.25206C37.2538 8.65305 37.506 8.14637 38.0105 7.73202C38.5194 7.31767 39.1679 7.1105 39.9561 7.1105C40.7848 7.1105 41.4559 7.32443 41.9693 7.75229C42.4873 8.18015 42.7462 8.72737 42.7462 9.39393H41.4897C41.4897 9.05164 41.3433 8.75664 41.0505 8.50893C40.7623 8.26122 40.3975 8.13737 39.9561 8.13737C39.5012 8.13737 39.1454 8.23645 38.8887 8.43462C38.632 8.63279 38.5036 8.89176 38.5036 9.21153C38.5036 9.51328 38.623 9.74072 38.8617 9.89385C39.1004 10.047 39.5305 10.1934 40.152 10.333C40.7781 10.4726 41.2847 10.6392 41.6721 10.8329C42.0594 11.0266 42.3454 11.2608 42.53 11.5355C42.7192 11.8057 42.8138 12.1368 42.8138 12.5286C42.8138 13.1816 42.5526 13.7063 42.0301 14.1027C41.5077 14.4945 40.8299 14.6904 39.9966 14.6904C39.4112 14.6904 38.8932 14.5868 38.4428 14.3796C37.9925 14.1725 37.6389 13.8842 37.3822 13.5149C37.13 13.1411 37.0039 12.738 37.0039 12.3056H38.2537C38.2762 12.7245 38.4428 13.0578 38.7536 13.3055C39.0689 13.5487 39.4832 13.6703 39.9966 13.6703C40.4695 13.6703 40.8479 13.5757 41.1316 13.3866C41.4199 13.1929 41.564 12.9362 41.564 12.6164ZM47.4258 14.6904C46.435 14.6904 45.6288 14.3661 45.0073 13.7176C44.3857 13.0645 44.075 12.193 44.075 11.1031V10.8734C44.075 10.1483 44.2123 9.50202 44.4871 8.93454C44.7663 8.36256 45.1536 7.91668 45.6491 7.59691C46.149 7.27264 46.6894 7.1105 47.2704 7.1105C48.2207 7.1105 48.9594 7.42351 49.4863 8.04954C50.0133 8.67557 50.2767 9.57183 50.2767 10.7383V11.2585H45.3248C45.3428 11.9791 45.5522 12.5624 45.9531 13.0082C46.3584 13.4496 46.8718 13.6703 47.4934 13.6703C47.9347 13.6703 48.3086 13.5802 48.6148 13.4001C48.9211 13.2199 49.1891 12.9812 49.4188 12.684L50.1821 13.2785C49.5696 14.2198 48.6509 14.6904 47.4258 14.6904ZM47.2704 8.13737C46.766 8.13737 46.3426 8.32202 46.0004 8.69134C45.6581 9.05614 45.4464 9.56958 45.3653 10.2316H49.0269V10.1371C48.9909 9.50202 48.8197 9.01111 48.5135 8.66431C48.2072 8.31302 47.7929 8.13737 47.2704 8.13737ZM51.3758 10.8397C51.3758 9.7182 51.6415 8.81744 52.173 8.13737C52.7044 7.45279 53.4002 7.1105 54.2605 7.1105C55.1162 7.1105 55.794 7.40325 56.2939 7.98874V4.17852H57.5438V14.5553H56.3953L56.3345 13.7716C55.8346 14.3842 55.1387 14.6904 54.247 14.6904C53.4002 14.6904 52.7089 14.3436 52.173 13.65C51.6415 12.9564 51.3758 12.0512 51.3758 10.9342V10.8397ZM52.6256 10.9815C52.6256 11.8102 52.7967 12.4588 53.139 12.9272C53.4813 13.3956 53.9542 13.6298 54.5577 13.6298C55.3504 13.6298 55.9291 13.274 56.2939 12.5624V9.20477C55.9201 8.51569 55.3459 8.17115 54.5712 8.17115C53.9587 8.17115 53.4813 8.4076 53.139 8.8805C52.7967 9.3534 52.6256 10.0537 52.6256 10.9815Z" fill="#8998AC"/>
<path fill-rule="evenodd" clip-rule="evenodd" d="M4.43066 14.3206C6.6398 14.3206 8.43066 12.5057 8.43066 10.2668C8.43066 8.02797 6.6398 6.21301 4.43066 6.21301C2.22152 6.21301 0.430664 8.02797 0.430664 10.2668C0.430664 12.5057 2.22152 14.3206 4.43066 14.3206Z" fill="#C2CDDC"/>
</g>
<defs>
<clipPath id="clip0">
<rect width="114" height="19.9071" fill="white" transform="translate(0.430664 0.242188)"/>
</clipPath>
</defs>
</svg>
