<svg width="239" height="230" viewBox="0 0 239 230" fill="none" xmlns="http://www.w3.org/2000/svg">
<g clip-path="url(#clip0)">
<g opacity="0.41">
<path opacity="0.41" d="M236.758 144.122C236.986 140.246 236.882 136.358 236.449 132.5C234.4 114.391 225.139 97.317 211.507 85.2688C206.643 80.9688 201.108 77.1157 197.942 71.4437C192.612 61.8871 193.016 50.906 186.412 41.4808C179.712 31.9521 170.219 24.7533 159.253 20.8852C126.773 9.59911 81.3382 27.9606 85.4315 67.1806C85.4315 67.3225 85.463 67.5275 85.4787 67.7851C85.6023 69.7114 85.3352 71.6428 84.6935 73.4626C84.0517 75.2824 83.0488 76.9528 81.7451 78.3729C80.4415 79.7929 78.8643 80.933 77.1089 81.7243C75.3535 82.5157 73.4564 82.9418 71.5321 82.9769C41.5896 83.6918 15.8138 106.847 10.2949 136.18C6.75195 155.04 12.5591 175.715 26.317 189.062C36.5844 199.023 50.3633 204.495 64.1526 208.254C91.7942 215.797 120.877 217.374 149.378 214.493C176.056 211.797 204.2 204.101 221.454 183.516C230.658 172.535 235.93 158.473 236.758 144.122Z" fill="#D4EBF8"/>
</g>
<g opacity="0.31">
<path opacity="0.31" d="M193.744 10.43C195.73 10.43 197.339 8.81548 197.339 6.8239C197.339 4.83233 195.73 3.21783 193.744 3.21783C191.758 3.21783 190.148 4.83233 190.148 6.8239C190.148 8.81548 191.758 10.43 193.744 10.43Z" fill="#E1EDFE"/>
</g>
<g opacity="0.31">
<path opacity="0.31" d="M70.4474 29.9372C72.2136 27.942 72.0327 24.8887 70.0435 23.1173C68.0542 21.3459 65.0099 21.5274 63.2438 23.5225C61.4776 25.5176 61.6585 28.571 63.6477 30.3424C65.637 32.1137 68.6813 31.9323 70.4474 29.9372Z" fill="#E1EDFE"/>
</g>
<path opacity="0.47" d="M4.42452 55.6843C0.112147 65.1987 -1.09124 75.8368 0.986351 86.0784C3.42347 98.0005 10.8239 107.163 8.25577 119.879C6.68344 127.622 6.30084 134.802 5.50943 142.482C3.88993 158.205 14.0891 172.072 26.715 179.558C36.9823 185.64 49.0159 187.921 60.8189 187.763C71.4426 187.616 82.0454 185.661 92.339 183.001C102.26 180.451 111.956 177.092 122.355 178.154C131.003 179.032 138.791 182.785 146.847 185.582C166.076 192.258 189.362 193.199 206.946 183.037C216.275 177.547 223.61 169.209 227.882 159.242C232.153 149.275 233.136 138.2 230.689 127.632C228.535 118.097 224.923 108.477 226.024 98.5419C226.81 91.6136 229.971 84.9272 229.394 77.9831C229.006 73.3678 226.983 69.0468 224.504 65.1253C215.458 50.8535 200.306 41.3021 184.284 36.0349C169.205 31.0832 153.649 27.4929 137.952 28.6756C105.489 31.1515 98.8694 26.0052 65.6984 18.8614C44.2832 14.2671 20.3261 30.6469 7.7998 49.6182C6.52254 51.5512 5.39417 53.5791 4.42452 55.6843Z" fill="#E0F1FD" fill-opacity="0.8"/>
<path opacity="0.81" d="M26.7566 70.3511C26.091 77.8629 28.6172 85.5955 26.505 93.0441C23.9788 101.954 16.6622 108.625 13.6748 117.372C9.267 130.293 9.48188 144.775 14.8331 157.365C17.4117 163.436 21.1853 169.077 26.3321 172.977C34.2619 178.991 44.676 180.305 54.4402 179.543C68.9895 178.407 84.3459 172.089 98.9896 173.813C107.066 174.764 109.529 183.527 113.696 189.309C118.436 195.777 124.703 200.963 131.935 204.401C145.012 210.709 160.709 211.298 174.074 205.584C188.345 199.492 200.803 184.605 199.965 167.773C199.588 159.982 196.48 152.25 197.916 144.596C199.724 134.992 206.941 126.24 212.166 118.418C217.997 109.639 221.431 99.48 222.124 88.9545C222.124 88.8388 222.124 88.7179 222.151 88.597C222.636 79.7664 220.199 71.0224 215.218 63.7245C210.237 56.4265 202.992 50.9835 194.608 48.2416L157.989 36.1513C120.819 23.9033 83.696 24.3185 49.5397 42.3016C42.1445 46.1915 30.1109 57.7877 27.6319 65.7831C27.1766 67.2696 26.8832 68.8012 26.7566 70.3511Z" fill="#D1E6FF" fill-opacity="0.5"/>
<path d="M154.811 87.6229L227.581 103.263L217.905 148.555C217.479 150.549 216.281 152.291 214.574 153.398C212.868 154.506 210.793 154.888 208.805 154.461L151.022 142.042C149.034 141.615 147.297 140.413 146.193 138.702C145.089 136.99 144.708 134.909 145.134 132.915L154.811 87.6229Z" fill="white"/>
<path d="M210.995 146.854L219.657 105.735L209.571 103.598L200.909 144.717L210.995 146.854Z" stroke="#FFD252" stroke-width="1.58955" stroke-miterlimit="10"/>
<path d="M219.659 105.765L160.324 93.1918L151.662 134.311L210.997 146.885L219.659 105.765Z" stroke="#FFD252" stroke-width="1.58955" stroke-miterlimit="10"/>
<path d="M219.66 105.767L160.325 93.1939L158.194 103.31L217.529 115.884L219.66 105.767Z" stroke="#FFD252" stroke-width="1.58955" stroke-miterlimit="10"/>
<path d="M215.318 126.369L155.983 113.796L153.852 123.912L213.187 136.486L215.318 126.369Z" stroke="#FFD252" stroke-width="1.58955" stroke-miterlimit="10"/>
<path d="M191.402 142.713L200.063 101.593L189.977 99.4558L181.315 140.575L191.402 142.713Z" stroke="#FFD252" stroke-width="1.58955" stroke-miterlimit="10"/>
<path d="M170.883 138.472L179.683 97.2855L169.58 95.1141L160.78 136.301L170.883 138.472Z" stroke="#FFD252" stroke-width="1.59312" stroke-miterlimit="10"/>
<path d="M161.676 74.5929L226.287 88.2846C226.813 88.396 227.312 88.6103 227.756 88.9151C228.199 89.2199 228.578 89.6094 228.872 90.0612C229.165 90.513 229.367 91.0183 229.465 91.5483C229.564 92.0783 229.557 92.6225 229.446 93.15L227.518 102.305L154.896 86.9158L156.822 77.7765C156.931 77.2473 157.143 76.7449 157.447 76.2982C157.75 75.8516 158.139 75.4694 158.59 75.1736C159.041 74.8778 159.545 74.6743 160.075 74.5746C160.605 74.475 161.149 74.4812 161.676 74.5929Z" fill="#FFD252"/>
<path d="M219.299 94.6616C220.729 94.6616 221.888 93.499 221.888 92.0648C221.888 90.6306 220.729 89.468 219.299 89.468C217.869 89.468 216.71 90.6306 216.71 92.0648C216.71 93.499 217.869 94.6616 219.299 94.6616Z" fill="#E7BA4A"/>
<path d="M219.215 92.4805C219.054 92.4474 218.901 92.3826 218.766 92.29C218.63 92.1974 218.514 92.0788 218.425 91.9409C218.335 91.8031 218.273 91.6488 218.243 91.487C218.214 91.3252 218.216 91.159 218.25 90.9981L219.482 85.1474C219.516 84.9866 219.581 84.8339 219.673 84.6982C219.766 84.5625 219.884 84.4465 220.021 84.3566C220.159 84.2668 220.312 84.205 220.473 84.1747C220.634 84.1444 220.8 84.1463 220.96 84.1802C221.284 84.2496 221.568 84.4452 221.749 84.7241C221.93 85.0029 221.993 85.3423 221.924 85.6678L220.693 91.5133C220.66 91.6745 220.595 91.8275 220.503 91.9636C220.411 92.0996 220.292 92.216 220.155 92.3059C220.017 92.3958 219.864 92.4576 219.702 92.4875C219.541 92.5175 219.375 92.5151 219.215 92.4805Z" fill="white"/>
<path d="M166.418 83.4127C167.846 83.3307 168.937 82.1034 168.855 80.6716C168.773 79.2398 167.55 78.1456 166.122 78.2276C164.694 78.3097 163.603 79.5369 163.685 80.9688C163.767 82.4006 164.991 83.4948 166.418 83.4127Z" fill="#E7BA4A"/>
<path d="M166.18 81.247C166.019 81.2132 165.867 81.148 165.732 81.0553C165.596 80.9625 165.481 80.8439 165.391 80.7062C165.302 80.5685 165.24 80.4145 165.21 80.2529C165.18 80.0914 165.181 79.9254 165.215 79.7646L166.447 73.9139C166.481 73.753 166.546 73.6004 166.638 73.4647C166.731 73.329 166.849 73.2129 166.986 73.1231C167.123 73.0333 167.277 72.9715 167.438 72.9412C167.599 72.9109 167.765 72.9128 167.925 72.9467C168.086 72.9798 168.238 73.0445 168.374 73.1372C168.51 73.2298 168.626 73.3484 168.715 73.4862C168.805 73.6241 168.866 73.7784 168.896 73.9402C168.926 74.102 168.924 74.2682 168.889 74.4291L167.652 80.2797C167.584 80.6035 167.391 80.8871 167.115 81.0684C166.839 81.2496 166.503 81.3138 166.18 81.247Z" fill="white"/>
<path d="M182.26 84.2163C182.154 84.7189 181.903 85.179 181.537 85.5382C181.171 85.8975 180.707 86.1399 180.204 86.2347C179.701 86.3296 179.181 86.2726 178.71 86.0711C178.239 85.8695 177.838 85.5324 177.558 85.1024C177.278 84.6724 177.131 84.1688 177.137 83.6552C177.142 83.1416 177.299 82.6412 177.588 82.2172C177.877 81.7932 178.285 81.4647 178.76 81.2732C179.235 81.0816 179.756 81.0357 180.258 81.1412C180.929 81.2839 181.517 81.6876 181.892 82.264C182.267 82.8404 182.399 83.5424 182.26 84.2163Z" fill="#E7BA4A"/>
<path d="M179.64 84.1007C179.479 84.0669 179.326 84.0016 179.19 83.9085C179.055 83.8154 178.939 83.6962 178.849 83.558C178.759 83.4197 178.698 83.2651 178.668 83.1029C178.638 82.9407 178.641 82.7742 178.675 82.613L179.907 76.7624C179.941 76.6015 180.006 76.4488 180.098 76.3131C180.191 76.1775 180.309 76.0614 180.446 75.9716C180.583 75.8817 180.737 75.8199 180.898 75.7896C181.059 75.7594 181.225 75.7612 181.385 75.7951C181.709 75.8645 181.993 76.0601 182.174 76.339C182.355 76.6179 182.418 76.9573 182.349 77.2828L181.118 83.1334C181.048 83.4576 180.854 83.7412 180.577 83.9224C180.301 84.1036 179.963 84.1677 179.64 84.1007Z" fill="white"/>
<path d="M206.811 91.8315C208.206 91.5189 209.085 90.1308 208.773 88.7311C208.462 87.3314 207.078 86.4502 205.682 86.7628C204.287 87.0754 203.408 88.4635 203.72 89.8631C204.031 91.2628 205.415 92.1441 206.811 91.8315Z" fill="#E7BA4A"/>
<path d="M206.159 89.7151C205.999 89.6813 205.847 89.6162 205.711 89.5234C205.576 89.4306 205.46 89.312 205.371 89.1743C205.281 89.0366 205.219 88.8826 205.189 88.7211C205.159 88.5595 205.161 88.3935 205.195 88.2327L206.437 82.382C206.506 82.0567 206.701 81.7722 206.979 81.5909C207.257 81.4096 207.596 81.3462 207.92 81.4148C208.244 81.4842 208.528 81.6798 208.709 81.9587C208.89 82.2375 208.953 82.5769 208.885 82.9024L207.648 88.7478C207.615 88.9101 207.55 89.0642 207.457 89.2011C207.364 89.3379 207.244 89.4548 207.106 89.5449C206.967 89.6349 206.812 89.6964 206.65 89.7256C206.487 89.7548 206.32 89.7512 206.159 89.7151Z" fill="white"/>
<g opacity="0.66">
<path opacity="0.66" d="M55.0835 178.085L59.1139 179.199C58.8312 182.29 59.2192 185.405 60.2512 188.33L56.6139 190.407C56.1639 190.65 55.7669 190.981 55.4462 191.38C55.1256 191.78 54.8878 192.239 54.7468 192.732C54.6057 193.225 54.5644 193.741 54.625 194.25C54.6857 194.76 54.8473 195.251 55.1002 195.697C55.3531 196.143 55.6922 196.533 56.0977 196.845C56.5032 197.158 56.9668 197.386 57.4613 197.516C57.9559 197.646 58.4713 197.675 58.9774 197.603C59.4835 197.53 59.9701 197.357 60.4085 197.093L64.0458 195.022C66.0248 197.406 68.4937 199.334 71.2838 200.673L70.1674 204.731C70.033 205.218 69.9956 205.727 70.0575 206.228C70.1194 206.73 70.2793 207.214 70.528 207.654C70.7768 208.093 71.1096 208.479 71.5073 208.789C71.9049 209.1 72.3597 209.328 72.8456 209.462V209.462C73.3312 209.597 73.8385 209.634 74.3386 209.572C74.8386 209.51 75.3215 209.35 75.7597 209.1C76.1978 208.851 76.5826 208.517 76.892 208.118C77.2014 207.719 77.4293 207.263 77.5626 206.776L78.6737 202.728C81.7591 203.01 84.8686 202.617 87.788 201.577L89.8583 205.225C90.0971 205.683 90.4253 206.088 90.8234 206.415C91.2215 206.743 91.6813 206.987 92.1755 207.133C92.6696 207.278 93.1879 207.323 93.6995 207.263C94.2111 207.204 94.7055 207.041 95.1532 206.786C95.601 206.531 95.9929 206.188 96.3056 205.777C96.6184 205.367 96.8455 204.898 96.9735 204.397C97.1015 203.897 97.1278 203.376 97.0507 202.865C96.9737 202.354 96.7949 201.865 96.525 201.425L94.46 197.776C96.8367 195.789 98.7584 193.311 100.094 190.512L104.125 191.626C104.61 191.76 105.118 191.797 105.618 191.734C106.118 191.671 106.601 191.511 107.039 191.261C107.477 191.011 107.862 190.677 108.171 190.278C108.48 189.878 108.708 189.422 108.842 188.935V188.935C108.976 188.448 109.013 187.939 108.952 187.437C108.89 186.936 108.73 186.451 108.481 186.012C108.232 185.573 107.899 185.187 107.502 184.876C107.104 184.566 106.649 184.337 106.163 184.204L102.128 183.089C102.41 179.999 102.022 176.884 100.99 173.958L104.628 171.887C105.068 171.639 105.455 171.306 105.767 170.907C106.078 170.508 106.308 170.052 106.444 169.563C106.579 169.075 106.617 168.565 106.555 168.062C106.493 167.559 106.333 167.074 106.083 166.633C105.834 166.193 105.5 165.806 105.101 165.495C104.702 165.184 104.246 164.955 103.758 164.822C103.271 164.688 102.762 164.652 102.261 164.717C101.76 164.781 101.277 164.944 100.838 165.196L97.2011 167.267C95.2194 164.886 92.7488 162.962 89.9578 161.626L91.069 157.584C91.2026 157.097 91.2392 156.588 91.1767 156.086C91.1141 155.585 90.9537 155.1 90.7045 154.661C90.4553 154.222 90.1222 153.836 89.7243 153.526C89.3264 153.215 88.8715 152.987 88.3855 152.853V152.853C87.8996 152.719 87.3921 152.682 86.892 152.745C86.392 152.808 85.9091 152.969 85.4711 153.219C85.033 153.468 84.6484 153.803 84.3391 154.202C84.0298 154.601 83.8019 155.057 83.6685 155.544L82.5626 159.587C79.4798 159.303 76.3723 159.693 73.4536 160.727L71.3886 157.079C71.1394 156.64 70.8064 156.254 70.4086 155.944C70.0108 155.633 69.5559 155.405 69.0699 155.271C68.584 155.137 68.0765 155.1 67.5764 155.163C67.0763 155.226 66.5934 155.386 66.1553 155.636C65.7173 155.886 65.3325 156.22 65.0231 156.619C64.7137 157.018 64.4857 157.475 64.3522 157.962C64.2186 158.449 64.182 158.958 64.2445 159.46C64.3071 159.961 64.4675 160.446 64.7167 160.885L66.8131 164.528C64.4335 166.514 62.5098 168.992 61.1737 171.793L57.1432 170.684C56.6577 170.549 56.1503 170.511 55.6503 170.573C55.1503 170.635 54.6673 170.796 54.2292 171.045C53.791 171.295 53.4063 171.629 53.0969 172.027C52.7875 172.426 52.5596 172.882 52.4262 173.37V173.37C52.1601 174.348 52.29 175.393 52.7876 176.276C53.2852 177.159 54.1103 177.809 55.0835 178.085ZM84.7691 166.026C87.749 166.849 90.4188 168.54 92.4408 170.884C94.4628 173.229 95.7464 176.122 96.1292 179.198C96.512 182.274 95.9768 185.395 94.5914 188.166C93.2059 190.937 91.0324 193.234 88.3455 194.766C85.6587 196.298 82.5792 196.997 79.4965 196.774C76.4137 196.551 73.4661 195.416 71.0262 193.513C68.5864 191.61 66.7639 189.025 65.7891 186.083C64.8144 183.141 64.7311 179.975 65.55 176.986C66.6498 172.977 69.2924 169.57 72.8966 167.514C76.5008 165.459 80.7714 164.924 84.7691 166.026V166.026Z" stroke="white" stroke-width="2.38433" stroke-miterlimit="10" stroke-linecap="round"/>
<path opacity="0.66" d="M136.357 37.2432L137.253 40.0345C135.344 41.0395 133.674 42.4472 132.358 44.161L129.758 42.8258C129.446 42.622 129.095 42.4859 128.727 42.4262C128.359 42.3666 127.983 42.3847 127.623 42.4794C127.262 42.5741 126.926 42.7433 126.634 42.9762C126.343 43.2091 126.103 43.5005 125.931 43.8317C125.758 44.163 125.657 44.5267 125.633 44.8996C125.609 45.2724 125.663 45.6462 125.791 45.997C125.92 46.3478 126.12 46.6677 126.379 46.9363C126.638 47.2049 126.95 47.4163 127.295 47.5568L129.884 48.9025C129.244 50.9667 129.056 53.1455 129.334 55.2894L126.556 56.1725C125.881 56.3874 125.318 56.8625 124.992 57.4934C124.665 58.1242 124.602 58.8592 124.816 59.5367C125.03 60.2142 125.504 60.7785 126.133 61.1058C126.762 61.433 127.495 61.4964 128.17 61.282L130.948 60.3988C131.95 62.3141 133.354 63.9891 135.062 65.3086L133.721 67.9001C133.394 68.5316 133.331 69.2675 133.545 69.9457C133.759 70.624 134.234 71.1891 134.863 71.5167C135.493 71.8443 136.227 71.9076 136.903 71.6927C137.579 71.4778 138.142 71.0023 138.469 70.3707L139.811 67.7739C141.871 68.4079 144.043 68.5873 146.179 68.2996L147.059 71.0856C147.274 71.763 147.747 72.3274 148.376 72.6547C149.005 72.9819 149.738 73.0453 150.414 72.8309C151.089 72.6159 151.652 72.1408 151.978 71.51C152.304 70.8791 152.367 70.1441 152.154 69.4666L151.273 66.6806C153.181 65.6754 154.849 64.2676 156.163 62.5541L158.752 63.8998C159.367 64.1463 160.052 64.1548 160.673 63.9238C161.295 63.6927 161.808 63.2384 162.114 62.6491C162.42 62.0598 162.497 61.3774 162.33 60.7344C162.163 60.0913 161.764 59.5334 161.21 59.1688L158.626 57.8178C159.267 55.7537 159.455 53.5748 159.177 51.431L161.955 50.5479C162.63 50.3329 163.193 49.8578 163.519 49.227C163.845 48.5961 163.908 47.8612 163.695 47.1836V47.1836C163.48 46.5062 163.007 45.9418 162.378 45.6146C161.749 45.2873 161.016 45.224 160.34 45.4384L157.562 46.3215C156.557 44.4086 155.152 42.7358 153.443 41.417L154.785 38.8202C154.962 38.5066 155.074 38.1604 155.114 37.8023C155.155 37.4442 155.123 37.0816 155.021 36.7362C154.918 36.3907 154.748 36.0695 154.519 35.7918C154.29 35.514 154.007 35.2854 153.688 35.1195C153.369 34.9537 153.02 34.8541 152.662 34.8267C152.304 34.7993 151.944 34.8445 151.603 34.9599C151.263 35.0752 150.949 35.2581 150.681 35.4978C150.412 35.7375 150.195 36.029 150.041 36.3549L148.7 38.9464C146.64 38.3126 144.467 38.1332 142.332 38.4207L141.446 35.6294C141.34 35.2936 141.17 34.9818 140.944 34.712C140.718 34.4423 140.442 34.2197 140.13 34.0572C139.819 33.8946 139.479 33.7952 139.129 33.7646C138.779 33.7341 138.427 33.7729 138.092 33.879V33.879C137.417 34.095 136.856 34.5705 136.531 35.2013C136.205 35.832 136.143 36.5664 136.357 37.2432V37.2432ZM154.633 50.08C155.284 52.1396 155.311 54.3466 154.712 56.4219C154.112 58.4971 152.912 60.3475 151.264 61.7388C149.616 63.1301 147.594 64 145.453 64.2383C143.311 64.4767 141.148 64.0728 139.236 63.0778C137.323 62.0829 135.748 60.5414 134.71 58.6485C133.671 56.7556 133.215 54.5963 133.4 52.4436C133.585 50.291 134.403 48.2417 135.749 46.555C137.095 44.8683 138.91 43.6199 140.964 42.9677C142.327 42.5342 143.762 42.3743 145.187 42.4971C146.611 42.6199 147.998 43.0231 149.267 43.6835C150.537 44.344 151.664 45.2489 152.585 46.3464C153.505 47.4439 154.201 48.7126 154.633 50.08Z" stroke="white" stroke-width="1.58955" stroke-miterlimit="10" stroke-linecap="round"/>
<path opacity="0.66" d="M75.3083 47.031L79.1867 47.5935C79.2743 50.4971 79.9896 53.3471 81.2832 55.9463L78.1385 58.296C77.374 58.8676 76.8672 59.7204 76.7296 60.6668C76.592 61.6132 76.8349 62.5756 77.4048 63.3424C77.9747 64.1092 78.825 64.6175 79.7685 64.7555C80.7121 64.8935 81.6717 64.65 82.4362 64.0783L85.5809 61.7286C87.6956 63.713 90.2129 65.2157 92.9604 66.1337L92.3996 70.0184C92.3314 70.4868 92.3559 70.9641 92.4718 71.4231C92.5877 71.882 92.7927 72.3135 93.075 72.6928C93.3574 73.0722 93.7115 73.392 94.1173 73.6339C94.523 73.8759 94.9723 74.0352 95.4394 74.1028C96.3825 74.2396 97.3411 73.9953 98.1047 73.4236C98.8683 72.8519 99.3744 71.9996 99.5118 71.0539L100.073 67.1693C102.967 67.0782 105.808 66.3609 108.401 65.0666L110.743 68.2206C111.313 68.9874 112.164 69.4957 113.107 69.6337C114.051 69.7717 115.01 69.5281 115.775 68.9565C116.539 68.3849 117.046 67.5321 117.184 66.5858C117.321 65.6394 117.079 64.6769 116.509 63.9101L114.166 60.7561C116.149 58.6313 117.649 56.1009 118.563 53.339L122.442 53.9015C122.908 53.9699 123.384 53.9452 123.841 53.8289C124.298 53.7126 124.728 53.5069 125.106 53.2237C125.484 52.9404 125.802 52.5852 126.043 52.1783C126.284 51.7714 126.442 51.3209 126.509 50.8526V50.8526C126.577 50.3848 126.553 49.9082 126.437 49.4499C126.321 48.9916 126.117 48.5607 125.835 48.1818C125.553 47.803 125.199 47.4835 124.794 47.2419C124.389 47.0002 123.941 46.841 123.474 46.7734L119.596 46.2057C119.505 43.3041 118.79 40.4565 117.499 37.8581L120.644 35.5084C121.408 34.9368 121.915 34.084 122.053 33.1376C122.19 32.1912 121.948 31.2288 121.378 30.462C120.808 29.6952 119.958 29.1869 119.014 29.0489C118.07 28.9109 117.111 29.1545 116.346 29.7261L113.202 32.0758C111.081 30.0919 108.559 28.591 105.806 27.676L106.372 23.7913C106.441 23.3229 106.416 22.8455 106.3 22.3866C106.184 21.9277 105.979 21.4962 105.697 21.1168C105.415 20.7375 105.06 20.4177 104.655 20.1757C104.249 19.9338 103.8 19.7745 103.333 19.7069V19.7069C102.39 19.5701 101.431 19.8144 100.667 20.3861C99.9037 20.9577 99.3976 21.81 99.2602 22.7557L98.6994 26.6404C95.8051 26.7338 92.9647 27.4509 90.3713 28.7431L88.0285 25.5891C87.7463 25.2094 87.3923 24.8892 86.9867 24.6467C86.5812 24.4043 86.1319 24.2443 85.6647 24.176C85.1975 24.1076 84.7215 24.1323 84.2637 24.2484C83.806 24.3646 83.3756 24.5701 82.997 24.8531C82.6185 25.1362 82.2992 25.4912 82.0575 25.898C81.8157 26.3048 81.6562 26.7553 81.5881 27.2239C81.52 27.6925 81.5445 28.17 81.6604 28.6291C81.7762 29.0882 81.9811 29.5199 82.2633 29.8995L84.6061 33.0535C82.6266 35.1758 81.1283 37.7025 80.214 40.4602L76.3356 39.8977C75.8689 39.8292 75.3934 39.8536 74.9361 39.9696C74.4789 40.0855 74.0489 40.2906 73.6707 40.5733C73.2925 40.8559 72.9735 41.2105 72.732 41.6168C72.4906 42.0232 72.3312 42.4732 72.2632 42.9413V42.9413C72.195 43.4104 72.2197 43.8885 72.3359 44.348C72.452 44.8076 72.6574 45.2396 72.9402 45.6195C73.2231 45.9993 73.5778 46.3195 73.9841 46.5617C74.3905 46.8039 74.8405 46.9634 75.3083 47.031V47.031ZM101.514 32.3702C104.378 32.787 107.055 34.0464 109.205 35.989C111.356 37.9316 112.884 40.4702 113.596 43.2837C114.308 46.0973 114.172 49.0595 113.206 51.7956C112.239 54.5318 110.485 56.919 108.166 58.6555C105.847 60.392 103.066 61.3997 100.176 61.5512C97.286 61.7027 94.4158 60.9912 91.9288 59.5067C89.4417 58.0222 87.4494 55.8313 86.2038 53.2111C84.9582 50.5909 84.5153 47.6591 84.931 44.7864C85.4912 40.9405 87.5495 37.4745 90.6544 35.1488C93.7592 32.8231 97.6571 31.8276 101.493 32.3807L101.514 32.3702Z" stroke="white" stroke-width="1.58955" stroke-miterlimit="10" stroke-linecap="round"/>
<g opacity="0.81">
<path opacity="0.81" d="M184.555 168.408H200.561" stroke="white" stroke-width="1.58955" stroke-miterlimit="10" stroke-linecap="round"/>
<path opacity="0.81" d="M184.555 177.507H200.561" stroke="white" stroke-width="1.58955" stroke-miterlimit="10" stroke-linecap="round"/>
<path opacity="0.81" d="M213.087 157.179H147.929C147.434 157.179 147.033 157.581 147.033 158.078V185.796C147.033 186.293 147.434 186.695 147.929 186.695H213.087C213.582 186.695 213.983 186.293 213.983 185.796V158.078C213.983 157.581 213.582 157.179 213.087 157.179Z" stroke="white" stroke-width="1.58955" stroke-miterlimit="10" stroke-linecap="round"/>
<g opacity="0.66">
<path opacity="0.66" d="M213.087 157.179H147.929C147.434 157.179 147.033 157.581 147.033 158.078V185.796C147.033 186.293 147.434 186.695 147.929 186.695H213.087C213.582 186.695 213.983 186.293 213.983 185.796V158.078C213.983 157.581 213.582 157.179 213.087 157.179Z" stroke="white" stroke-width="1.58955" stroke-miterlimit="10" stroke-linecap="round"/>
</g>
<path opacity="0.81" d="M156.53 163.992H200.561" stroke="white" stroke-width="1.58955" stroke-miterlimit="10" stroke-linecap="round"/>
<path opacity="0.81" d="M156.53 172.823H200.561" stroke="white" stroke-width="1.58955" stroke-miterlimit="10" stroke-linecap="round"/>
<path opacity="0.81" d="M156.53 168.408H180.267" stroke="white" stroke-width="1.58955" stroke-miterlimit="10" stroke-linecap="round"/>
<path opacity="0.81" d="M156.53 177.507H180.267" stroke="white" stroke-width="1.58955" stroke-miterlimit="10" stroke-linecap="round"/>
<path opacity="0.81" d="M156.53 181.722H172.542" stroke="white" stroke-width="1.58955" stroke-miterlimit="10" stroke-linecap="round"/>
</g>
</g>
<g opacity="0.81">
<path opacity="0.81" d="M43.1034 67.8317H27.0918" stroke="white" stroke-width="1.58955" stroke-miterlimit="10" stroke-linecap="round"/>
<path opacity="0.81" d="M43.1034 58.7324H27.0918" stroke="white" stroke-width="1.58955" stroke-miterlimit="10" stroke-linecap="round"/>
<path opacity="0.81" d="M79.7286 49.5439H14.571C14.0761 49.5439 13.6748 49.9463 13.6748 50.4428V78.1612C13.6748 78.6576 14.0761 79.06 14.571 79.06H79.7286C80.2235 79.06 80.6248 78.6576 80.6248 78.1612V50.4428C80.6248 49.9463 80.2235 49.5439 79.7286 49.5439Z" stroke="white" stroke-width="1.58955" stroke-miterlimit="10" stroke-linecap="round"/>
<g opacity="0.66">
<path opacity="0.66" d="M79.7286 49.5439H14.571C14.0761 49.5439 13.6748 49.9463 13.6748 50.4428V78.1612C13.6748 78.6576 14.0761 79.06 14.571 79.06H79.7286C80.2235 79.06 80.6248 78.6576 80.6248 78.1612V50.4428C80.6248 49.9463 80.2235 49.5439 79.7286 49.5439Z" stroke="white" stroke-width="1.58955" stroke-miterlimit="10" stroke-linecap="round"/>
</g>
<path opacity="0.81" d="M71.1224 72.2468H27.0918" stroke="white" stroke-width="1.58955" stroke-miterlimit="10" stroke-linecap="round"/>
<path opacity="0.81" d="M71.1224 63.4159H27.0918" stroke="white" stroke-width="1.58955" stroke-miterlimit="10" stroke-linecap="round"/>
<path opacity="0.81" d="M71.1218 67.8317H47.3848" stroke="white" stroke-width="1.58955" stroke-miterlimit="10" stroke-linecap="round"/>
<path opacity="0.81" d="M71.1218 58.7324H47.3848" stroke="white" stroke-width="1.58955" stroke-miterlimit="10" stroke-linecap="round"/>
<path opacity="0.81" d="M71.1226 54.5163H55.1162" stroke="white" stroke-width="1.58955" stroke-miterlimit="10" stroke-linecap="round"/>
</g>
<path d="M108.963 156.596L108.58 156.69L82.4326 163.156L82.05 163.25L80.6191 184.267L81.6936 184.004L118.89 174.81L119.964 174.547L108.963 156.596Z" fill="#A4BDF1"/>
<path opacity="0.35" d="M110.037 158.351L81.9081 165.3L81.4102 172.686L113.905 164.659L113.984 164.638L110.037 158.351Z" fill="#9FB7E7"/>
<path d="M155.645 138.496L32.3377 168.985C31.2223 169.26 30.0438 169.079 29.0611 168.483C28.0784 167.886 27.3718 166.923 27.0966 165.805L9.27682 93.2629C9.00225 92.1477 9.17886 90.9689 9.76809 89.984C10.3573 88.999 11.3112 88.288 12.4215 88.0062L135.729 57.5176C136.841 57.2393 138.018 57.4152 139.001 58.0066C139.983 58.598 140.692 59.5565 140.97 60.6716L158.79 133.214C158.931 133.768 158.962 134.344 158.88 134.91C158.798 135.476 158.606 136.02 158.314 136.511C158.021 137.002 157.635 137.43 157.177 137.771C156.719 138.112 156.199 138.358 155.645 138.496Z" fill="#A4BDF1"/>
<path d="M151.085 130.249L32.5469 159.524C32.3072 159.581 32.0547 159.541 31.8438 159.414C31.633 159.286 31.4808 159.08 31.42 158.84L15.5238 94.1412C15.4941 94.0225 15.4882 93.899 15.5065 93.7779C15.5247 93.6569 15.5668 93.5407 15.6302 93.436C15.6935 93.3314 15.777 93.2404 15.8757 93.1684C15.9744 93.0963 16.0863 93.0446 16.2051 93.0163L134.743 63.7209C134.983 63.6636 135.236 63.7031 135.446 63.831C135.657 63.9589 135.809 64.1648 135.87 64.4043L151.766 129.124C151.796 129.243 151.802 129.367 151.784 129.488C151.766 129.609 151.723 129.725 151.66 129.83C151.597 129.934 151.513 130.025 151.415 130.097C151.316 130.169 151.204 130.221 151.085 130.249Z" fill="white"/>
<path d="M129.304 175.767L72.9201 189.697C72.736 188.948 72.7009 188.17 72.8168 187.407C72.9327 186.645 73.1973 185.912 73.5954 185.252C73.9936 184.592 74.5175 184.017 75.1372 183.561C75.757 183.104 76.4604 182.774 77.2073 182.59L122.218 171.467C123.726 171.095 125.32 171.34 126.648 172.146C127.977 172.952 128.932 174.254 129.304 175.767Z" fill="#A4BDF1"/>
<path d="M157.92 146.519L34.0308 177.128C31.8715 177.654 29.5339 175.719 28.7897 172.786L25.4092 159.024L157.171 126.475L160.551 140.237C161.248 143.17 160.08 145.982 157.92 146.519Z" fill="#A4BDF1"/>
<path d="M62.3997 140.281L61.0213 139.146C61.6673 137.99 62.057 136.708 62.1638 135.387L63.9353 135.214C64.3676 135.172 64.7657 134.959 65.0419 134.623C65.3181 134.287 65.4498 133.855 65.4081 133.421C65.3664 132.987 65.1547 132.588 64.8195 132.311C64.4843 132.034 64.0532 131.902 63.6209 131.944L61.8441 132.123C61.4871 130.847 60.8576 129.665 59.9993 128.658L61.1366 127.276C61.412 126.939 61.5429 126.506 61.5007 126.073C61.4584 125.639 61.2464 125.24 60.9112 124.963V124.963C60.5748 124.688 60.1437 124.558 59.7118 124.6C59.2799 124.642 58.8822 124.854 58.6051 125.189L57.473 126.561C56.3234 125.912 55.0463 125.522 53.7309 125.42L53.5579 123.638C53.5162 123.205 53.3045 122.806 52.9693 122.529C52.6342 122.252 52.203 122.119 51.7707 122.161C51.3384 122.203 50.9404 122.415 50.6642 122.752C50.388 123.088 50.2563 123.52 50.298 123.954L50.4709 125.736C49.1998 126.095 48.0214 126.726 47.017 127.586L45.6386 126.451C45.4733 126.313 45.2826 126.21 45.0773 126.146C44.872 126.083 44.6562 126.061 44.4424 126.081C44.2286 126.102 44.0209 126.164 43.8314 126.266C43.6418 126.367 43.474 126.505 43.3378 126.671V126.671C43.2007 126.838 43.0979 127.03 43.035 127.237C42.9722 127.443 42.9506 127.66 42.9715 127.875C42.9925 128.09 43.0555 128.298 43.157 128.489C43.2585 128.679 43.3966 128.848 43.5631 128.984L44.9415 130.12C44.2942 131.275 43.9043 132.557 43.799 133.878L42.0222 134.052C41.8076 134.072 41.599 134.134 41.4084 134.235C41.2178 134.336 41.049 134.474 40.9117 134.64C40.7744 134.807 40.6713 134.999 40.6084 135.206C40.5454 135.413 40.5239 135.63 40.5449 135.845C40.566 136.06 40.6293 136.269 40.7312 136.46C40.833 136.65 40.9714 136.819 41.1384 136.956C41.3054 137.092 41.4977 137.195 41.7043 137.256C41.9108 137.318 42.1275 137.339 42.3419 137.316L44.1187 137.143C44.4771 138.416 45.1045 139.598 45.9583 140.607L44.8262 141.989C44.5522 142.327 44.4221 142.759 44.4643 143.192C44.5065 143.626 44.7176 144.024 45.0516 144.302V144.302C45.3867 144.578 45.8172 144.709 46.2487 144.667C46.6801 144.625 47.0771 144.412 47.3525 144.076L48.4898 142.694C49.6413 143.338 50.9175 143.727 52.2319 143.834L52.4049 145.616C52.4473 146.05 52.6597 146.449 52.9953 146.725C53.331 147.002 53.7624 147.133 54.1947 147.091C54.627 147.048 55.0248 146.835 55.3005 146.499C55.5762 146.162 55.7073 145.729 55.6649 145.296L55.4919 143.514C56.7618 143.154 57.9398 142.525 58.9458 141.669L60.3242 142.804C60.4898 142.941 60.6809 143.045 60.8863 143.107C61.0918 143.17 61.3077 143.192 61.5215 143.171C61.7353 143.15 61.9429 143.087 62.1323 142.985C62.3217 142.883 62.4892 142.745 62.6251 142.578C62.8982 142.243 63.0279 141.813 62.9856 141.383C62.9434 140.952 62.7327 140.556 62.3997 140.281V140.281ZM48.7466 139.803C47.7284 138.963 46.9815 137.839 46.6001 136.573C46.2187 135.307 46.2201 133.957 46.604 132.692C46.9879 131.427 47.7371 130.304 48.7569 129.466C49.7767 128.628 51.0213 128.112 52.3334 127.984C53.6455 127.855 54.9662 128.12 56.1284 128.744C57.2907 129.368 58.2423 130.324 58.8631 131.49C59.4839 132.657 59.7459 133.982 59.616 135.297C59.4861 136.613 58.9702 137.861 58.1334 138.883C57.0098 140.252 55.39 141.119 53.6298 141.291C51.8697 141.464 50.1133 140.928 48.7466 139.803V139.803Z" stroke="#93BEFA" stroke-width="0.794776" stroke-miterlimit="10"/>
<path d="M36.299 129.661L36.6083 128.368C37.5885 128.425 38.5696 128.271 39.4856 127.916L40.1775 129.052C40.2607 129.19 40.3703 129.31 40.4999 129.406C40.6296 129.501 40.7767 129.57 40.9329 129.609C41.0891 129.647 41.2514 129.655 41.4104 129.63C41.5695 129.606 41.7222 129.55 41.8599 129.467C41.9975 129.383 42.1174 129.273 42.2127 129.143C42.308 129.013 42.3769 128.866 42.4153 128.709C42.4538 128.552 42.4611 128.39 42.4368 128.23C42.4125 128.071 42.3572 127.918 42.2739 127.779L41.5821 126.639C42.3172 125.986 42.902 125.181 43.2959 124.279L44.5905 124.594C44.9038 124.668 45.2339 124.616 45.5087 124.447C45.7836 124.279 45.981 124.009 46.058 123.695C46.1339 123.38 46.0821 123.048 45.9141 122.771C45.7462 122.494 45.4756 122.295 45.1618 122.218L43.8672 121.908C43.9288 120.924 43.7749 119.939 43.4165 119.022L44.5538 118.328C44.8318 118.159 45.0313 117.885 45.1085 117.568C45.1856 117.252 45.1341 116.917 44.9652 116.638C44.7963 116.359 44.5239 116.159 44.2079 116.082C43.8919 116.004 43.5582 116.056 43.2802 116.225L42.1481 116.919C41.4958 116.184 40.6932 115.597 39.7949 115.2L40.1093 113.907C40.185 113.591 40.1326 113.258 39.9635 112.981C39.7945 112.704 39.5227 112.506 39.2078 112.43C38.8938 112.356 38.5631 112.409 38.2881 112.578C38.0131 112.748 37.8162 113.02 37.7403 113.334L37.4311 114.627C36.4506 114.566 35.4685 114.72 34.5537 115.079L33.8462 113.944C33.7629 113.806 33.6533 113.686 33.5237 113.59C33.3941 113.494 33.247 113.425 33.0907 113.387C32.9345 113.348 32.7723 113.341 32.6132 113.365C32.4542 113.39 32.3015 113.445 32.1638 113.529C32.0261 113.612 31.9062 113.722 31.8109 113.852C31.7156 113.982 31.6468 114.13 31.6083 114.286C31.5699 114.443 31.5626 114.606 31.5869 114.765C31.6111 114.925 31.6665 115.078 31.7497 115.216L32.4416 116.352C31.7064 117.004 31.1216 117.81 30.7277 118.712L29.4332 118.402C29.2779 118.363 29.1167 118.356 28.9587 118.381C28.8007 118.405 28.6491 118.461 28.5127 118.544C28.3762 118.628 28.2577 118.738 28.1638 118.868C28.0699 118.997 28.0026 119.144 27.9657 119.3C27.8899 119.615 27.9418 119.947 28.1099 120.223C28.2779 120.499 28.5484 120.696 28.8619 120.772L30.1564 121.088C30.0952 122.071 30.249 123.056 30.6072 123.974L29.4699 124.668C29.3322 124.751 29.2124 124.862 29.1172 124.992C29.022 125.122 28.9534 125.27 28.9152 125.427C28.877 125.584 28.87 125.747 28.8945 125.907C28.9191 126.066 28.9748 126.219 29.0584 126.358C29.1421 126.496 29.252 126.616 29.3819 126.711C29.5119 126.807 29.6593 126.876 29.8157 126.914C29.9722 126.952 30.1347 126.959 30.2938 126.935C30.453 126.91 30.6058 126.854 30.7435 126.77L31.8755 126.076C32.5268 126.815 33.3296 127.403 34.2288 127.8L33.9143 129.094C33.8402 129.409 33.8934 129.74 34.0623 130.016C34.2312 130.292 34.5021 130.489 34.8158 130.566C34.9724 130.605 35.1354 130.614 35.2952 130.59C35.4551 130.566 35.6085 130.51 35.7466 130.426C35.8847 130.341 36.0047 130.231 36.0995 130.099C36.1944 129.968 36.2622 129.819 36.299 129.661ZM32.19 120.336C32.4192 119.379 32.9262 118.511 33.647 117.843C34.3678 117.175 35.27 116.736 36.2395 116.582C37.209 116.428 38.2023 116.565 39.0938 116.977C39.9852 117.389 40.7348 118.057 41.2478 118.897C41.7608 119.736 42.0141 120.709 41.9757 121.693C41.9373 122.677 41.6089 123.627 41.0321 124.424C40.4553 125.22 39.656 125.827 38.7351 126.168C37.8143 126.509 36.8133 126.569 35.8588 126.339C35.2245 126.187 34.6263 125.911 34.0984 125.527C33.5706 125.143 33.1235 124.659 32.7827 124.101C32.4419 123.543 32.2141 122.924 32.1124 122.278C32.0107 121.632 32.0371 120.972 32.19 120.336Z" fill="#FFD252"/>
<path d="M132.988 102.95C133.114 102.852 133.22 102.729 133.299 102.59C133.379 102.45 133.43 102.297 133.45 102.137C133.47 101.978 133.458 101.816 133.416 101.662C133.374 101.507 133.301 101.362 133.203 101.236L132.39 100.185C133.05 99.4518 133.544 98.5836 133.837 97.6405L135.156 97.8054C135.476 97.8459 135.8 97.7571 136.055 97.5584C136.311 97.3597 136.477 97.0674 136.518 96.7458C136.558 96.4243 136.47 96.0997 136.272 95.8437C136.074 95.5876 135.782 95.421 135.462 95.3804L134.143 95.2155C134.093 94.2319 133.831 93.2709 133.376 92.3984L134.428 91.5833C134.683 91.384 134.848 91.0918 134.889 90.7705C134.929 90.4493 134.841 90.1252 134.643 89.869C134.546 89.7421 134.424 89.6358 134.285 89.5563C134.146 89.4768 133.992 89.4255 133.834 89.4055C133.675 89.3856 133.514 89.3972 133.359 89.4398C133.205 89.4825 133.061 89.5552 132.934 89.6539L131.887 90.4693C131.157 89.806 130.291 89.3109 129.35 89.0186L129.52 87.6966C129.561 87.375 129.472 87.0505 129.274 86.7945C129.076 86.5384 128.785 86.3718 128.464 86.3312C128.144 86.2906 127.82 86.3795 127.565 86.5782C127.309 86.7769 127.143 87.0692 127.103 87.3907L126.938 88.7131C125.956 88.761 124.998 89.0242 124.129 89.484L123.315 88.4546C123.217 88.3279 123.096 88.2218 122.957 88.1423C122.818 88.0629 122.666 88.0117 122.507 87.9917C122.349 87.9718 122.188 87.9834 122.034 88.026C121.88 88.0686 121.736 88.1412 121.611 88.2398C121.355 88.4383 121.189 88.7301 121.148 89.0513C121.106 89.3725 121.194 89.697 121.39 89.9537L122.203 91.0041C121.545 91.7381 121.053 92.6063 120.761 93.5491L119.443 93.379C119.284 93.3589 119.123 93.3703 118.969 93.4127C118.814 93.4551 118.67 93.5276 118.543 93.6259C118.417 93.7243 118.311 93.8467 118.232 93.9862C118.152 94.1256 118.101 94.2793 118.081 94.4385C118.061 94.5977 118.072 94.7593 118.114 94.9141C118.157 95.0689 118.229 95.2139 118.327 95.3406C118.425 95.4674 118.547 95.5736 118.686 95.6531C118.825 95.7326 118.978 95.7838 119.137 95.8039L120.45 95.9685C120.502 96.9518 120.764 97.9124 121.218 98.7856L120.17 99.601C120.044 99.6993 119.938 99.8216 119.858 99.9611C119.779 100.1 119.728 100.254 119.708 100.414C119.688 100.573 119.699 100.734 119.742 100.889C119.784 101.044 119.857 101.189 119.955 101.315C120.052 101.442 120.173 101.549 120.312 101.629C120.45 101.709 120.603 101.76 120.761 101.781C120.919 101.801 121.08 101.79 121.234 101.748C121.388 101.706 121.533 101.634 121.659 101.535L122.711 100.72C123.443 101.38 124.309 101.873 125.248 102.166L125.084 103.488C125.062 103.648 125.071 103.81 125.112 103.966C125.154 104.122 125.225 104.268 125.323 104.396C125.421 104.524 125.543 104.632 125.682 104.712C125.822 104.792 125.976 104.844 126.135 104.864C126.295 104.884 126.457 104.873 126.612 104.83C126.767 104.787 126.912 104.713 127.038 104.614C127.165 104.514 127.271 104.39 127.349 104.25C127.428 104.109 127.478 103.954 127.496 103.794L127.666 102.472C128.646 102.422 129.605 102.161 130.475 101.706L131.288 102.756C131.489 103.005 131.78 103.165 132.098 103.202C132.416 103.238 132.735 103.147 132.988 102.95ZM130.336 99.5171C129.561 100.12 128.625 100.478 127.646 100.547C126.668 100.617 125.692 100.393 124.84 99.9056C123.989 99.4181 123.3 98.6882 122.863 97.8082C122.425 96.9283 122.257 95.9378 122.381 94.9621C122.504 93.9864 122.914 93.0692 123.557 92.3266C124.2 91.5839 125.048 91.0492 125.994 90.79C126.941 90.5308 127.942 90.5587 128.872 90.8703C129.802 91.1818 130.619 91.763 131.219 92.5404C132.023 93.5832 132.382 94.9035 132.216 96.2115C132.05 97.5194 131.374 98.7082 130.336 99.5171Z" stroke="#9FB7E7" stroke-width="0.794776" stroke-miterlimit="10"/>
<path d="M119.975 127.432C120.167 127.528 120.376 127.585 120.591 127.599C120.805 127.614 121.02 127.586 121.224 127.517C121.428 127.449 121.616 127.34 121.778 127.199C121.94 127.057 122.072 126.885 122.168 126.692L122.964 125.087C124.231 125.459 125.564 125.551 126.87 125.357L127.438 127.051C127.505 127.258 127.612 127.449 127.752 127.614C127.893 127.779 128.065 127.914 128.259 128.012C128.452 128.11 128.663 128.168 128.879 128.183C129.095 128.199 129.312 128.171 129.517 128.101C129.722 128.032 129.912 127.922 130.074 127.779C130.237 127.635 130.37 127.461 130.465 127.266C130.559 127.071 130.615 126.858 130.627 126.642C130.64 126.425 130.609 126.208 130.538 126.003L129.969 124.309C131.125 123.678 132.132 122.804 132.919 121.746L134.519 122.544C134.909 122.736 135.358 122.765 135.769 122.626C136.18 122.486 136.519 122.188 136.713 121.799C136.904 121.409 136.934 120.958 136.796 120.546C136.658 120.134 136.363 119.794 135.975 119.6L134.375 118.806C134.745 117.535 134.836 116.198 134.641 114.889L136.335 114.318C136.747 114.179 137.087 113.882 137.28 113.492C137.473 113.102 137.504 112.651 137.366 112.238C137.227 111.825 136.931 111.484 136.542 111.291C136.153 111.097 135.703 111.066 135.292 111.205L133.597 111.781C132.963 110.62 132.086 109.611 131.027 108.822L131.818 107.217C131.914 107.024 131.97 106.814 131.985 106.599C132 106.384 131.972 106.168 131.904 105.964C131.835 105.759 131.727 105.571 131.586 105.408C131.445 105.246 131.273 105.113 131.081 105.017C130.888 104.922 130.679 104.865 130.465 104.85C130.25 104.835 130.035 104.863 129.832 104.932C129.628 105.001 129.44 105.109 129.278 105.251C129.116 105.392 128.983 105.565 128.888 105.758L128.091 107.363C126.826 106.992 125.495 106.902 124.19 107.098L123.618 105.377C123.476 104.971 123.179 104.636 122.793 104.448C122.406 104.259 121.961 104.23 121.554 104.368C121.146 104.505 120.809 104.799 120.615 105.184C120.422 105.569 120.387 106.015 120.519 106.425L121.087 108.124C119.93 108.761 118.923 109.641 118.136 110.703L116.541 109.911C116.349 109.815 116.139 109.758 115.925 109.743C115.711 109.729 115.495 109.756 115.292 109.825C115.088 109.894 114.9 110.002 114.738 110.144C114.576 110.286 114.444 110.458 114.348 110.651C114.252 110.844 114.194 111.054 114.179 111.269C114.164 111.484 114.192 111.7 114.26 111.904C114.329 112.109 114.437 112.298 114.579 112.46C114.72 112.622 114.892 112.755 115.085 112.85L116.68 113.643C116.322 114.917 116.24 116.254 116.441 117.562L114.71 118.13C114.506 118.199 114.318 118.308 114.156 118.449C113.993 118.591 113.861 118.764 113.765 118.957C113.669 119.15 113.613 119.36 113.598 119.575C113.583 119.79 113.611 120.006 113.679 120.211C113.748 120.415 113.856 120.604 113.997 120.767C114.139 120.929 114.31 121.062 114.503 121.158C114.696 121.254 114.905 121.311 115.12 121.325C115.334 121.34 115.55 121.312 115.753 121.243L117.442 120.673C118.078 121.834 118.957 122.843 120.018 123.632L119.222 125.232C119.031 125.624 119.003 126.076 119.144 126.488C119.285 126.901 119.584 127.24 119.975 127.432ZM122.563 122.208C121.382 121.62 120.401 120.694 119.746 119.547C119.09 118.4 118.788 117.084 118.878 115.765C118.968 114.445 119.445 113.182 120.251 112.135C121.057 111.088 122.154 110.304 123.403 109.882C124.653 109.46 125.999 109.419 127.272 109.764C128.544 110.109 129.686 110.825 130.553 111.821C131.419 112.817 131.972 114.049 132.141 115.361C132.309 116.672 132.087 118.004 131.5 119.189C130.713 120.777 129.33 121.987 127.654 122.553C125.978 123.119 124.147 122.995 122.563 122.208Z" fill="#FFD252"/>
<path d="M199.487 164.486C201.816 147.696 190.133 132.192 173.393 129.856C156.653 127.52 141.194 139.237 138.865 156.027C136.536 172.817 148.219 188.322 164.959 190.658C181.7 192.993 197.158 181.276 199.487 164.486Z" fill="#93BEFA"/>
<path d="M169.178 185.308C182.971 185.308 194.152 174.094 194.152 160.26C194.152 146.427 182.971 135.212 169.178 135.212C155.385 135.212 144.204 146.427 144.204 160.26C144.204 174.094 155.385 185.308 169.178 185.308Z" fill="white"/>
<path d="M170.441 140.91C170.353 140.904 170.267 140.88 170.187 140.841C170.108 140.801 170.038 140.747 169.98 140.68C169.922 140.613 169.878 140.535 169.85 140.451C169.822 140.367 169.811 140.278 169.817 140.19L170.032 136.983C170.038 136.895 170.061 136.808 170.101 136.729C170.14 136.65 170.195 136.579 170.261 136.521C170.328 136.463 170.406 136.418 170.49 136.39C170.573 136.362 170.662 136.351 170.75 136.358C170.838 136.364 170.924 136.387 171.004 136.427C171.083 136.466 171.153 136.521 171.211 136.588C171.269 136.655 171.313 136.732 171.341 136.816C171.369 136.901 171.38 136.989 171.374 137.078L171.159 140.279C171.147 140.458 171.064 140.625 170.93 140.743C170.795 140.862 170.619 140.921 170.441 140.91Z" fill="#9FB7E7"/>
<path d="M167.61 184.167C167.433 184.154 167.268 184.071 167.151 183.936C167.034 183.801 166.975 183.625 166.987 183.447L167.202 180.241C167.208 180.152 167.231 180.066 167.27 179.986C167.31 179.907 167.364 179.836 167.431 179.778C167.498 179.72 167.575 179.676 167.659 179.648C167.743 179.62 167.832 179.609 167.92 179.615C168.098 179.627 168.265 179.71 168.383 179.845C168.5 179.98 168.56 180.156 168.549 180.335L168.329 183.537C168.316 183.716 168.234 183.882 168.099 184.001C167.965 184.119 167.789 184.179 167.61 184.167Z" fill="#9FB7E7"/>
<path d="M188.476 161.522C188.481 161.433 188.504 161.346 188.543 161.266C188.582 161.187 188.637 161.116 188.704 161.057C188.771 160.999 188.848 160.955 188.933 160.927C189.017 160.899 189.106 160.889 189.194 160.896L192.386 161.112C192.564 161.124 192.731 161.206 192.849 161.341C192.966 161.476 193.026 161.653 193.015 161.832C193.001 162.01 192.918 162.175 192.784 162.293C192.649 162.41 192.474 162.469 192.297 162.457L189.099 162.242C189.011 162.236 188.925 162.213 188.845 162.174C188.766 162.135 188.695 162.08 188.637 162.013C188.579 161.946 188.534 161.868 188.507 161.784C188.479 161.699 188.469 161.61 188.476 161.522Z" fill="#9FB7E7"/>
<path d="M145.352 158.682C145.358 158.594 145.381 158.508 145.42 158.428C145.46 158.349 145.514 158.278 145.581 158.22C145.648 158.162 145.725 158.118 145.809 158.09C145.893 158.062 145.982 158.051 146.07 158.057L149.262 158.272C149.44 158.285 149.607 158.367 149.724 158.502C149.842 158.637 149.902 158.814 149.891 158.993C149.878 159.172 149.796 159.339 149.662 159.457C149.527 159.575 149.351 159.635 149.173 159.623L145.975 159.403C145.887 159.397 145.801 159.374 145.721 159.335C145.642 159.296 145.571 159.241 145.513 159.174C145.455 159.107 145.41 159.029 145.383 158.945C145.355 158.86 145.345 158.771 145.352 158.682Z" fill="#9FB7E7"/>
<path d="M184.351 146.903C184.293 146.836 184.249 146.759 184.221 146.674C184.193 146.59 184.182 146.502 184.188 146.413C184.195 146.325 184.218 146.238 184.258 146.159C184.298 146.08 184.353 146.009 184.419 145.952L185.646 144.874C185.712 144.815 185.789 144.771 185.873 144.742C185.957 144.714 186.045 144.702 186.133 144.708C186.221 144.714 186.308 144.737 186.387 144.776C186.466 144.816 186.536 144.87 186.595 144.937C186.713 145.072 186.772 145.249 186.761 145.428C186.749 145.608 186.666 145.775 186.532 145.894L185.305 146.945C185.173 147.066 184.998 147.13 184.82 147.122C184.641 147.114 184.472 147.035 184.351 146.903Z" fill="#9FB7E7"/>
<path d="M151.735 175.598C151.617 175.463 151.557 175.286 151.569 175.107C151.581 174.927 151.663 174.76 151.798 174.642L153.318 173.312C153.384 173.253 153.461 173.208 153.545 173.18C153.629 173.151 153.717 173.14 153.805 173.146C153.893 173.151 153.979 173.175 154.059 173.214C154.138 173.253 154.208 173.308 154.266 173.375C154.384 173.51 154.444 173.687 154.432 173.866C154.421 174.046 154.338 174.213 154.203 174.331L152.684 175.661C152.617 175.72 152.54 175.765 152.456 175.793C152.373 175.822 152.284 175.833 152.196 175.827C152.108 175.822 152.022 175.798 151.943 175.759C151.864 175.72 151.793 175.665 151.735 175.598Z" fill="#9FB7E7"/>
<path d="M182.495 175.504C182.561 175.445 182.638 175.401 182.722 175.372C182.806 175.344 182.894 175.332 182.982 175.338C183.07 175.344 183.157 175.367 183.236 175.406C183.315 175.446 183.386 175.5 183.444 175.567L184.518 176.802C184.576 176.869 184.621 176.946 184.649 177.03C184.678 177.114 184.689 177.203 184.684 177.291C184.678 177.38 184.655 177.466 184.615 177.545C184.576 177.625 184.522 177.696 184.455 177.754C184.32 177.872 184.144 177.932 183.965 177.92C183.786 177.909 183.619 177.826 183.501 177.691L182.453 176.455C182.393 176.391 182.346 176.314 182.315 176.231C182.285 176.148 182.271 176.059 182.275 175.971C182.279 175.882 182.3 175.795 182.338 175.715C182.376 175.635 182.429 175.563 182.495 175.504Z" fill="#9FB7E7"/>
<path d="M153.884 142.781C154.019 142.663 154.195 142.603 154.374 142.615C154.553 142.626 154.72 142.709 154.838 142.844L156.164 144.369C156.222 144.435 156.267 144.513 156.296 144.597C156.324 144.68 156.336 144.769 156.33 144.858C156.324 144.946 156.301 145.032 156.261 145.112C156.222 145.191 156.168 145.262 156.101 145.32C155.966 145.439 155.79 145.499 155.611 145.487C155.432 145.475 155.266 145.392 155.147 145.257L153.821 143.733C153.763 143.666 153.718 143.589 153.69 143.505C153.662 143.421 153.65 143.332 153.656 143.244C153.662 143.155 153.685 143.069 153.724 142.99C153.763 142.91 153.818 142.839 153.884 142.781Z" fill="#9FB7E7"/>
<path d="M169.293 160.107C169.22 160.172 169.134 160.222 169.042 160.254C168.949 160.286 168.851 160.299 168.753 160.292C168.655 160.285 168.56 160.259 168.473 160.214C168.385 160.17 168.308 160.108 168.244 160.033L159.77 150.261C159.641 150.112 159.576 149.917 159.59 149.72C159.603 149.523 159.695 149.34 159.843 149.21C159.992 149.081 160.186 149.016 160.382 149.029C160.579 149.043 160.762 149.135 160.891 149.284L169.366 159.056C169.431 159.129 169.481 159.215 169.513 159.308C169.544 159.4 169.557 159.499 169.55 159.597C169.544 159.695 169.517 159.79 169.473 159.878C169.429 159.966 169.367 160.044 169.293 160.107Z" fill="#9FB7E7"/>
<path d="M169.1 161.038C168.971 160.888 168.906 160.694 168.92 160.497C168.934 160.3 169.025 160.116 169.173 159.986L177.318 152.879C177.467 152.75 177.661 152.685 177.857 152.699C178.054 152.713 178.237 152.804 178.366 152.953C178.494 153.103 178.557 153.297 178.544 153.494C178.53 153.69 178.44 153.874 178.293 154.004L170.153 161.106C170.004 161.236 169.81 161.302 169.612 161.289C169.415 161.277 169.231 161.186 169.1 161.038Z" fill="#9FB7E7"/>
<path d="M171.872 160.438C171.836 160.973 171.644 161.484 171.318 161.909C170.993 162.334 170.549 162.652 170.043 162.823C169.537 162.995 168.992 163.012 168.476 162.872C167.961 162.733 167.498 162.443 167.146 162.04C166.795 161.637 166.571 161.138 166.502 160.607C166.433 160.076 166.523 159.536 166.76 159.056C166.997 158.577 167.371 158.178 167.834 157.911C168.297 157.644 168.829 157.521 169.361 157.558C169.715 157.581 170.061 157.674 170.378 157.832C170.696 157.989 170.979 158.208 171.213 158.475C171.446 158.743 171.624 159.054 171.737 159.391C171.85 159.728 171.896 160.084 171.872 160.438Z" fill="#9FB7E7"/>
<path d="M102.861 112.733C102.028 112.458 101.127 112.913 100.854 113.749C100.579 114.585 101.032 115.486 101.866 115.759C103.476 116.29 104.465 117.034 104.646 117.855C105.132 120.059 99.7909 124.608 90.3148 126.718C80.8387 128.828 74.0837 126.973 73.5973 124.769C73.4161 123.948 73.9987 122.854 75.2365 121.687C75.8774 121.086 75.9085 120.076 75.308 119.436C74.7088 118.794 73.6994 118.76 73.0614 119.367C70.3829 121.887 70.1863 124.073 70.4924 125.46C71.7133 130.992 81.9708 131.839 91.0013 129.828C100.032 127.817 108.972 122.695 107.751 117.164C107.445 115.776 106.347 113.879 102.861 112.733Z" fill="#3B7CFF" fill-opacity="0.5"/>
<path d="M82.6947 108.816C82.3576 108.005 81.4401 107.612 80.6173 107.958C77.11 109.42 75.5551 110.974 75.8358 112.704C75.8396 112.736 75.8302 112.767 75.8374 112.8L77.8115 121.746C78.4634 124.7 84.215 124.808 89.6247 123.603C95.0344 122.398 100.202 119.858 99.5497 116.904L97.5756 107.958C97.5684 107.925 97.5467 107.901 97.5368 107.87C97.0635 106.184 95.0006 105.435 91.2069 105.599C90.3145 105.63 89.648 106.383 89.6854 107.261C89.7215 108.14 90.463 108.821 91.341 108.784C92.4739 108.735 93.2799 108.792 93.8259 108.875C92.7378 109.599 90.4271 110.644 86.9366 111.421C83.446 112.199 80.9122 112.233 79.6227 112.037C80.0814 111.73 80.7893 111.336 81.8364 110.899C82.6466 110.562 83.032 109.629 82.6947 108.816Z" fill="#3B7CFF" fill-opacity="0.5"/>
<path d="M85.0202 107.996C85.7822 108.525 86.8326 108.286 87.2934 107.48L90.2868 102.239C90.5234 101.827 90.4973 101.317 90.2171 100.933C89.937 100.55 89.4592 100.371 88.9964 100.474L85.8902 101.166L84.5167 94.9413C84.3746 94.297 83.7374 93.8904 83.0944 94.0336C82.4514 94.1768 82.045 94.8159 82.1871 95.4601L83.5607 101.685L80.4546 102.376C79.9918 102.48 79.636 102.846 79.5414 103.311C79.4469 103.776 79.6396 104.251 80.0274 104.524L85.0202 107.996Z" fill="#3B7CFF" fill-opacity="0.5"/>
</g>
<defs>
<clipPath id="clip0">
<rect width="239" height="230" fill="white"/>
</clipPath>
</defs>
</svg>
