<svg width="180" height="201" viewBox="0 0 180 201" fill="none" xmlns="http://www.w3.org/2000/svg">
<g clip-path="url(#clip0)">
<path fill-rule="evenodd" clip-rule="evenodd" d="M93.0143 19.7835C83.1932 19.7835 69.5021 0.099474 56.5131 0.343871C43.1674 0.594978 25.2906 1.02137 14.8813 1.27708C10.1383 1.39359 6.3678 5.27254 6.3678 10.017V127.137C6.3678 131.968 10.2844 135.885 15.1158 135.885H163.175C168.007 135.885 171.923 131.968 171.923 127.137V29.8802C171.923 25.1447 168.178 21.2704 163.444 21.145C146.805 20.7041 110.018 19.7835 93.0143 19.7835Z" fill="#ECF1F7" stroke="#AFC0D3" stroke-width="2.18699"/>
<path fill-rule="evenodd" clip-rule="evenodd" d="M93.3116 39.6692C72.3706 39.6692 27.3454 40.637 8.53332 41.0632C3.78476 41.1708 0 45.0519 0 49.8016V147.022C0 151.854 3.9166 155.77 8.74797 155.77H169.543C174.374 155.77 178.291 151.854 178.291 147.022V49.783C178.291 45.0407 174.538 41.1634 169.797 41.0464C152.197 40.6121 111.844 39.6692 93.3116 39.6692Z" fill="#ECF1F7" stroke="#AFC0D3" stroke-width="2.18699"/>
<path opacity="0.626341" fill-rule="evenodd" clip-rule="evenodd" d="M91.8736 155.274C87.1477 155.274 87.0286 148.809 91.7473 148.549L161.049 144.731C164.218 144.556 166.786 142.096 167.095 138.937L176.853 39.1722V145.16C176.853 149.902 173.1 153.779 168.359 153.896C150.759 154.331 110.406 155.274 91.8736 155.274Z" fill="white"/>
</g>
<path d="M29.112 178.224V180.888H20.16V185.328H28.2V187.848H20.16V192.336H29.4V195H17.328V178.224H29.112ZM35.7751 188.088V195H33.0871V182.232H35.7751V184.56C36.1591 183.776 36.7351 183.16 37.5031 182.712C38.2871 182.264 39.1271 182.04 40.0231 182.04C42.0391 182.04 43.4071 182.872 44.1271 184.536C45.3911 182.872 46.9671 182.04 48.8551 182.04C50.2951 182.04 51.4551 182.48 52.3351 183.36C53.2311 184.24 53.6791 185.512 53.6791 187.176V195H50.9911V187.992C50.9911 185.64 50.0151 184.464 48.0631 184.464C47.1511 184.464 46.3511 184.76 45.6631 185.352C44.9911 185.928 44.6391 186.776 44.6071 187.896V195H41.9191V187.992C41.9191 186.776 41.7031 185.888 41.2711 185.328C40.8391 184.752 40.1591 184.464 39.2311 184.464C38.3031 184.464 37.4951 184.776 36.8071 185.4C36.1191 186.008 35.7751 186.904 35.7751 188.088ZM64.6953 182.04C66.4073 182.04 67.8713 182.632 69.0873 183.816C70.3033 185 70.9113 186.576 70.9113 188.544C70.9113 190.512 70.3033 192.112 69.0873 193.344C67.8873 194.576 66.4793 195.192 64.8633 195.192C63.2633 195.192 61.8233 194.488 60.5433 193.08V199.656H57.8553V182.232H60.5433V184.464C61.5993 182.848 62.9833 182.04 64.6953 182.04ZM60.4953 188.64C60.4953 189.856 60.8633 190.856 61.5993 191.64C62.3353 192.408 63.2313 192.792 64.2873 192.792C65.3433 192.792 66.2633 192.408 67.0473 191.64C67.8313 190.872 68.2233 189.88 68.2233 188.664C68.2233 187.432 67.8393 186.416 67.0713 185.616C66.3033 184.8 65.3833 184.392 64.3113 184.392C63.2393 184.392 62.3353 184.8 61.5993 185.616C60.8633 186.416 60.4953 187.424 60.4953 188.64ZM77.7322 184.392V190.872C77.7322 191.48 77.8922 191.968 78.2122 192.336C78.5322 192.688 78.9802 192.864 79.5563 192.864C80.1323 192.864 80.6843 192.584 81.2123 192.024L82.3163 193.92C81.3723 194.768 80.3242 195.192 79.1723 195.192C78.0362 195.192 77.0602 194.8 76.2442 194.016C75.4442 193.216 75.0442 192.144 75.0442 190.8V184.392H73.4362V182.232H75.0442V178.224H77.7322V182.232H81.0923V184.392H77.7322ZM86.4995 200.088C85.3315 200.088 84.2755 199.664 83.3315 198.816L84.5555 196.632C85.1155 197.16 85.6915 197.424 86.2835 197.424C86.8915 197.424 87.3795 197.208 87.7475 196.776C88.1315 196.344 88.3235 195.872 88.3235 195.36C88.3235 195.136 86.6035 190.76 83.1635 182.232H86.0435L89.8595 191.64L93.6755 182.232H96.5555L90.3635 197.4C89.9955 198.232 89.4675 198.888 88.7795 199.368C88.0915 199.848 87.3315 200.088 86.4995 200.088ZM106.523 195V178.224H109.355V185.496H117.683V178.224H120.515V195H117.683V188.136H109.355V195H106.523ZM137.115 189.792H127.107C127.171 190.72 127.595 191.472 128.379 192.048C129.163 192.608 130.059 192.888 131.067 192.888C132.667 192.888 133.883 192.384 134.715 191.376L136.251 193.056C134.875 194.48 133.083 195.192 130.875 195.192C129.083 195.192 127.555 194.6 126.291 193.416C125.043 192.216 124.419 190.616 124.419 188.616C124.419 186.6 125.059 185 126.339 183.816C127.619 182.632 129.123 182.04 130.851 182.04C132.595 182.04 134.075 182.568 135.291 183.624C136.507 184.664 137.115 186.104 137.115 187.944V189.792ZM127.107 187.68H134.427C134.427 186.608 134.091 185.784 133.419 185.208C132.747 184.632 131.915 184.344 130.923 184.344C129.947 184.344 129.067 184.648 128.283 185.256C127.499 185.848 127.107 186.656 127.107 187.68ZM147.207 184.752C145.879 184.752 144.879 185.184 144.207 186.048C143.535 186.912 143.199 188.072 143.199 189.528V195H140.511V182.232H143.199V184.8C143.631 184 144.215 183.344 144.951 182.832C145.703 182.32 146.495 182.056 147.327 182.04L147.351 184.752C147.303 184.752 147.255 184.752 147.207 184.752ZM162.37 189.792H152.362C152.426 190.72 152.85 191.472 153.634 192.048C154.418 192.608 155.314 192.888 156.322 192.888C157.922 192.888 159.138 192.384 159.97 191.376L161.506 193.056C160.13 194.48 158.338 195.192 156.13 195.192C154.338 195.192 152.81 194.6 151.546 193.416C150.298 192.216 149.674 190.616 149.674 188.616C149.674 186.6 150.314 185 151.594 183.816C152.874 182.632 154.378 182.04 156.106 182.04C157.85 182.04 159.33 182.568 160.546 183.624C161.762 184.664 162.37 186.104 162.37 187.944V189.792ZM152.362 187.68H159.682C159.682 186.608 159.346 185.784 158.674 185.208C158.002 184.632 157.17 184.344 156.178 184.344C155.202 184.344 154.322 184.648 153.538 185.256C152.754 185.848 152.362 186.656 152.362 187.68Z" fill="#AFC0D3"/>
<defs>
<clipPath id="clip0">
<rect width="179.333" height="157.463" fill="white"/>
</clipPath>
</defs>
</svg>
