<svg width="380" height="230" viewBox="0 0 380 230" fill="none" xmlns="http://www.w3.org/2000/svg">
<path d="M335.348 217.585H16.9088C-0.508517 186.952 6.4059 149.001 29.9324 130.394C48.155 115.926 74.3423 114.727 96.2233 127.243C95.1118 118.639 99.1379 110.193 106.289 106.071C109.943 103.981 114.183 103.153 118.355 103.715C122.527 104.277 126.397 106.196 129.369 109.178C130.717 105.983 139.163 86.6754 159.556 79.9097C178.041 73.783 198.942 80.3736 212.823 96.7231C217.772 92.9937 223.667 90.7251 229.839 90.1744C236.011 89.6237 242.214 90.8129 247.745 93.6073C259.01 99.2964 266.502 110.998 267.281 124.127C288.453 114.771 312.242 117.458 328.241 131.602C349.869 150.726 354.507 188.37 335.348 217.585Z" fill="#D4EBF8"/>
<path d="M68.1632 164.424C97.142 164.424 120.634 139.705 120.634 109.213C120.634 78.7214 97.142 54.0029 68.1632 54.0029C39.1844 54.0029 15.6924 78.7214 15.6924 109.213C15.6924 139.705 39.1844 164.424 68.1632 164.424Z" fill="#D4EBF8"/>
<path d="M160.711 124.722C189.69 124.722 213.182 100.004 213.182 69.5121C213.182 39.0203 189.69 14.3018 160.711 14.3018C131.732 14.3018 108.24 39.0203 108.24 69.5121C108.24 100.004 131.732 124.722 160.711 124.722Z" fill="#D4EBF8"/>
<path d="M102.351 82.6842C111.622 82.6842 119.138 74.7765 119.138 65.0218C119.138 55.2671 111.622 47.3594 102.351 47.3594C93.0793 47.3594 85.5635 55.2671 85.5635 65.0218C85.5635 74.7765 93.0793 82.6842 102.351 82.6842Z" fill="#D4EBF8"/>
<path d="M195.183 181.237C199.255 165.434 189.746 149.322 173.943 145.25C158.14 141.178 142.028 150.687 137.956 166.49C133.884 182.293 143.394 198.405 159.196 202.477C174.999 206.549 191.111 197.039 195.183 181.237Z" fill="#C0DFED"/>
<path d="M311.052 149.929C309.7 149.929 308.351 150.041 307.017 150.262C304.777 142.997 298.492 137.763 291.079 137.763C287.016 137.778 283.113 139.344 280.165 142.14C272.673 132.302 261.382 126.044 248.744 126.044C241.494 126.053 234.397 128.133 228.289 132.039C221.55 117.501 207.747 107.532 191.8 107.532C187.941 107.533 184.104 108.123 180.422 109.283C177.919 95.7867 166.987 85.6514 153.885 85.6514C141.973 85.6514 131.864 94.0625 128.24 105.782C120.36 103.265 111.934 102.995 103.908 105.003C97.1228 98.5132 88.1082 94.8705 78.7189 94.8239C57.363 94.8239 40.0332 113.747 40.0332 137.063C40.0232 142.639 41.0378 148.169 43.0265 153.378C35.692 157.448 30.4318 165.333 29.4515 174.646C21.2067 175.854 14.8262 183.539 14.8262 192.86C14.8262 202.995 22.362 211.24 31.6483 211.24C34.4211 211.209 37.1411 210.478 39.5556 209.115C41.9702 207.751 44.0011 205.8 45.4597 203.442C48.287 204.627 51.3214 205.24 54.3871 205.245C64.2599 205.245 72.7672 199.039 76.8984 190.007C85.8084 202.024 99.4184 209.708 114.683 209.708C134.349 209.708 151.268 196.956 158.917 178.628C166.357 189.621 178.322 196.755 191.8 196.755C199.053 196.744 206.152 194.664 212.263 190.759C218.994 205.297 232.797 215.266 248.744 215.266C265.049 215.266 279.114 204.842 285.679 189.77C289.504 201.008 299.42 209.026 311.061 209.026C326.019 209.026 338.132 195.792 338.132 179.477C338.132 163.163 326.01 149.929 311.052 149.929Z" fill="url(#paint0_linear)"/>
<path d="M14.9054 204.326C24.6643 202.47 31.71 209.796 32.1739 210.26C32.6028 208.763 36.8565 194.925 50.6591 190.033C56.8301 187.91 63.5333 187.91 69.7043 190.033C68.7941 187.652 68.571 185.062 69.0604 182.56C69.5499 180.058 70.7322 177.744 72.4728 175.882C74.2133 174.019 76.4421 172.682 78.9051 172.024C81.3681 171.367 83.9664 171.414 86.404 172.16C89.2574 167.718 93.3544 164.213 98.1851 162.082C103.016 159.95 108.367 159.287 113.571 160.174C118.776 161.061 123.605 163.46 127.457 167.071C131.309 170.683 134.013 175.347 135.234 180.484C136.634 178.279 138.643 176.526 141.018 175.437C143.393 174.349 146.032 173.971 148.617 174.349C151.202 174.728 153.622 175.847 155.585 177.57C157.548 179.294 158.97 181.549 159.679 184.064C162.723 180.876 166.558 178.552 170.792 177.328C175.026 176.104 179.509 176.024 183.784 177.095C188.06 178.167 191.975 180.353 195.131 183.429C198.287 186.506 200.572 190.364 201.752 194.61C204.974 192.021 208.78 190.257 212.839 189.473C216.898 188.689 221.087 188.908 225.042 190.112C237.165 193.928 244.797 206.794 242.153 219.809H0C1.47041 211.905 7.47457 205.726 14.9054 204.326Z" fill="url(#paint1_linear)"/>
<path d="M151.933 207.66C161.692 205.805 168.737 213.131 169.201 213.595C169.63 212.089 173.884 198.26 187.686 193.359C193.858 191.241 200.56 191.241 206.732 193.359C205.825 190.978 205.605 188.39 206.095 185.89C206.586 183.389 207.769 181.077 209.508 179.215C211.248 177.354 213.475 176.017 215.936 175.358C218.397 174.699 220.994 174.743 223.431 175.487C226.288 171.048 230.386 167.547 235.216 165.418C240.047 163.29 245.396 162.629 250.6 163.517C255.803 164.405 260.63 166.803 264.482 170.412C268.333 174.022 271.038 178.684 272.261 183.819C273.661 181.613 275.669 179.86 278.043 178.771C280.418 177.682 283.057 177.303 285.641 177.681C288.226 178.058 290.646 179.176 292.61 180.899C294.573 182.622 295.996 184.876 296.707 187.39C299.752 184.205 303.586 181.883 307.82 180.661C312.054 179.438 316.535 179.359 320.81 180.43C325.084 181.502 328.998 183.686 332.155 186.761C335.311 189.836 337.597 193.692 338.78 197.937C342.004 195.35 345.81 193.589 349.868 192.805C353.926 192.021 358.114 192.238 362.07 193.438C374.192 197.254 381.824 210.12 379.181 223.135H137.027C138.498 215.24 144.502 209.052 151.933 207.66Z" fill="url(#paint2_linear)"/>
<path d="M351.331 50.5369V106.657C351.331 106.918 351.228 107.168 351.044 107.354C350.861 107.539 350.611 107.644 350.351 107.646H264.778C264.516 107.644 264.266 107.539 264.081 107.354C263.896 107.169 263.791 106.919 263.789 106.657V50.5369C263.791 50.2753 263.896 50.025 264.081 49.8401C264.266 49.6551 264.516 49.5501 264.778 49.5479H350.351C350.611 49.5502 350.861 49.6554 351.044 49.8406C351.228 50.0258 351.331 50.2761 351.331 50.5369Z" fill="#BEE1F4"/>
<path d="M351.331 50.5369V56.6636H263.807V50.5369C263.809 50.2753 263.914 50.025 264.099 49.8401C264.284 49.6551 264.534 49.5501 264.796 49.5479H350.368C350.626 49.5547 350.871 49.6619 351.051 49.8467C351.23 50.0314 351.331 50.2791 351.331 50.5369Z" fill="#3B7CFF"/>
<path d="M269.898 53.1013C269.898 53.3908 269.812 53.6737 269.651 53.9143C269.49 54.1549 269.261 54.3422 268.994 54.4525C268.726 54.5629 268.432 54.5913 268.148 54.5342C267.864 54.4771 267.604 54.337 267.4 54.1317C267.196 53.9265 267.057 53.6652 267.002 53.3811C266.946 53.097 266.976 52.8028 267.088 52.5359C267.2 52.269 267.389 52.0413 267.631 51.8818C267.872 51.7222 268.156 51.6379 268.445 51.6397C268.831 51.642 269.201 51.797 269.473 52.0709C269.745 52.3447 269.898 52.7152 269.898 53.1013Z" fill="#EC827D"/>
<path d="M276.217 53.1014C276.217 53.3912 276.131 53.6745 275.97 53.9153C275.808 54.156 275.579 54.3433 275.311 54.4534C275.043 54.5635 274.748 54.5914 274.464 54.5336C274.18 54.4757 273.92 54.3348 273.716 54.1286C273.512 53.9224 273.374 53.6604 273.32 53.3757C273.266 53.091 273.297 52.7966 273.41 52.5298C273.524 52.2631 273.714 52.036 273.956 51.8775C274.199 51.7191 274.483 51.6363 274.773 51.6398C275.158 51.6444 275.525 51.8004 275.795 52.074C276.066 52.3476 276.217 52.7168 276.217 53.1014V53.1014Z" fill="#FBD15B"/>
<path d="M282.537 53.1013C282.537 53.3908 282.451 53.6737 282.29 53.9143C282.129 54.1549 281.9 54.3422 281.632 54.4525C281.365 54.5629 281.07 54.5913 280.787 54.5342C280.503 54.4771 280.242 54.337 280.038 54.1317C279.834 53.9265 279.696 53.6652 279.64 53.3811C279.585 53.097 279.615 52.8028 279.727 52.5359C279.839 52.269 280.028 52.0413 280.269 51.8818C280.511 51.7222 280.794 51.6379 281.084 51.6397C281.47 51.642 281.839 51.797 282.112 52.0709C282.384 52.3447 282.537 52.7152 282.537 53.1013V53.1013Z" fill="#B1B2F3"/>
<path d="M346.229 60.3657H299.105V103.183H346.229V60.3657Z" fill="white"/>
<path d="M287.228 66.0547H270.581V67.1487H287.228V66.0547Z" fill="white"/>
<path d="M295.499 71.5078H270.581V72.6019H295.499V71.5078Z" fill="white"/>
<path d="M295.499 75.061H270.581V76.1551H295.499V75.061Z" fill="white"/>
<path d="M295.499 78.623H270.581V79.7171H295.499V78.623Z" fill="white"/>
<path d="M295.499 82.1768H270.581V83.2708H295.499V82.1768Z" fill="white"/>
<path d="M295.499 85.7305H270.581V86.8245H295.499V85.7305Z" fill="white"/>
<path d="M295.499 89.2837H270.581V90.3777H295.499V89.2837Z" fill="white"/>
<path d="M295.499 92.8457H270.581V93.9398H295.499V92.8457Z" fill="white"/>
<path d="M286.974 96.3994H270.581V97.4935H286.974V96.3994Z" fill="white"/>
<path d="M309.074 65.6172H303.219V97.9312H309.074V65.6172Z" fill="#BEE1F4"/>
<path d="M320.085 65.6172H314.229V97.9312H320.085V65.6172Z" fill="#BEE1F4"/>
<path d="M331.103 65.6172H325.248V97.9312H331.103V65.6172Z" fill="#BEE1F4"/>
<path d="M342.114 65.6172H336.259V97.9312H342.114V65.6172Z" fill="#BEE1F4"/>
<path d="M309.074 89.2227H303.219V97.9313H309.074V89.2227Z" fill="url(#paint3_linear)"/>
<path d="M320.085 84.6885H314.229V97.9309H320.085V84.6885Z" fill="url(#paint4_linear)"/>
<path d="M331.103 74.0195H325.248V97.9312H331.103V74.0195Z" fill="url(#paint5_linear)"/>
<path d="M342.114 78.9121H336.259V97.9311H342.114V78.9121Z" fill="#FBD15B"/>
<path d="M280.445 95.148L280.182 207.722C280.171 209.417 279.492 211.04 278.292 212.238C277.697 212.834 276.99 213.307 276.212 213.628C275.434 213.95 274.6 214.114 273.758 214.111L85.1168 213.673C83.4198 213.662 81.796 212.98 80.5993 211.777C79.4026 210.574 78.7298 208.946 78.7275 207.249L79.0339 72.9694C79.0431 71.2716 79.724 69.6465 80.9278 68.4493C82.1316 67.2521 83.7604 66.5801 85.4582 66.5801L140.598 66.7114C144.654 66.9309 148.51 68.5378 151.521 71.2626L164.151 83.9361C167.168 86.6588 171.026 88.2678 175.083 88.4962L274.09 88.7237C275.782 88.7422 277.398 89.4271 278.588 90.6299C279.778 91.8327 280.445 93.4562 280.445 95.148V95.148Z" fill="#F4C44E"/>
<path d="M247.378 7.09863H127.723C124.335 7.09863 121.588 9.84558 121.588 13.2341V175.154C121.588 178.543 124.335 181.289 127.723 181.289H247.378C250.766 181.289 253.513 178.543 253.513 175.154V13.2341C253.513 9.84558 250.766 7.09863 247.378 7.09863Z" fill="#3B7CFF"/>
<path d="M242.765 15.9209H132.354V155.058H242.765V15.9209Z" fill="white"/>
<path d="M226.512 51.1582H148.616C148.151 51.1582 147.706 50.9738 147.378 50.6455C147.05 50.3172 146.865 49.872 146.865 49.4077C146.865 48.9435 147.05 48.4982 147.378 48.1699C147.706 47.8417 148.151 47.6572 148.616 47.6572H226.512C226.977 47.6572 227.422 47.8417 227.75 48.1699C228.078 48.4982 228.263 48.9435 228.263 49.4077C228.263 49.872 228.078 50.3172 227.75 50.6455C227.422 50.9738 226.977 51.1582 226.512 51.1582Z" fill="#BEE1F4"/>
<path d="M226.512 37.2856H148.616C148.151 37.2856 147.706 37.1012 147.378 36.7729C147.05 36.4447 146.865 35.9994 146.865 35.5352C146.865 35.0709 147.05 34.6257 147.378 34.2974C147.706 33.9691 148.151 33.7847 148.616 33.7847H226.512C226.977 33.7847 227.422 33.9691 227.75 34.2974C228.078 34.6257 228.263 35.0709 228.263 35.5352C228.263 35.9994 228.078 36.4447 227.75 36.7729C227.422 37.1012 226.977 37.2856 226.512 37.2856Z" fill="#BEE1F4"/>
<path d="M226.512 65.083H148.616C148.151 65.083 147.706 64.8986 147.378 64.5703C147.05 64.242 146.865 63.7968 146.865 63.3325C146.865 62.8683 147.05 62.423 147.378 62.0947C147.706 61.7665 148.151 61.582 148.616 61.582H226.512C226.977 61.582 227.422 61.7665 227.75 62.0947C228.078 62.423 228.263 62.8683 228.263 63.3325C228.263 63.7968 228.078 64.242 227.75 64.5703C227.422 64.8986 226.977 65.083 226.512 65.083Z" fill="#BEE1F4"/>
<path d="M226.512 79.0083H148.616C148.151 79.0083 147.706 78.8239 147.378 78.4956C147.05 78.1673 146.865 77.7221 146.865 77.2578C146.865 76.7936 147.05 76.3483 147.378 76.02C147.706 75.6917 148.151 75.5073 148.616 75.5073H226.512C226.977 75.5073 227.422 75.6917 227.75 76.02C228.078 76.3483 228.263 76.7936 228.263 77.2578C228.263 77.7221 228.078 78.1673 227.75 78.4956C227.422 78.8239 226.977 79.0083 226.512 79.0083Z" fill="#BEE1F4"/>
<path d="M226.512 92.9336H148.616C148.151 92.9336 147.706 92.7492 147.378 92.4209C147.05 92.0926 146.865 91.6474 146.865 91.1831C146.865 90.7188 147.05 90.2736 147.378 89.9453C147.706 89.617 148.151 89.4326 148.616 89.4326H226.512C226.977 89.4326 227.422 89.617 227.75 89.9453C228.078 90.2736 228.263 90.7188 228.263 91.1831C228.263 91.6474 228.078 92.0926 227.75 92.4209C227.422 92.7492 226.977 92.9336 226.512 92.9336Z" fill="#BEE1F4"/>
<path d="M226.512 106.85H148.616C148.151 106.85 147.706 106.665 147.378 106.337C147.05 106.009 146.865 105.563 146.865 105.099C146.865 104.635 147.05 104.19 147.378 103.861C147.706 103.533 148.151 103.349 148.616 103.349H226.512C226.977 103.349 227.422 103.533 227.75 103.861C228.078 104.19 228.263 104.635 228.263 105.099C228.263 105.563 228.078 106.009 227.75 106.337C227.422 106.665 226.977 106.85 226.512 106.85Z" fill="#BEE1F4"/>
<path d="M191.748 120.775H148.598C148.134 120.775 147.689 120.59 147.36 120.262C147.032 119.934 146.848 119.489 146.848 119.024C146.848 118.56 147.032 118.115 147.36 117.787C147.689 117.458 148.134 117.274 148.598 117.274H191.748C192.212 117.274 192.657 117.458 192.985 117.787C193.314 118.115 193.498 118.56 193.498 119.024C193.498 119.489 193.314 119.934 192.985 120.262C192.657 120.59 192.212 120.775 191.748 120.775Z" fill="#BEE1F4"/>
<g style="mix-blend-mode:multiply">
<path d="M280.445 104.53L280.182 217.095C280.171 218.793 279.489 220.418 278.286 221.616C277.083 222.814 275.456 223.489 273.758 223.493L85.1168 223.056C83.4198 223.044 81.796 222.363 80.5993 221.159C79.4026 219.956 78.7298 218.329 78.7275 216.631L79.0339 82.3517C79.0431 80.6539 79.724 79.0289 80.9278 77.8316C82.1316 76.6344 83.7604 75.9624 85.4582 75.9624L140.598 76.0849C144.654 76.3111 148.509 77.9205 151.521 80.6449L164.107 93.301C167.124 96.0236 170.982 97.6326 175.039 97.861L274.047 98.0885C275.749 98.0955 277.379 98.7778 278.579 99.9856C279.778 101.193 280.449 102.828 280.445 104.53V104.53Z" fill="#F1F2F2"/>
</g>
<path d="M280.445 110.149L280.182 222.714C280.171 224.412 279.489 226.037 278.286 227.235C277.083 228.433 275.456 229.108 273.758 229.112L85.1168 228.675C83.4198 228.663 81.796 227.982 80.5993 226.778C79.4026 225.575 78.7298 223.948 78.7275 222.251L79.0339 87.9708C79.0408 86.2715 79.7207 84.6442 80.9248 83.4451C82.1288 82.246 83.7589 81.5727 85.4582 81.5728L140.598 81.704C144.643 81.9497 148.482 83.5711 151.478 86.2991L164.107 98.9726C167.124 101.695 170.982 103.304 175.039 103.533L274.047 103.76C275.74 103.767 277.362 104.442 278.56 105.639C279.758 106.835 280.436 108.456 280.445 110.149V110.149Z" fill="#FBD15B"/>
<path d="M277.635 204.457V221.025C277.626 222.679 276.963 224.262 275.79 225.428C274.618 226.594 273.031 227.248 271.377 227.248L87.5765 226.828C85.9227 226.817 84.3404 226.153 83.1734 224.981C82.0065 223.809 81.3493 222.224 81.3447 220.57V204.457H277.635Z" fill="#FBD15B"/>
<path d="M79.0338 96.4608C79.0431 94.763 79.724 93.138 80.9278 91.9407C82.1316 90.7435 83.7603 90.0715 85.4581 90.0715L140.598 90.194C144.654 90.4202 148.509 92.0297 151.521 94.7541L164.151 107.428C167.168 110.15 171.026 111.759 175.083 111.988L274.09 112.215C275.721 112.225 277.288 112.855 278.472 113.976C279.657 115.097 280.371 116.626 280.471 118.254V110.15C280.471 108.45 279.798 106.82 278.599 105.616C277.4 104.412 275.772 103.732 274.073 103.725L175.065 103.498C171.008 103.269 167.151 101.66 164.134 98.9377L151.478 86.2992C148.465 83.5748 144.61 81.9654 140.555 81.7392L85.4581 81.6079C83.7588 81.6079 82.1288 82.2811 80.9247 83.4802C79.7207 84.6794 79.0408 86.3067 79.0338 88.0059L78.7188 165.614C78.7188 106.999 79.0338 96.4608 79.0338 96.4608Z" fill="#F7D98D"/>
<path d="M102.674 32.1564H87.6108C87.3291 32.1564 87.0588 32.0451 86.8588 31.8468C86.6588 31.6484 86.5453 31.3791 86.543 31.0974V1.0678C86.543 0.7846 86.6555 0.513001 86.8557 0.312751C87.056 0.1125 87.3276 0 87.6108 0H110.577C110.86 0 111.132 0.1125 111.332 0.312751C111.532 0.513001 111.645 0.7846 111.645 1.0678V21.1196C111.641 21.3612 111.558 21.5949 111.409 21.7848L103.531 31.7538C103.429 31.8819 103.298 31.9848 103.149 32.0546C103.001 32.1243 102.838 32.1592 102.674 32.1564V32.1564ZM88.6698 30.0296H102.149L109.501 20.752V2.13559H88.6698V30.0296Z" fill="#D4EBF8"/>
<path d="M102.674 32.1564C102.556 32.1561 102.438 32.1384 102.324 32.1039C102.117 32.0287 101.938 31.892 101.812 31.712C101.685 31.532 101.616 31.3175 101.615 31.0974V21.1196C101.615 20.8379 101.727 20.5676 101.925 20.3676C102.123 20.1676 102.393 20.0541 102.674 20.0518H110.551C110.755 20.0498 110.955 20.1062 111.128 20.2142C111.301 20.3222 111.439 20.4774 111.526 20.6614C111.614 20.8454 111.647 21.0507 111.621 21.2528C111.596 21.455 111.513 21.6456 111.383 21.8023L103.506 31.7713C103.404 31.8932 103.277 31.991 103.133 32.0576C102.99 32.1242 102.833 32.158 102.674 32.1564V32.1564ZM103.742 22.1874V28.034L108.372 22.1874H103.742Z" fill="#D4EBF8"/>
<path d="M106.63 5.36523H91.8125V7.49208H106.63V5.36523Z" fill="#D4EBF8"/>
<path d="M106.63 9.42676H91.8125V11.5536H106.63V9.42676Z" fill="#D4EBF8"/>
<path d="M103.55 13.4878H91.8125V15.6146H103.55V13.4878Z" fill="#D4EBF8"/>
<path d="M62.9641 37.4957C62.8699 36.0277 62.4514 34.5989 61.7387 33.312L62.9466 32.6381C62.3365 31.5399 61.5466 30.5517 60.6097 29.7148L59.6819 30.7563C58.5827 29.78 57.2788 29.0622 55.8659 28.6557L56.2422 27.3253C55.2488 27.0415 54.2208 26.8971 53.1876 26.8965H52.5312L52.6187 28.2881C51.1502 28.3726 49.7199 28.7885 48.4351 29.5047L47.7611 28.2969C46.661 28.9042 45.6725 29.6944 44.8378 30.6338L45.8706 31.5615C44.8926 32.6596 44.1746 33.9639 43.77 35.3776L42.4397 34.9925C42.1633 35.9872 42.022 37.0146 42.0195 38.0471C42.0195 38.2659 42.0195 38.4759 42.0195 38.6948L43.4024 38.616C43.4923 40.0847 43.911 41.5145 44.6278 42.7996L43.4112 43.4736C44.0207 44.5722 44.8107 45.5604 45.7481 46.3969L46.6758 45.3554C47.7712 46.339 49.0762 47.0604 50.4919 47.4647L50.1068 48.7951C51.1005 49.0762 52.1286 49.2176 53.1614 49.2152C53.3802 49.2152 53.6077 49.2152 53.8353 49.2152L53.7478 47.8323C55.2176 47.7418 56.6479 47.3199 57.9314 46.5982L58.6054 47.8148C59.7039 47.2015 60.692 46.4087 61.5287 45.4691L60.4872 44.5939C61.4585 43.4972 62.1704 42.196 62.5702 40.7866L63.9006 41.1629C64.1769 40.1711 64.3182 39.1466 64.3207 38.1171C64.3207 37.8895 64.3207 37.6707 64.3207 37.4519L62.9641 37.4957ZM50.7107 46.6682L50.7807 46.4319L50.7107 46.6682ZM58.8505 39.6663C58.4969 40.9077 57.7488 42.0002 56.7192 42.7787C55.6896 43.5571 54.4346 43.9793 53.1439 43.9812C52.5992 43.9786 52.0575 43.9021 51.5334 43.7537C50.2954 43.4076 49.2038 42.6677 48.4236 41.646C47.6435 40.6243 47.2174 39.3763 47.2097 38.0908C47.21 37.5438 47.2836 36.9992 47.4285 36.4716C47.7834 35.231 48.5318 34.1393 49.5611 33.361C50.5904 32.5827 51.8447 32.1601 53.1351 32.1567C53.6801 32.1549 54.2224 32.2315 54.7456 32.3842C55.9877 32.7336 57.0816 33.4793 57.8606 34.508C58.6396 35.5366 59.061 36.7918 59.0605 38.0821C59.063 38.6288 58.9924 39.1733 58.8505 39.7013V39.6663Z" fill="#D4EBF8"/>
<path d="M79.9527 33.2772L79.0249 33.4522C78.8877 32.737 78.6366 32.0484 78.281 31.4129L79.1037 30.9665C78.5051 29.8783 77.6561 28.9483 76.6268 28.2533L76.1016 29.0235C75.4992 28.6183 74.8379 28.3083 74.1411 28.1045L74.3949 27.2292C73.6943 27.0317 72.9698 26.9315 72.2418 26.9316C71.7456 26.934 71.2505 26.9809 70.7627 27.0717L70.9377 27.9994C70.2239 28.1372 69.5359 28.3852 68.8984 28.7346L68.452 27.9119C67.3614 28.5066 66.4283 29.3528 65.73 30.3801L66.5002 30.9053C66.1104 31.5104 65.8152 32.1715 65.625 32.8658L64.7497 32.6032V32.6732C64.5523 33.3709 64.4522 34.0925 64.4521 34.8176C64.4549 35.308 64.5018 35.7972 64.5922 36.2792L65.4674 36.1042C65.604 36.8183 65.8521 37.5065 66.2026 38.1435L65.3799 38.5899C65.9729 39.6813 66.8157 40.617 67.8393 41.3206L68.3645 40.5504C68.9646 40.9618 69.6264 41.275 70.325 41.4782L70.0625 42.3534H70.15C70.8477 42.5508 71.5693 42.651 72.2943 42.651C72.8056 42.6501 73.3155 42.6003 73.8173 42.5022L73.6335 41.5744C74.3487 41.4373 75.0372 41.1861 75.6728 40.8305L76.1279 41.6532C77.2127 41.0494 78.1394 40.1976 78.8324 39.1675L78.0534 38.6424C78.4466 38.0391 78.742 37.3774 78.9287 36.6818L79.8039 36.9357C80.0008 36.2349 80.1009 35.5105 80.1015 34.7826C80.0967 34.2773 80.047 33.7735 79.9527 33.2772V33.2772ZM72.2156 39.4739C71.2881 39.4739 70.3814 39.1989 69.6101 38.6838C68.8388 38.1687 68.2375 37.4366 67.8822 36.5799C67.5269 35.7232 67.4335 34.7803 67.6138 33.8706C67.7941 32.9608 68.24 32.1248 68.8952 31.4684C69.5504 30.812 70.3855 30.3645 71.295 30.1825C72.2044 30.0005 73.1474 30.0921 74.0048 30.4459C74.8622 30.7996 75.5954 31.3995 76.112 32.1699C76.6285 32.9402 76.9051 33.8463 76.9069 34.7738C76.9023 36.0174 76.4068 37.2089 75.5283 38.0891C74.6497 38.9693 73.4591 39.467 72.2156 39.4739V39.4739Z" fill="#D4EBF8"/>
<path d="M55.5865 75.2012L50.8077 93.0299L37.7578 79.98L55.5865 75.2012Z" fill="#F9FBFC"/>
<path d="M42.5545 81.2312L34.3604 89.4253L41.36 96.4249L49.5541 88.2308L42.5545 81.2312Z" fill="#F9FBFC"/>
<path d="M334.359 26.0998C334.359 28.0102 333.6 29.8424 332.25 31.1933C330.899 32.5442 329.067 33.3031 327.156 33.3031H268.769C267.824 33.3031 266.888 33.117 266.015 32.7554C265.143 32.3939 264.349 31.8639 263.681 31.1958C263.013 30.5278 262.483 29.7347 262.122 28.8618C261.76 27.9889 261.574 27.0534 261.574 26.1086C261.574 25.1638 261.76 24.2282 262.122 23.3553C262.483 22.4825 263.013 21.6894 263.681 21.0213C264.349 20.3532 265.143 19.8233 266.015 19.4617C266.888 19.1002 267.824 18.9141 268.769 18.9141H327.156C328.101 18.9129 329.037 19.0979 329.91 19.4584C330.783 19.8189 331.577 20.3478 332.246 21.0151C332.915 21.6824 333.446 22.4748 333.808 23.3473C334.171 24.2197 334.358 25.155 334.359 26.0998Z" fill="#D4EBF8"/>
<path d="M334.359 26.0998C334.359 28.0102 333.601 29.8424 332.25 31.1932C330.899 32.5441 329.067 33.303 327.156 33.303H319.673V18.9053H327.156C328.102 18.9041 329.038 19.0894 329.912 19.4504C330.786 19.8115 331.58 20.3412 332.249 21.0094C332.918 21.6776 333.449 22.4711 333.811 23.3445C334.173 24.218 334.359 25.1542 334.359 26.0998V26.0998Z" fill="#3B7CFF"/>
<path d="M323.314 23.0802C322.813 23.7089 322.554 24.4959 322.582 25.2991C322.611 26.1023 322.925 26.8689 323.469 27.4605C324.014 28.052 324.751 28.4297 325.549 28.5252C326.347 28.6208 327.153 28.428 327.821 27.9816L329.974 30.1347C330.02 30.1765 330.079 30.1997 330.141 30.1997C330.202 30.1997 330.262 30.1765 330.307 30.1347L330.911 29.5308C330.934 29.5095 330.952 29.4837 330.964 29.4551C330.977 29.4265 330.983 29.3957 330.983 29.3645C330.983 29.3333 330.977 29.3024 330.964 29.2738C330.952 29.2452 330.934 29.2195 330.911 29.1982L328.758 27.0451C329.245 26.3216 329.433 25.4375 329.281 24.5785C329.13 23.7196 328.651 22.9528 327.946 22.4393C327.241 21.9258 326.365 21.7057 325.501 21.8253C324.637 21.9448 323.853 22.3946 323.314 23.0802V23.0802ZM327.401 26.5812C327.115 26.8675 326.75 27.0625 326.353 27.1415C325.955 27.2204 325.544 27.1798 325.169 27.0248C324.795 26.8697 324.475 26.6072 324.25 26.2704C324.025 25.9336 323.905 25.5377 323.905 25.1327C323.905 24.7276 324.025 24.3317 324.25 23.9949C324.475 23.6581 324.795 23.3956 325.169 23.2406C325.544 23.0855 325.955 23.0449 326.353 23.1239C326.75 23.2028 327.115 23.3978 327.401 23.6842C327.597 23.8757 327.753 24.1044 327.859 24.3569C327.965 24.6094 328.02 24.8806 328.02 25.1546C328.02 25.4285 327.965 25.6997 327.859 25.9522C327.753 26.2047 327.597 26.4334 327.401 26.625V26.5812Z" fill="#F9FBFC"/>
<path d="M317.293 29.1196H266.397V29.6623H317.293V29.1196Z" fill="#F9FBFC"/>
<defs>
<linearGradient id="paint0_linear" x1="176.484" y1="111.033" x2="176.484" y2="208.711" gradientUnits="userSpaceOnUse">
<stop stop-color="#26E6FF"/>
<stop offset="0.49" stop-color="#4189FF"/>
<stop offset="0.83" stop-color="#534CFF"/>
<stop offset="1" stop-color="#5A35FF"/>
</linearGradient>
<linearGradient id="paint1_linear" x1="121.344" y1="219.809" x2="121.344" y2="159.802" gradientUnits="userSpaceOnUse">
<stop stop-color="#F9FBFC"/>
<stop offset="1" stop-color="#BEE1F4"/>
</linearGradient>
<linearGradient id="paint2_linear" x1="77371.2" y1="24124.1" x2="77371.2" y2="20011" gradientUnits="userSpaceOnUse">
<stop stop-color="#F9FBFC"/>
<stop offset="1" stop-color="#BEE1F4"/>
</linearGradient>
<linearGradient id="paint3_linear" x1="306.142" y1="89.2227" x2="306.142" y2="97.9313" gradientUnits="userSpaceOnUse">
<stop stop-color="#FF697D"/>
<stop offset="1" stop-color="#DE2276"/>
</linearGradient>
<linearGradient id="paint4_linear" x1="317.153" y1="84.6885" x2="317.153" y2="97.9309" gradientUnits="userSpaceOnUse">
<stop stop-color="#435DF1"/>
<stop offset="0.33" stop-color="#4333F1"/>
<stop offset="1" stop-color="#4C008C"/>
</linearGradient>
<linearGradient id="paint5_linear" x1="328.171" y1="74.0195" x2="328.171" y2="97.9312" gradientUnits="userSpaceOnUse">
<stop stop-color="#69479B"/>
<stop offset="1" stop-color="#4C008C"/>
</linearGradient>
</defs>
</svg>
