<svg width="114" height="37" viewBox="0 0 114 37" fill="none" xmlns="http://www.w3.org/2000/svg">
    <path d="M0 24.6975V12.0039C0.000250555 11.0676 0.245525 10.1476 0.711449 9.33543C1.17737 8.52325 1.84772 7.84714 2.65589 7.37428L13.9776 0.735972C14.81 0.248336 15.7584 -0.00587425 16.7231 0.000103028C17.6877 0.00608031 18.633 0.272024 19.4592 0.769937L30.4035 7.36484C31.1956 7.84221 31.8509 8.51619 32.3059 9.32139C32.7608 10.1266 32.9999 11.0357 33 11.9605V24.7409C32.9999 25.6657 32.7608 26.5748 32.3059 27.38C31.8509 28.1852 31.1956 28.8592 30.4035 29.3365L19.4592 35.9314C18.633 36.4294 17.6877 36.6953 16.7231 36.7013C15.7584 36.7073 14.81 36.453 13.9776 35.9654L2.65589 29.3271C1.84772 28.8542 1.17737 28.1781 0.711449 27.3659C0.245525 26.5538 0.000250555 25.6338 0 24.6975Z" fill="#3B7CFF"/>
    <path fill-rule="evenodd" clip-rule="evenodd" d="M6.76669 24.7887H9.90554C10.2523 24.7887 10.5333 25.0638 10.5333 25.4031C10.5333 25.7424 10.2523 26.0175 9.90554 26.0175H6.76669C6.41998 26.0175 6.13892 25.7424 6.13892 25.4031C6.13892 25.0638 6.41998 24.7887 6.76669 24.7887Z" fill="url(#paint0_linear)"/>
    <path fill-rule="evenodd" clip-rule="evenodd" d="M3.62777 22.9454H6.76663C7.11333 22.9454 7.3944 23.2205 7.3944 23.5598C7.3944 23.8991 7.11333 24.1742 6.76663 24.1742H3.62777C3.28106 24.1742 3 23.8991 3 23.5598C3 23.2205 3.28106 22.9454 3.62777 22.9454Z" fill="url(#paint1_linear)"/>
    <path d="M25.2899 20.8683L25.7264 19.829C25.785 19.6819 25.8913 19.5587 26.0283 19.4793C26.1652 19.3998 26.3249 19.3686 26.4817 19.3907C26.6291 19.4103 26.7662 19.4768 26.8729 19.5804C26.9796 19.684 27.0501 19.8191 27.0741 19.9658C27.0992 20.1074 27.0817 20.2533 27.0239 20.385L26.596 21.3949L26.3881 21.8384C25.6779 23.5244 24.9666 25.2104 24.254 26.8964C24.0687 27.3364 23.8833 27.7781 23.6963 28.2181C23.5902 28.4639 23.4503 28.6936 23.2805 28.9006C23.179 29.0078 23.0623 29.0994 22.9341 29.1726C22.818 29.2602 22.6932 29.3356 22.5617 29.3978C22.387 29.4736 22.2019 29.5227 22.0125 29.5433C21.7079 29.5777 21.3996 29.559 21.1014 29.4878C20.9273 29.444 20.7625 29.3695 20.6146 29.2679C20.5263 29.209 20.4414 29.1535 20.3444 29.0946C20.1925 28.9582 20.0555 28.806 19.9356 28.6408C19.8582 28.5413 19.7995 28.4286 19.7624 28.3082L18.4182 25.1244C17.9436 24.0019 17.4684 22.8788 16.9926 21.7552C16.9866 21.7292 16.9719 21.706 16.951 21.6894L16.6825 22.3216L14.6437 27.1563C14.4964 27.5027 14.3457 27.8492 14.202 28.1956C14.1547 28.3475 14.0865 28.4921 13.9993 28.6252C13.9092 28.7378 13.8261 28.8504 13.7256 28.9612C13.6641 29.024 13.5948 29.0787 13.5195 29.1241C13.3682 29.2454 13.2024 29.3472 13.0258 29.4272C12.8272 29.5065 12.6173 29.5539 12.4039 29.5675C12.1393 29.583 11.8739 29.5603 11.6158 29.5C11.3635 29.4332 11.1277 29.3152 10.9229 29.1535C10.8726 29.1171 10.8189 29.086 10.7687 29.0479C10.7183 29.015 10.6747 28.9727 10.6405 28.9231C10.4853 28.726 10.3495 28.5142 10.2352 28.2909C9.92164 27.4594 9.56307 26.6487 9.21836 25.8294C9.17817 25.7445 9.15534 25.6525 9.1512 25.5587C9.14706 25.4649 9.1617 25.3712 9.19426 25.2831C9.22682 25.1951 9.27664 25.1144 9.34081 25.0458C9.40497 24.9773 9.48218 24.9223 9.56791 24.884C9.65363 24.8456 9.74614 24.8249 9.84002 24.8228C9.93389 24.8207 10.0272 24.8374 10.1146 24.8719C10.2019 24.9064 10.2814 24.958 10.3485 25.0237C10.4157 25.0893 10.469 25.1677 10.5054 25.2543C10.7929 25.9472 11.1047 26.6245 11.3715 27.333C11.4207 27.4699 11.4785 27.6035 11.5447 27.7331C11.61 27.8527 11.6997 27.9571 11.808 28.0397C11.9257 28.1348 12.0744 28.183 12.2255 28.1748C12.3562 28.1739 12.4837 28.1334 12.591 28.0588C12.7382 27.9519 12.8517 27.8053 12.9184 27.6361L13.885 25.3461L16.3101 19.6159C16.3621 19.484 16.4527 19.3708 16.5699 19.2911C16.6871 19.2113 16.8257 19.1687 16.9674 19.1687C17.1092 19.1687 17.2478 19.2113 17.365 19.2911C17.4822 19.3708 17.5728 19.484 17.6248 19.6159L19.4437 23.9205C19.9772 25.1804 20.509 26.4397 21.039 27.6985C21.1158 27.886 21.2606 28.0375 21.4444 28.1229C21.5474 28.1725 21.6616 28.1942 21.7757 28.1856C21.8897 28.1771 21.9995 28.1387 22.094 28.0743C22.2611 27.9589 22.3863 27.7924 22.4508 27.5997L25.0076 21.5369L25.2899 20.8683Z" fill="white"/>
    <path d="M28.5119 13.1874C28.6142 12.9466 28.7164 12.7059 28.8168 12.4634C28.891 12.307 28.9063 12.129 28.8598 11.9623C28.8134 11.7956 28.7083 11.6512 28.5639 11.5557C28.4145 11.452 28.2318 11.408 28.0516 11.4324C27.8714 11.4567 27.7069 11.5477 27.5904 11.6873C27.5492 11.7406 27.5149 11.7988 27.4882 11.8605C26.9304 13.1805 26.3721 14.501 25.8131 15.8221L24.2541 19.517C23.7276 20.7549 23.2015 21.9888 22.6761 23.2187C22.5687 23.4716 22.4613 23.728 22.3522 23.9809C22.2995 24.1117 22.209 24.2238 22.0921 24.3027C21.9753 24.3816 21.8375 24.4238 21.6965 24.4238C21.5555 24.4238 21.4177 24.3816 21.3009 24.3027C21.1841 24.2238 21.0935 24.1117 21.0409 23.9809C19.9923 21.49 18.9455 18.999 17.9004 16.5081C17.8259 16.3349 17.7497 16.153 17.6752 15.9746C17.6222 15.829 17.5244 15.7039 17.3958 15.6174C17.2673 15.5309 17.1146 15.4873 16.9598 15.493C16.804 15.4901 16.651 15.5347 16.5211 15.6206C16.3912 15.7066 16.2905 15.8301 16.2322 15.9746C15.8384 16.9053 15.447 17.8367 15.0578 18.7686C14.3291 20.5009 13.6004 22.2331 12.8717 23.9653C12.8264 24.0974 12.7413 24.2123 12.6281 24.2942C12.5149 24.376 12.3791 24.4209 12.2395 24.4226C12.1035 24.4342 11.9673 24.4033 11.8497 24.3341C11.732 24.2649 11.6388 24.1608 11.583 24.0363C11.4808 23.8354 11.4097 23.6223 11.3162 23.4145C9.98584 20.256 8.6578 17.0976 7.33207 13.9392L6.47462 11.9038C6.41931 11.7583 6.3204 11.6335 6.19141 11.5464C6.06242 11.4592 5.90966 11.4141 5.75402 11.4171C5.65982 11.4168 5.56652 11.4355 5.47963 11.4719C5.39274 11.5083 5.31404 11.5617 5.24815 11.6291C5.18227 11.6964 5.13055 11.7762 5.09605 11.8639C5.06154 11.9516 5.04496 12.0453 5.04727 12.1394C5.05041 12.2362 5.07217 12.3315 5.11136 12.4201C5.87816 14.2493 6.64612 16.0785 7.41523 17.9077L8.96037 21.5714C8.99927 21.6567 9.02076 21.7489 9.02359 21.8426C9.02642 21.9363 9.01054 22.0296 8.97686 22.1171C8.94318 22.2046 8.8924 22.2845 8.82747 22.3522C8.76254 22.4198 8.68476 22.4738 8.59871 22.511C8.51265 22.5482 8.42004 22.5679 8.32629 22.5689C8.23254 22.5699 8.13954 22.5521 8.05273 22.5167C7.96591 22.4813 7.88702 22.429 7.82069 22.3627C7.75435 22.2965 7.7019 22.2177 7.66639 22.1309C7.46892 21.6701 7.27664 21.2059 7.08263 20.7451C6.23154 18.7253 5.38218 16.7044 4.53454 14.6823C4.28857 14.0986 4.04086 13.5165 3.79835 12.9311C3.68074 12.6472 3.62639 12.3411 3.63907 12.0341C3.65176 11.7271 3.73118 11.4266 3.87181 11.1534C4.01244 10.8802 4.2109 10.641 4.45339 10.4523C4.69588 10.2636 4.97657 10.13 5.27593 10.0608C5.77523 9.93921 6.30159 10.0013 6.75891 10.2357C7.21623 10.4701 7.57398 10.8611 7.76686 11.3374C9.21616 14.7799 10.6655 18.2224 12.1147 21.6649L12.1875 21.8381C12.1875 21.8503 12.1875 21.8728 12.2152 21.8728C12.2429 21.8728 12.236 21.8503 12.2429 21.8364C12.3313 21.6251 12.4161 21.412 12.5097 21.2007C13.3186 19.2745 14.1207 17.3448 14.9348 15.4237C15.0752 15.0691 15.3091 14.7592 15.6118 14.5271C15.9144 14.2949 16.2743 14.1492 16.6532 14.1055C17.1327 14.029 17.624 14.1179 18.0464 14.3574C18.4688 14.5969 18.7972 14.9729 18.9778 15.4237C19.8716 17.5509 20.766 19.6786 21.661 21.807C21.6693 21.8357 21.6828 21.8627 21.7009 21.8866C21.7303 21.8676 21.7338 21.8364 21.7459 21.8104L22.9584 18.9609L24.5174 15.2799L25.5256 12.8947C25.7543 12.356 25.976 11.8155 26.2185 11.2802C26.3516 10.9485 26.5713 10.6586 26.8547 10.4408C27.138 10.2229 27.4747 10.0851 27.8295 10.0417C28.2126 9.97367 28.6071 10.014 28.9686 10.1582C29.33 10.3023 29.644 10.5446 29.8752 10.8576C30.1868 11.2594 30.3386 11.7623 30.3013 12.2693C30.2741 12.5952 30.1878 12.9133 30.0467 13.2082C29.9878 13.3485 29.9272 13.4888 29.8735 13.6274L29.8163 13.8283C29.4121 14.7822 29.0079 15.7361 28.6038 16.69C28.5714 16.7802 28.521 16.8629 28.4557 16.9331C28.3904 17.0033 28.3115 17.0594 28.2238 17.0981C28.1361 17.1368 28.0414 17.1573 27.9455 17.1582C27.8497 17.1592 27.7546 17.1406 27.6661 17.1037C27.5777 17.0667 27.4976 17.0122 27.4309 16.9434C27.3642 16.8745 27.3122 16.7928 27.2781 16.7032C27.2439 16.6136 27.2283 16.5181 27.2323 16.4223C27.2363 16.3265 27.2597 16.2325 27.3011 16.1461C27.5379 15.5837 27.7763 15.0201 28.0165 14.4554C28.1153 14.225 28.2123 13.9929 28.3093 13.7625L28.5119 13.1874Z" fill="white"/>
    <path fill-rule="evenodd" clip-rule="evenodd" d="M86.896 11.7827C86.896 11.3504 87.2531 11 87.6935 11H88.0337C88.4741 11 88.8312 11.3504 88.8312 11.7827V24.1673C88.8312 24.5995 88.4741 24.9499 88.0337 24.9499H87.6935C87.2531 24.9499 86.896 24.5995 86.896 24.1673V23.9486C86.0456 24.6179 84.9619 25 83.7648 25C80.8869 25 78.6985 22.8079 78.6985 19.8443C78.6985 16.8767 80.8909 14.7054 83.7648 14.7054C84.9617 14.7054 86.0455 15.0873 86.896 15.754V11.7827ZM47.1486 12.0288C47.2983 11.8231 47.5399 11.701 47.7975 11.701H48.1717C48.5124 11.701 48.8155 11.9135 48.9261 12.2299L52.0745 21.243L55.2934 12.2249C55.4054 11.9111 55.7073 11.701 56.0461 11.701H56.3862C56.7249 11.701 57.0267 11.911 57.1388 12.2246L60.3732 21.2746L63.523 12.2305C63.6333 11.9138 63.9366 11.701 64.2777 11.701H64.6348C64.8924 11.701 65.1341 11.8231 65.2838 12.0288C65.4335 12.2344 65.4727 12.4984 65.3892 12.7375L61.3074 24.4211C61.1969 24.7374 60.8938 24.9499 60.5531 24.9499H60.2129C59.8739 24.9499 59.572 24.7396 59.4601 24.4256L56.2162 15.322L52.9722 24.4256C52.8603 24.7396 52.5584 24.9499 52.2194 24.9499H51.8793C51.5385 24.9499 51.2354 24.7374 51.1249 24.4211L47.0431 12.7375C46.9596 12.4984 46.9989 12.2344 47.1486 12.0288ZM66.4551 19.8443C66.4551 16.8809 68.6094 14.7054 71.5215 14.7054C74.4336 14.7054 76.5878 16.8809 76.5878 19.8443C76.5878 22.8037 74.4376 25 71.5215 25C68.6054 25 66.4551 22.8037 66.4551 19.8443ZM91.9716 19.8443C91.9716 16.9177 94.0053 14.7054 96.8338 14.7054C99.6251 14.7054 101.713 16.8631 101.713 19.7609V19.8443C101.713 20.2766 101.356 20.627 100.916 20.627H93.9685C94.2863 22.1453 95.5356 23.1176 97.157 23.1176C98.1406 23.1176 99.0013 22.7558 99.5151 22.0917C99.6544 21.9116 99.8662 21.7995 100.096 21.7841C100.326 21.7688 100.551 21.8517 100.714 22.0115L100.952 22.2452C101.242 22.5299 101.265 22.9843 101.005 23.2954C100.05 24.4356 98.6198 25 97.157 25C94.1743 25 91.9716 22.8223 91.9716 19.8443ZM94.0265 18.7446H99.6568C99.2733 17.4323 98.1716 16.5878 96.8338 16.5878C95.4993 16.5878 94.4068 17.4297 94.0265 18.7446ZM106.789 15.5439C107.562 15.005 108.545 14.7054 109.682 14.7054C110.918 14.7054 112.023 15.0665 112.819 15.8555C113.614 16.644 114 17.7606 114 19.0766V24.1673C114 24.5995 113.643 24.9499 113.203 24.9499H112.862C112.422 24.9499 112.065 24.5995 112.065 24.1673V19.0766C112.065 18.1439 111.81 17.5462 111.453 17.1834C111.1 16.8244 110.54 16.5878 109.699 16.5878C108.722 16.5878 108.014 16.8973 107.55 17.3664C107.083 17.8388 106.789 18.5477 106.789 19.4771V24.1673C106.789 24.5995 106.432 24.9499 105.991 24.9499H105.651C105.211 24.9499 104.854 24.5995 104.854 24.1673V15.5381C104.854 15.1059 105.211 14.7554 105.651 14.7554H105.991C106.432 14.7554 106.789 15.1059 106.789 15.5381V15.5439ZM71.5215 16.5878C69.7414 16.5878 68.3903 17.8654 68.3903 19.8443C68.3903 21.8277 69.7457 23.1176 71.5215 23.1176C73.2973 23.1176 74.6527 21.8277 74.6527 19.8443C74.6527 17.8654 73.3016 16.5878 71.5215 16.5878ZM83.7648 16.5878C81.9847 16.5878 80.6336 17.8654 80.6336 19.8443C80.6336 21.8277 81.9891 23.1176 83.7648 23.1176C85.5406 23.1176 86.896 21.8277 86.896 19.8443C86.896 17.8654 85.5449 16.5878 83.7648 16.5878Z" fill="#3B7CFF"/>
    <defs>
        <linearGradient id="paint0_linear" x1="4.0044" y1="25.4382" x2="4.65797" y2="27.7087" gradientUnits="userSpaceOnUse">
            <stop stop-color="white"/>
            <stop offset="1" stop-color="white"/>
        </linearGradient>
        <linearGradient id="paint1_linear" x1="0.865481" y1="23.5949" x2="1.51906" y2="25.8654" gradientUnits="userSpaceOnUse">
            <stop stop-color="white"/>
            <stop offset="1" stop-color="white"/>
        </linearGradient>
    </defs>
</svg>
