<svg width="77" height="113" viewBox="0 0 77 113" fill="none" xmlns="http://www.w3.org/2000/svg">
    <path d="M0 57.3349V27.867C0.00058166 25.6933 0.569982 23.5576 1.65162 21.6721C2.73326 19.7866 4.28947 18.217 6.16561 17.1193L32.4489 1.70855C34.3812 0.576508 36.583 -0.013637 38.8224 0.000239178C41.0619 0.0141154 43.2562 0.6315 45.1743 1.7874L70.5815 17.0974C72.4203 18.2056 73.9416 19.7702 74.9977 21.6395C76.0538 23.5088 76.6088 25.6192 76.6091 27.7662V57.4356C76.6088 59.5826 76.0538 61.6931 74.9977 63.5623C73.9416 65.4316 72.4203 66.9962 70.5815 68.1044L45.1743 83.4144C43.2562 84.5703 41.0619 85.1877 38.8224 85.2016C36.583 85.2155 34.3812 84.6253 32.4489 83.4933L6.16561 68.0825C4.28947 66.9848 2.73326 65.4152 1.65162 63.5297C0.569982 61.6442 0.00058166 59.5085 0 57.3349Z" fill="url(#paint0_linear)"/>
    <path fill-rule="evenodd" clip-rule="evenodd" d="M14.5445 57.0057H22.1866C23.0307 57.0057 23.715 57.6755 23.715 58.5016C23.715 59.3278 23.0307 59.9975 22.1866 59.9975H14.5445C13.7004 59.9975 13.0161 59.3278 13.0161 58.5016C13.0161 57.6755 13.7004 57.0057 14.5445 57.0057Z" fill="url(#paint1_linear)"/>
    <path fill-rule="evenodd" clip-rule="evenodd" d="M6.90244 52.5176H14.5445C15.3886 52.5176 16.0729 53.1874 16.0729 54.0135C16.0729 54.8397 15.3886 55.5094 14.5445 55.5094H6.90244C6.05832 55.5094 5.37402 54.8397 5.37402 54.0135C5.37402 53.1874 6.05832 52.5176 6.90244 52.5176Z" fill="url(#paint2_linear)"/>
    <path d="M59.6425 47.4603L60.7053 44.9298C60.848 44.5717 61.1068 44.2719 61.4402 44.0784C61.7736 43.8849 62.1623 43.809 62.5441 43.8628C62.9029 43.9106 63.2369 44.0725 63.4966 44.3246C63.7563 44.5768 63.9281 44.9058 63.9864 45.263C64.0474 45.6078 64.0049 45.963 63.8641 46.2836L62.8224 48.7423L62.3163 49.822C60.5872 53.9269 58.8553 58.0319 57.1205 62.1368C56.6693 63.208 56.218 64.2834 55.7625 65.3546C55.5043 65.953 55.1636 66.5124 54.7503 67.0163C54.5032 67.2772 54.219 67.5003 53.9069 67.6784C53.6241 67.8917 53.3203 68.0754 53.0001 68.2267C52.5749 68.4113 52.1241 68.5308 51.6632 68.581C50.9215 68.6649 50.1709 68.6192 49.4449 68.446C49.0211 68.3394 48.6198 68.158 48.2598 67.9104C48.0447 67.767 47.838 67.632 47.6019 67.4887C47.2321 67.1564 46.8985 66.786 46.6066 66.3837C46.418 66.1416 46.2751 65.8672 46.1848 65.574L42.9121 57.8224C41.7566 55.0895 40.5996 52.3552 39.4412 49.6196C39.4266 49.5562 39.3909 49.4997 39.34 49.4593L38.6863 50.9987L33.7224 62.7694C33.364 63.6129 32.997 64.4564 32.647 65.2998C32.5319 65.6697 32.3658 66.0217 32.1536 66.3457C31.9342 66.6199 31.7318 66.894 31.4872 67.1639C31.3374 67.3167 31.1687 67.45 30.9854 67.5603C30.6171 67.8557 30.2133 68.1036 29.7834 68.2984C29.2999 68.4914 28.7889 68.6067 28.2694 68.64C27.6251 68.6777 26.9788 68.6223 26.3504 68.4755C25.7363 68.3128 25.1621 68.0258 24.6635 67.632C24.5412 67.5435 24.4104 67.4676 24.2881 67.3748C24.1653 67.2948 24.0593 67.1917 23.976 67.0711C23.5982 66.5911 23.2676 66.0756 22.9892 65.5318C22.2258 63.5074 21.3528 61.5337 20.5136 59.5389C20.4157 59.3323 20.3601 59.1082 20.3501 58.8798C20.34 58.6514 20.3756 58.4234 20.4549 58.2089C20.5342 57.9945 20.6555 57.7981 20.8117 57.6312C20.9679 57.4643 21.1559 57.3303 21.3646 57.237C21.5733 57.1438 21.7986 57.0931 22.0271 57.0881C22.2556 57.0831 22.4829 57.1238 22.6955 57.2077C22.9081 57.2917 23.1018 57.4173 23.2652 57.5772C23.4286 57.7371 23.5585 57.928 23.6471 58.1387C24.3472 59.8257 25.1063 61.4746 25.7558 63.1996C25.8755 63.5329 26.0164 63.8583 26.1775 64.1738C26.3364 64.4649 26.5548 64.7192 26.8186 64.9203C27.105 65.1519 27.4671 65.2691 27.8349 65.2492C28.1533 65.247 28.4635 65.1485 28.7248 64.9667C29.0831 64.7066 29.3597 64.3496 29.5219 63.9376L31.8752 58.3622L37.7796 44.4111C37.9063 44.09 38.1267 43.8144 38.4122 43.6202C38.6976 43.4261 39.0348 43.3222 39.3801 43.3222C39.7253 43.3222 40.0625 43.4261 40.348 43.6202C40.6334 43.8144 40.8538 44.09 40.9806 44.4111L45.4088 54.8913C46.7078 57.9588 48.0025 61.0248 49.293 64.0894C49.48 64.5459 49.8325 64.915 50.2799 65.1227C50.5307 65.2436 50.8089 65.2963 51.0865 65.2756C51.3641 65.2548 51.6314 65.1614 51.8614 65.0046C52.2684 64.7236 52.5733 64.3181 52.7302 63.849L58.9551 49.0882L59.6425 47.4603Z" fill="white"/>
    <path d="M67.487 28.7603C67.7358 28.1741 67.9846 27.5879 68.2292 26.9975C68.4099 26.6167 68.4471 26.1835 68.3339 25.7776C68.2208 25.3716 67.965 25.0201 67.6135 24.7876C67.2498 24.5351 66.8048 24.428 66.3661 24.4874C65.9275 24.5467 65.5269 24.7681 65.2433 25.1081C65.1431 25.2377 65.0595 25.3794 64.9945 25.5298C63.6365 28.7435 62.2771 31.9585 60.9163 35.175L57.1206 44.1707C55.8385 47.1847 54.5579 50.1889 53.2786 53.1832C53.0171 53.799 52.7556 54.4232 52.4899 55.0389C52.3618 55.3574 52.1413 55.6302 51.8568 55.8224C51.5724 56.0145 51.2369 56.1172 50.8936 56.1172C50.5504 56.1172 50.2149 56.0145 49.9305 55.8224C49.646 55.6302 49.4255 55.3574 49.2974 55.0389C46.7444 48.9743 44.1957 42.9097 41.6512 36.8451C41.4699 36.4233 41.2843 35.9805 41.103 35.5461C40.9739 35.1916 40.7358 34.8872 40.4228 34.6765C40.1099 34.4659 39.7382 34.3598 39.3612 34.3737C38.9819 34.3667 38.6095 34.4751 38.2932 34.6844C37.9769 34.8938 37.7316 35.1943 37.5899 35.5461C36.6311 37.8123 35.678 40.0798 34.7305 42.3488C32.9564 46.5662 31.1823 50.7835 29.4082 55.0009C29.2977 55.3226 29.0905 55.6023 28.8149 55.8016C28.5394 56.0009 28.2089 56.1101 27.8688 56.1143C27.5378 56.1426 27.2061 56.0673 26.9198 55.8988C26.6334 55.7303 26.4065 55.477 26.2704 55.1739C26.0216 54.6846 25.8487 54.1659 25.6209 53.6598C22.382 45.9701 19.1486 38.2804 15.9209 30.5907L13.8333 25.6352C13.6987 25.281 13.4578 24.977 13.1438 24.7649C12.8297 24.5527 12.4578 24.4428 12.0789 24.4502C11.8495 24.4495 11.6224 24.4949 11.4108 24.5835C11.1993 24.6721 11.0077 24.8023 10.8473 24.9662C10.6869 25.1302 10.5609 25.3246 10.4769 25.538C10.3929 25.7514 10.3526 25.9795 10.3582 26.2088C10.3658 26.4445 10.4188 26.6764 10.5142 26.892C12.3811 31.3456 14.2509 35.7992 16.1234 40.2527L19.8853 49.1725C19.98 49.3802 20.0323 49.6047 20.0392 49.8328C20.0461 50.061 20.0074 50.2882 19.9254 50.5013C19.8435 50.7143 19.7198 50.9088 19.5617 51.0735C19.4036 51.2381 19.2143 51.3696 19.0048 51.4602C18.7953 51.5508 18.5698 51.5987 18.3415 51.6011C18.1133 51.6035 17.8869 51.5603 17.6755 51.4741C17.4641 51.388 17.2721 51.2605 17.1106 51.0992C16.949 50.9379 16.8213 50.746 16.7349 50.5347C16.2541 49.4129 15.786 48.2826 15.3136 47.1608C13.2415 42.2433 11.1736 37.323 9.10986 32.3999C8.51099 30.9787 7.90791 29.5616 7.31747 28.1362C7.03113 27.4451 6.8988 26.6999 6.92968 25.9524C6.96057 25.205 7.15393 24.4733 7.49632 23.8082C7.83871 23.1431 8.3219 22.5605 8.91228 22.1011C9.50266 21.6417 10.186 21.3164 10.9149 21.1479C12.1305 20.852 13.4121 21.0031 14.5255 21.5738C15.6389 22.1444 16.5099 23.0965 16.9795 24.2562C20.5081 32.6375 24.0366 41.0189 27.5652 49.4002L27.7423 49.822C27.7423 49.8515 27.7423 49.9063 27.8098 49.9063C27.8772 49.9063 27.8604 49.8515 27.8773 49.8178C28.0923 49.3032 28.299 48.7845 28.5267 48.27C30.4962 43.5802 32.4489 38.8821 34.4311 34.205C34.7729 33.3416 35.3425 32.5871 36.0792 32.0219C36.816 31.4568 37.6923 31.102 38.6147 30.9956C39.7822 30.8094 40.9784 31.0257 42.0068 31.6088C43.0352 32.192 43.8349 33.1075 44.2745 34.205C46.4506 39.3839 48.6282 44.5643 50.8072 49.7461C50.8275 49.8161 50.8603 49.8818 50.9042 49.9401C50.9759 49.8937 50.9843 49.8178 51.0139 49.7545L53.966 42.8169L57.7617 33.8549L60.2162 28.0476C60.7729 26.736 61.3127 25.4202 61.9032 24.117C62.2273 23.3094 62.7622 22.6036 63.4521 22.0732C64.142 21.5428 64.9616 21.2072 65.8253 21.1015C66.7582 20.9359 67.7187 21.0341 68.5987 21.3851C69.4788 21.736 70.2433 22.3258 70.8061 23.0879C71.5646 24.0662 71.9342 25.2906 71.8436 26.5251C71.7773 27.3184 71.5673 28.0929 71.2236 28.8109C71.0802 29.1526 70.9326 29.4942 70.8018 29.8316L70.6627 30.3208C69.6786 32.6431 68.6945 34.9655 67.7105 37.2879C67.6317 37.5076 67.5091 37.709 67.3501 37.8798C67.191 38.0507 66.9989 38.1874 66.7853 38.2816C66.5718 38.3758 66.3413 38.4256 66.1079 38.4279C65.8745 38.4303 65.6431 38.3851 65.4277 38.2951C65.2123 38.2052 65.0175 38.0724 64.8551 37.9048C64.6926 37.7372 64.566 37.5383 64.4829 37.3202C64.3997 37.1021 64.3618 36.8693 64.3715 36.6361C64.3811 36.4029 64.4382 36.1741 64.539 35.9636C65.1154 34.5944 65.696 33.2223 66.2808 31.8475C66.5212 31.2866 66.7574 30.7214 66.9936 30.1605L67.487 28.7603Z" fill="white"/>
    <path fill-rule="evenodd" clip-rule="evenodd" d="M44.896 99.7827C44.896 99.3504 45.2531 99 45.6935 99H46.0337C46.4741 99 46.8312 99.3504 46.8312 99.7827V112.167C46.8312 112.6 46.4741 112.95 46.0337 112.95H45.6935C45.2531 112.95 44.896 112.6 44.896 112.167V111.949C44.0456 112.618 42.9619 113 41.7648 113C38.8869 113 36.6985 110.808 36.6985 107.844C36.6985 104.877 38.8909 102.705 41.7648 102.705C42.9617 102.705 44.0455 103.087 44.896 103.754V99.7827ZM5.14855 100.029C5.29825 99.8231 5.53995 99.701 5.7975 99.701H6.17166C6.51243 99.701 6.81555 99.9135 6.92606 100.23L10.0745 109.243L13.2934 100.225C13.4054 99.9111 13.7073 99.701 14.0461 99.701H14.3862C14.7249 99.701 15.0267 99.911 15.1388 100.225L18.3732 109.275L21.523 100.231C21.6333 99.9138 21.9366 99.701 22.2777 99.701H22.6348C22.8924 99.701 23.1341 99.8231 23.2838 100.029C23.4335 100.234 23.4727 100.498 23.3892 100.737L19.3074 112.421C19.1969 112.737 18.8938 112.95 18.5531 112.95H18.2129C17.8739 112.95 17.572 112.74 17.4601 112.426L14.2162 103.322L10.9722 112.426C10.8603 112.74 10.5584 112.95 10.2194 112.95H9.87927C9.53852 112.95 9.23541 112.737 9.12489 112.421L5.04311 100.737C4.95958 100.498 4.99885 100.234 5.14855 100.029ZM24.4551 107.844C24.4551 104.881 26.6094 102.705 29.5215 102.705C32.4336 102.705 34.5878 104.881 34.5878 107.844C34.5878 110.804 32.4376 113 29.5215 113C26.6054 113 24.4551 110.804 24.4551 107.844ZM49.9716 107.844C49.9716 104.918 52.0053 102.705 54.8338 102.705C57.6251 102.705 59.7131 104.863 59.7131 107.761V107.844C59.7131 108.277 59.356 108.627 58.9156 108.627H51.9685C52.2863 110.145 53.5356 111.118 55.157 111.118C56.1406 111.118 57.0013 110.756 57.5151 110.092C57.6544 109.912 57.8662 109.799 58.0961 109.784C58.3259 109.769 58.5513 109.852 58.7142 110.012L58.9523 110.245C59.2424 110.53 59.265 110.984 59.0046 111.295C58.0503 112.436 56.6198 113 55.157 113C52.1743 113 49.9716 110.822 49.9716 107.844ZM52.0265 106.745H57.6568C57.2733 105.432 56.1716 104.588 54.8338 104.588C53.4993 104.588 52.4068 105.43 52.0265 106.745ZM64.7889 103.544C65.5615 103.005 66.5448 102.705 67.682 102.705C68.9182 102.705 70.0235 103.067 70.8191 103.855C71.6142 104.644 72 105.761 72 107.077V112.167C72 112.6 71.643 112.95 71.2025 112.95H70.8624C70.4219 112.95 70.0649 112.6 70.0649 112.167V107.077C70.0649 106.144 69.8103 105.546 69.4533 105.183C69.0999 104.824 68.5401 104.588 67.699 104.588C66.7218 104.588 66.014 104.897 65.55 105.366C65.0827 105.839 64.7889 106.548 64.7889 107.477V112.167C64.7889 112.6 64.4318 112.95 63.9914 112.95H63.6512C63.2108 112.95 62.8537 112.6 62.8537 112.167V103.538C62.8537 103.106 63.2108 102.755 63.6512 102.755H63.9914C64.4318 102.755 64.7889 103.106 64.7889 103.538V103.544ZM29.5215 104.588C27.7414 104.588 26.3903 105.865 26.3903 107.844C26.3903 109.828 27.7457 111.118 29.5215 111.118C31.2973 111.118 32.6527 109.828 32.6527 107.844C32.6527 105.865 31.3016 104.588 29.5215 104.588ZM41.7648 104.588C39.9847 104.588 38.6336 105.865 38.6336 107.844C38.6336 109.828 39.9891 111.118 41.7648 111.118C43.5406 111.118 44.896 109.828 44.896 107.844C44.896 105.865 43.5449 104.588 41.7648 104.588Z" fill="#3B7CFF"/>
    <defs>
        <linearGradient id="paint0_linear" x1="38.5614" y1="-39" x2="38.5614" y2="111.5" gradientUnits="userSpaceOnUse">
            <stop stop-color="#8BADF0"/>
            <stop offset="1" stop-color="#3B7CFF"/>
        </linearGradient>
        <linearGradient id="paint1_linear" x1="7.81926" y1="58.587" x2="9.4105" y2="64.1151" gradientUnits="userSpaceOnUse">
            <stop stop-color="white"/>
            <stop offset="1" stop-color="white"/>
        </linearGradient>
        <linearGradient id="paint2_linear" x1="0.177171" y1="54.0989" x2="1.76841" y2="59.627" gradientUnits="userSpaceOnUse">
            <stop stop-color="white"/>
            <stop offset="1" stop-color="white"/>
        </linearGradient>
    </defs>
</svg>
