<svg width="24" height="24" viewBox="0 0 24 24" fill="none" xmlns="http://www.w3.org/2000/svg">
<path d="M16.0909 19.7273V18.0909C16.0909 16.2834 14.6257 14.8182 12.8182 14.8182H6.27273C4.46525 14.8182 3 16.2834 3 18.0909V19.7273" stroke="#8998AC" stroke-width="2" stroke-linecap="round" stroke-linejoin="round"/>
<path fill-rule="evenodd" clip-rule="evenodd" d="M9.54546 11.5455C11.3529 11.5455 12.8182 10.0802 12.8182 8.27273C12.8182 6.46525 11.3529 5 9.54546 5C7.73799 5 6.27274 6.46525 6.27274 8.27273C6.27274 10.0802 7.73799 11.5455 9.54546 11.5455Z" stroke="#8998AC" stroke-width="2" stroke-linecap="round" stroke-linejoin="round"/>
<path d="M21 19.7272V18.0908C20.9989 16.5994 19.9895 15.2973 18.5454 14.9244" stroke="#8998AC" stroke-width="2" stroke-linecap="round" stroke-linejoin="round"/>
<path d="M15.2727 5.10626C16.7208 5.47704 17.7337 6.78189 17.7337 8.27672C17.7337 9.77154 16.7208 11.0764 15.2727 11.4472" stroke="#8998AC" stroke-width="2" stroke-linecap="round" stroke-linejoin="round"/>
</svg>
