<svg width="25" height="24" viewBox="0 0 25 24" fill="none" xmlns="http://www.w3.org/2000/svg">
<path d="M22.4298 14.5441C22.096 14.3323 21.658 14.4377 21.4503 14.7741C21.2426 15.1105 21.345 15.5542 21.6779 15.764C22.371 16.2001 23.1979 16.8987 23.1979 17.7459C23.1979 19.5792 19.1091 21.6223 13.2416 21.6223C7.37397 21.6223 3.28525 19.5801 3.28525 17.7468C3.28525 16.8987 4.11115 16.201 4.80524 15.765C5.13902 15.5551 5.24048 15.1114 5.03281 14.775C4.82515 14.4387 4.38613 14.3332 4.0533 14.545C2.2422 15.6845 1.86292 16.915 1.86292 17.7468C1.86292 20.7761 6.75478 23.0608 13.2416 23.0608C19.7283 23.0608 24.6202 20.7761 24.6202 17.7468C24.6202 16.915 24.2409 15.6845 22.4298 14.5441Z" fill="#8999AC" stroke="#8998AC" stroke-width="0.3" stroke-linejoin="round"/>
<path d="M10.1912 10.1942C10.5753 10.1128 10.8218 9.73329 10.7422 9.34325C10.6616 8.95608 10.2889 8.70692 9.90109 8.78646C7.74389 9.24071 6.60413 10.0342 6.60413 11.0817V16.5921C6.60413 18.412 9.93807 19.2275 13.2417 19.2275C16.5453 19.2275 19.8792 18.412 19.8792 16.5921V11.0817C19.8792 10.0342 18.7394 9.24071 16.5822 8.78646C16.1954 8.70308 15.8208 8.95512 15.7402 9.34325C15.6606 9.73233 15.9071 10.1128 16.2911 10.1942C17.9249 10.5373 18.418 11.0079 18.4578 11.0673C18.3535 11.4123 16.6486 12.2796 13.2407 12.2796C9.84988 12.2796 8.14878 11.4228 8.02551 11.12V11.1075C8.08145 10.9916 8.58211 10.5325 10.1912 10.1942ZM13.2417 13.7171C15.2073 13.7171 17.1787 13.4257 18.4569 12.8086V16.5815C18.3526 16.9265 16.6543 17.79 13.2417 17.79C9.82523 17.79 8.12602 16.9246 8.02646 16.5921V12.8086C9.30466 13.4257 11.276 13.7171 13.2417 13.7171Z" fill="#8999AC" stroke="#8998AC" stroke-width="0.3" stroke-linejoin="round"/>
<path d="M12.7862 9.70071C13.0308 9.97 13.4518 9.97 13.6965 9.70071L16.3733 6.75575C16.6388 6.4625 16.6198 6.00825 16.3297 5.73992C16.0424 5.47254 15.5901 5.49075 15.3246 5.784L13.9525 7.29817V1.71875C13.9525 1.322 13.6339 1 13.2413 1C12.8488 1 12.5301 1.322 12.5301 1.71875V7.29817L11.1581 5.78496C10.8935 5.49171 10.4422 5.4735 10.153 5.74087C9.8628 6.00825 9.84384 6.46346 10.1093 6.75671L12.7862 9.70071Z" fill="#8999AC" stroke="#8998AC" stroke-width="0.3" stroke-linejoin="round"/>
</svg>
