<svg width="185" height="154" viewBox="0 0 185 154" fill="none" xmlns="http://www.w3.org/2000/svg">
<g clip-path="url(#clip0)">
<g opacity="0.2">
<path opacity="0.2" d="M184.906 98.2851C185.083 95.2742 185.002 92.2537 184.664 89.2565C183.064 75.189 175.831 61.9258 165.185 52.5665C161.386 49.2262 157.064 46.2331 154.592 41.827C150.429 34.4032 150.744 25.8729 145.587 18.5512C140.354 11.1491 132.94 5.55703 124.376 2.55216C99.0101 -6.21506 63.5262 8.04851 66.723 38.5153C66.723 38.6255 66.7475 38.7848 66.7598 38.9849C66.9483 41.9201 65.9607 44.8099 64.0142 47.019C62.0677 49.2282 59.3216 50.5758 56.3795 50.7657C56.2076 50.7657 56.0397 50.7657 55.8678 50.7657C32.4834 51.3415 12.3531 69.3292 8.04298 92.115C5.27598 106.766 9.81124 122.827 20.5559 133.195C28.5744 140.933 39.3354 145.176 50.1046 148.103C71.6921 153.963 94.4052 155.188 116.66 152.934C137.494 150.839 159.475 144.861 172.949 128.87C180.141 120.356 184.259 109.433 184.906 98.2851Z" fill="#D1E6FF"/>
</g>
<g opacity="0.31">
<path opacity="0.31" d="M52.2089 10.8457C54.2864 10.8457 55.9706 9.16555 55.9706 7.09298C55.9706 5.02042 54.2864 3.34027 52.2089 3.34027C50.1314 3.34027 48.4473 5.02042 48.4473 7.09298C48.4473 9.16555 50.1314 10.8457 52.2089 10.8457Z" fill="#E1E2FE"/>
</g>
<path opacity="0.47" d="M3.45869 29.5848C0.0913644 36.9759 -0.848431 45.2396 0.773553 53.1954C2.67689 62.4567 8.45648 69.5742 6.45081 79.4521C5.22285 85.4671 4.92405 91.0451 4.30598 97.0111C3.04118 109.241 11.0065 119.997 20.8793 125.812C28.8979 130.536 38.2959 132.309 47.5137 132.186C55.8106 132.072 59.9079 131.921 67.9469 129.854C75.6954 127.874 83.3333 126.996 91.4541 127.813C98.2079 128.495 108.408 128.311 114.699 130.483C129.717 135.669 147.903 136.4 161.636 128.507C168.921 124.241 174.649 117.764 177.985 110.022C181.321 102.279 182.089 93.676 180.178 85.4671C178.496 78.0597 175.676 70.5869 176.535 62.8692C177.149 57.4871 179.617 52.293 179.167 46.8987C178.864 43.3134 177.284 39.9568 175.348 36.9105C168.283 25.8239 156.45 18.4042 143.937 14.3126C132.161 10.4659 120.012 7.67693 107.753 8.59572C82.4 10.519 77.2303 6.52131 51.3245 0.971873C34.5874 -2.58891 15.8774 10.1352 6.0947 24.8724C5.09737 26.3742 4.21615 27.9495 3.45869 29.5848Z" fill="#E8F3FE"/>
<path opacity="0.81" d="M156.94 43.6159C155.004 37.405 145.606 28.3968 139.83 25.3751C113.155 11.4055 84.1628 11.0829 55.1339 20.5974L26.5348 29.9894C19.9872 32.1187 14.3284 36.3468 10.4385 42.0162C6.54848 47.6855 4.64537 54.4783 5.02508 61.3382C5.03509 61.4305 5.03509 61.5236 5.02508 61.6159C5.56738 69.7922 8.24888 77.6838 12.8021 84.5038C16.8953 90.58 18.0833 99.3459 19.4955 106.806C20.617 112.752 21.1154 127.678 34.1645 133.657C65.8786 148.153 85.0961 142.477 91.3955 141.738C102.832 140.398 117.011 144.886 136.011 139.328C143.35 137.181 151.77 131.549 157.963 126.878C161.983 123.848 164.922 119.466 166.944 114.75C171.123 104.97 171.291 93.7201 167.848 83.683C165.515 76.8881 159.801 71.7061 157.828 64.7847C156.191 58.9984 158.151 52.9916 157.632 47.1563C157.53 45.9546 157.298 44.7675 156.94 43.6159Z" fill="#E5F2FE"/>
<g opacity="0.66">
<path opacity="0.66" d="M26.9127 97.4521L30.0604 98.3178C29.8435 100.718 30.1464 103.137 30.9486 105.411L28.1079 107.024C27.7615 107.211 27.4555 107.465 27.2074 107.771C26.9594 108.077 26.7741 108.428 26.6621 108.805C26.5502 109.182 26.5138 109.578 26.555 109.969C26.5963 110.36 26.7143 110.739 26.9025 111.085C27.2824 111.783 27.9248 112.302 28.6882 112.527C29.0662 112.639 29.4625 112.675 29.8546 112.634C30.2466 112.593 30.6267 112.475 30.9732 112.287L31.0919 112.218L33.9325 110.609C35.4737 112.457 37.3943 113.954 39.5648 114.999L38.6929 118.151C38.5878 118.529 38.5585 118.924 38.6065 119.314C38.6546 119.703 38.7791 120.079 38.973 120.42C39.1669 120.762 39.4263 121.062 39.7365 121.303C40.0466 121.544 40.4014 121.722 40.7804 121.826C41.1594 121.931 41.5554 121.96 41.9457 121.912C42.336 121.865 42.713 121.74 43.0551 121.547C43.3973 121.353 43.6978 121.095 43.9396 120.785C44.1814 120.476 44.3597 120.122 44.4643 119.744V119.744L45.3321 116.599C47.7416 116.818 50.17 116.512 52.4501 115.705L54.0874 118.539C54.2699 118.888 54.5194 119.197 54.8217 119.449C55.124 119.702 55.4732 119.892 55.8493 120.01C56.2254 120.128 56.6211 120.17 57.0137 120.136C57.4063 120.101 57.7882 119.989 58.1376 119.807C58.487 119.625 58.797 119.376 59.05 119.074C59.303 118.773 59.4939 118.425 59.6119 118.049C59.7299 117.674 59.7727 117.279 59.7378 116.888C59.7029 116.496 59.5911 116.115 59.4086 115.766C59.3758 115.705 59.339 115.644 59.3021 115.587L57.6894 112.753C59.5463 111.21 61.0473 109.285 62.0896 107.109L65.2373 107.975C65.6168 108.079 66.0131 108.108 66.4036 108.059C66.7942 108.01 67.1713 107.885 67.5134 107.691C67.8555 107.497 68.1559 107.238 68.3974 106.928C68.639 106.618 68.8169 106.263 68.9211 105.884V105.884C69.0263 105.507 69.0558 105.112 69.008 104.723C68.9602 104.334 68.836 103.958 68.6426 103.616C68.4491 103.275 68.1901 102.975 67.8804 102.734C67.5707 102.492 67.2164 102.314 66.8377 102.209L63.6859 101.344C63.9072 98.943 63.6042 96.5231 62.7977 94.2506L65.6384 92.6417C65.9904 92.4544 66.3014 92.1988 66.5531 91.8899C66.8048 91.5811 66.9922 91.2252 67.1041 90.8431C67.2161 90.4611 67.2504 90.0605 67.2051 89.6651C67.1598 89.2696 67.0358 88.8871 66.8404 88.5401C66.6449 88.1931 66.3819 87.8885 66.0669 87.6442C65.7519 87.4 65.3911 87.2209 65.0057 87.1176C64.6204 87.0144 64.2183 86.9889 63.823 87.0427C63.4276 87.0966 63.0471 87.2287 62.7036 87.4312H62.679L59.8383 89.0401C58.2914 87.1899 56.3617 85.6952 54.1816 84.6585L55.0493 81.5184C55.1543 81.14 55.1835 80.7448 55.1352 80.3552C55.0868 79.9656 54.9619 79.5893 54.7677 79.2479C54.5734 78.9066 54.3135 78.6068 54.0029 78.3657C53.6923 78.1247 53.3371 77.9471 52.9577 77.8432V77.8432C52.5782 77.7391 52.1819 77.7106 51.7913 77.7593C51.4008 77.808 51.0237 77.9331 50.6816 78.1272C50.3395 78.3214 50.0391 78.5809 49.7975 78.8909C49.556 79.2009 49.378 79.5553 49.2738 79.934V79.934L48.4102 83.0742C46.0025 82.8537 43.5756 83.156 41.2962 83.9603L39.6835 81.1263C39.4889 80.785 39.2288 80.4853 38.9181 80.2442C38.6074 80.0032 38.2522 79.8255 37.8726 79.7214C37.4931 79.6173 37.0968 79.5889 36.7062 79.6376C36.3157 79.6863 35.9385 79.8113 35.5964 80.0054C35.2543 80.1995 34.9538 80.459 34.7122 80.769C34.4706 81.0789 34.2925 81.4333 34.1882 81.812C34.0838 82.1906 34.0553 82.586 34.1041 82.9756C34.153 83.3652 34.2782 83.7415 34.4728 84.0828L36.1101 86.9126C34.2517 88.4553 32.7493 90.3803 31.7058 92.556L28.5582 91.6944C28.1795 91.5889 27.7837 91.559 27.3934 91.6065C27.0031 91.6539 26.626 91.7777 26.2838 91.9708C25.9416 92.1639 25.6409 92.4225 25.399 92.7317C25.1572 93.0409 24.9788 93.3947 24.8743 93.7729V93.7729C24.6612 94.5303 24.7556 95.341 25.1371 96.0295C25.5186 96.7181 26.1564 97.2291 26.9127 97.4521ZM50.0965 88.0846C52.424 88.7248 54.5089 90.0391 56.0875 91.8615C57.6662 93.6839 58.6676 95.9323 58.9652 98.3226C59.2628 100.713 58.8432 103.137 57.7594 105.29C56.6756 107.442 54.9764 109.225 52.8767 110.414C50.7769 111.603 48.3709 112.144 45.9631 111.968C43.5552 111.793 41.2535 110.909 39.3492 109.428C37.4449 107.947 36.0236 105.937 35.2648 103.65C34.5061 101.364 34.4442 98.904 35.0868 96.5823C35.9483 93.4701 38.0134 90.8266 40.8281 89.2331C43.6428 87.6396 46.9766 87.2264 50.0965 88.0846Z" stroke="white" stroke-width="2" stroke-miterlimit="10" stroke-linecap="round"/>
</g>
<g opacity="0.81">
<path opacity="0.81" d="M35.1971 47.6215H22.6924" stroke="white" stroke-width="2" stroke-miterlimit="10" stroke-linecap="round"/>
<path opacity="0.81" d="M35.1971 40.553H22.6924" stroke="white" stroke-width="2" stroke-miterlimit="10" stroke-linecap="round"/>
<path opacity="0.81" d="M63.8004 33.415H12.9138C12.5272 33.415 12.2139 33.7277 12.2139 34.1133V55.6455C12.2139 56.0311 12.5272 56.3437 12.9138 56.3437H63.8004C64.1869 56.3437 64.5003 56.0311 64.5003 55.6455V34.1133C64.5003 33.7277 64.1869 33.415 63.8004 33.415Z" stroke="white" stroke-width="2" stroke-miterlimit="10" stroke-linecap="round"/>
<g opacity="0.66">
<path opacity="0.66" d="M63.8004 33.415H12.9138C12.5272 33.415 12.2139 33.7277 12.2139 34.1133V55.6455C12.2139 56.0311 12.5272 56.3437 12.9138 56.3437H63.8004C64.1869 56.3437 64.5003 56.0311 64.5003 55.6455V34.1133C64.5003 33.7277 64.1869 33.415 63.8004 33.415Z" stroke="white" stroke-width="2" stroke-miterlimit="10" stroke-linecap="round"/>
</g>
<path opacity="0.81" d="M57.0793 51.0516H22.6924" stroke="white" stroke-width="2" stroke-miterlimit="10" stroke-linecap="round"/>
<path opacity="0.81" d="M57.0793 44.1913H22.6924" stroke="white" stroke-width="2" stroke-miterlimit="10" stroke-linecap="round"/>
<path opacity="0.81" d="M57.0791 47.6215H38.541" stroke="white" stroke-width="2" stroke-miterlimit="10" stroke-linecap="round"/>
<path opacity="0.81" d="M57.0791 40.553H38.541" stroke="white" stroke-width="2" stroke-miterlimit="10" stroke-linecap="round"/>
<path opacity="0.81" d="M57.0797 37.278H44.5791" stroke="white" stroke-width="2" stroke-miterlimit="10" stroke-linecap="round"/>
</g>
<path d="M76.6533 103.398C76.8292 104.109 76.7897 104.857 76.5396 105.547C76.2896 106.236 75.8403 106.836 75.2485 107.271C74.6567 107.706 73.9491 107.955 73.2149 107.989C72.4808 108.023 71.7532 107.838 71.1241 107.459C70.4949 107.081 69.9925 106.524 69.6802 105.86C69.368 105.197 69.26 104.456 69.3699 103.731C69.4798 103.006 69.8026 102.33 70.2976 101.788C70.7926 101.246 71.4375 100.863 72.1508 100.686C72.6249 100.569 73.1175 100.546 73.6005 100.619C74.0834 100.692 74.5473 100.859 74.9654 101.111C75.3836 101.363 75.7479 101.694 76.0375 102.087C76.3272 102.479 76.5364 102.924 76.6533 103.398V103.398Z" stroke="white" stroke-miterlimit="10"/>
<path d="M122.546 80.3301C122.451 79.9927 122.431 79.6386 122.488 79.2929C122.536 78.968 122.649 78.656 122.82 78.3754C122.99 78.0948 123.216 77.8514 123.483 77.6595L125.219 76.4344C124.523 74.9616 124.127 73.3652 124.056 71.7384L121.928 71.4077C121.274 71.304 120.686 70.9494 120.29 70.4195C120.095 70.1575 119.955 69.8593 119.877 69.5424C119.799 69.2254 119.785 68.8961 119.836 68.5737C119.946 67.9248 120.31 67.3458 120.847 66.9632C121.383 66.5807 122.05 66.4256 122.701 66.532L124.83 66.8628C125.395 65.335 126.259 63.9345 127.372 62.7425L126.103 61.0316C125.907 60.7702 125.765 60.4723 125.686 60.1555C125.607 59.8387 125.592 59.5093 125.642 59.1867C125.693 58.8641 125.807 58.5548 125.979 58.277C126.151 57.9991 126.377 57.7584 126.643 57.5688C127.182 57.1847 127.851 57.0269 128.505 57.1292C129.159 57.2315 129.747 57.5858 130.143 58.116L131.395 59.831C132.894 59.1507 134.51 58.7666 136.156 58.6999L136.483 56.6092C136.563 56.122 136.785 55.6692 137.122 55.3077C137.458 54.9462 137.895 54.6921 138.376 54.5773C138.857 54.4625 139.362 54.4922 139.826 54.6627C140.29 54.8331 140.694 55.1367 140.986 55.5352C141.181 55.7969 141.323 56.0949 141.402 56.4119C141.48 56.7289 141.495 57.0583 141.444 57.3809L141.117 59.4717C142.665 60.0272 144.09 60.8788 145.312 61.9789L147.048 60.7294C147.587 60.3453 148.255 60.1875 148.909 60.2898C149.564 60.3921 150.152 60.7464 150.547 61.2766C150.743 61.5378 150.884 61.8354 150.963 62.1518C151.041 62.4682 151.056 62.7971 151.006 63.1192C150.955 63.4413 150.841 63.7502 150.67 64.0277C150.498 64.3052 150.273 64.5457 150.007 64.7353L148.271 65.9807C148.967 67.4536 149.363 69.05 149.434 70.6767L151.562 71.0116C152.215 71.1113 152.802 71.4651 153.194 71.9955C153.586 72.5259 153.752 73.1896 153.654 73.8414C153.606 74.1666 153.493 74.4788 153.321 74.7594C153.15 75.04 152.923 75.2833 152.655 75.4748C152.119 75.8613 151.451 76.0199 150.797 75.9158L148.669 75.5851C148.102 77.1067 147.24 78.5014 146.131 79.689L147.4 81.404C147.595 81.6653 147.736 81.9628 147.815 82.2792C147.894 82.5956 147.908 82.9245 147.858 83.2466C147.808 83.5687 147.693 83.8776 147.522 84.1551C147.35 84.4326 147.125 84.6732 146.859 84.8627C146.32 85.2468 145.652 85.4046 144.997 85.3023C144.343 85.2 143.755 84.8457 143.36 84.3155L142.087 82.6005C140.589 83.2846 138.972 83.6689 137.326 83.7316L136.999 85.8223C136.897 86.4776 136.538 87.0655 136.001 87.4568C135.465 87.8481 134.794 88.0108 134.138 87.909C133.481 87.8072 132.892 87.4493 132.499 86.914C132.107 86.3787 131.944 85.7099 132.046 85.0546L132.374 82.9598C130.826 82.3973 129.404 81.5387 128.186 80.4321L126.451 81.6817C126.123 81.9183 125.742 82.0724 125.341 82.131C124.941 82.1896 124.532 82.151 124.149 82.0183C123.767 81.8857 123.422 81.6629 123.145 81.369C122.867 81.0751 122.664 80.7187 122.554 80.3301H122.546ZM125.984 76.6223L123.839 78.1658C123.639 78.3095 123.469 78.4915 123.34 78.7012C123.211 78.9109 123.125 79.144 123.087 79.3872C123.049 79.6303 123.059 79.8786 123.118 80.1175C123.177 80.3565 123.283 80.5814 123.43 80.7792C123.731 81.1807 124.178 81.4483 124.675 81.5246C125.171 81.601 125.678 81.48 126.086 81.1876L128.227 79.6481L128.411 79.8196C129.668 81.0065 131.166 81.9103 132.803 82.4698L133.041 82.5515L132.623 85.1486C132.567 85.6355 132.702 86.1253 132.999 86.5155C133.296 86.9057 133.734 87.1659 134.219 87.2419C134.704 87.3179 135.201 87.2036 135.603 86.923C136.006 86.6425 136.285 86.2173 136.381 85.7366L136.79 83.1436H137.044C138.774 83.1089 140.477 82.7051 142.038 81.9594L142.263 81.8491L143.83 83.9684C144.131 84.3698 144.578 84.6375 145.075 84.7138C145.572 84.7902 146.079 84.6692 146.487 84.3768C146.687 84.2331 146.857 84.0511 146.986 83.8414C147.115 83.6318 147.201 83.3986 147.239 83.1555C147.277 82.9123 147.267 82.664 147.208 82.4251C147.149 82.1861 147.043 81.9612 146.896 81.7634L145.324 79.644L145.504 79.4603C146.702 78.2299 147.615 76.7524 148.177 75.1318L148.263 74.895L150.883 75.3033C151.381 75.3824 151.89 75.262 152.299 74.9685C152.5 74.8249 152.671 74.6425 152.8 74.4321C152.93 74.2217 153.015 73.9875 153.052 73.7434C153.126 73.2491 153.001 72.7457 152.703 72.3438C152.405 71.9418 151.96 71.6742 151.464 71.5996L148.84 71.1913V70.9422C148.795 69.2297 148.376 67.5477 147.612 66.0134L147.498 65.7847L149.643 64.2412C149.843 64.0975 150.013 63.9155 150.142 63.7058C150.271 63.4962 150.357 63.263 150.395 63.0198C150.433 62.7767 150.422 62.5284 150.364 62.2895C150.305 62.0505 150.199 61.8256 150.052 61.6278C149.751 61.2264 149.304 60.9587 148.807 60.8824C148.311 60.806 147.804 60.927 147.396 61.2194L145.255 62.7589L145.071 62.5874C143.814 61.4005 142.316 60.4967 140.679 59.9372L140.441 59.8555L140.851 57.2666C140.889 57.0234 140.879 56.7748 140.82 56.5357C140.761 56.2966 140.654 56.0716 140.507 55.8741C140.209 55.4754 139.77 55.2063 139.279 55.1228C138.784 55.0437 138.279 55.1629 137.872 55.4544C137.466 55.7459 137.192 56.186 137.109 56.6786L136.7 59.2716H136.446C134.715 59.3056 133.012 59.7109 131.453 60.4599L131.227 60.5661L129.66 58.4508C129.359 58.0494 128.912 57.7818 128.415 57.7055C127.918 57.6291 127.411 57.7501 127.003 58.0425C126.803 58.1862 126.633 58.3682 126.504 58.5778C126.375 58.7875 126.289 59.0207 126.251 59.2638C126.213 59.5069 126.224 59.7552 126.282 59.9942C126.341 60.2332 126.447 60.4581 126.594 60.6559L128.166 62.7752L127.986 62.959C126.791 64.1889 125.882 65.665 125.321 67.2834L125.235 67.5202L122.615 67.1119C122.121 67.0328 121.616 67.152 121.209 67.4435C120.803 67.735 120.528 68.1751 120.446 68.6677C120.407 68.9109 120.418 69.1594 120.477 69.3986C120.536 69.6377 120.642 69.8627 120.79 70.0601C121.086 70.4598 121.526 70.7291 122.018 70.8115L124.641 71.2198V71.4689C124.686 73.1815 125.105 74.8637 125.869 76.3977L125.984 76.6223ZM127.797 73.5923C127.299 71.8012 127.364 69.9005 127.984 68.1476C128.604 66.3947 129.749 64.8742 131.264 63.792C133.258 62.3654 135.734 61.7774 138.158 62.1547C140.582 62.5321 142.76 63.8445 144.223 65.8092C144.945 66.7761 145.466 67.877 145.755 69.0473C146.045 70.2176 146.097 71.4338 145.91 72.6246C145.519 75.0347 144.185 77.1914 142.201 78.6209C140.217 80.0505 137.745 80.6358 135.329 80.2484C133.565 79.9779 131.917 79.2064 130.581 78.026C129.246 76.8456 128.279 75.3063 127.797 73.5923ZM145.107 68.9698C144.724 67.6237 144.02 66.3897 143.057 65.3722C142.094 64.3547 140.899 63.5838 139.574 63.1246C138.249 62.6655 136.832 62.5317 135.444 62.7346C134.056 62.9375 132.737 63.4711 131.6 64.2902C130.682 64.9445 129.904 65.7754 129.313 66.7341C128.722 67.6928 128.329 68.7598 128.158 69.8723C127.803 72.1417 128.366 74.4589 129.723 76.314C131.081 78.1692 133.121 79.4104 135.396 79.7645C137.671 80.1186 139.994 79.5567 141.853 78.2024C143.713 76.8481 144.957 74.8123 145.312 72.5429C145.5 71.3509 145.43 70.1328 145.107 68.9698Z" fill="white"/>
<path d="M118.596 46.7068C118.474 46.2687 118.531 45.8002 118.754 45.4038C118.977 45.0073 119.349 44.7153 119.787 44.5915L121.056 44.2363C120.973 43.2134 121.085 42.1841 121.384 41.2023L120.221 40.5611C120.02 40.452 119.842 40.3041 119.698 40.1261C119.554 39.9481 119.447 39.7435 119.382 39.5239C119.31 39.304 119.285 39.0711 119.31 38.8409C119.335 38.6107 119.408 38.3884 119.525 38.1886C119.637 37.9903 119.786 37.816 119.965 37.6758C120.144 37.5356 120.35 37.4323 120.569 37.372C120.789 37.309 121.02 37.29 121.247 37.3159C121.475 37.3418 121.695 37.4122 121.895 37.523L123.058 38.1641C123.732 37.3891 124.546 36.7465 125.457 36.2694L125.084 35.0117C124.956 34.5704 125.008 34.0965 125.227 33.6927C125.337 33.494 125.485 33.3193 125.664 33.179C125.843 33.0387 126.048 32.9356 126.267 32.8761C126.713 32.7519 127.189 32.8073 127.594 33.0303C127.999 33.2533 128.3 33.6261 128.432 34.0684L128.805 35.3302C129.841 35.26 130.882 35.3804 131.875 35.6855L132.509 34.5421C132.619 34.3439 132.768 34.1696 132.947 34.0294C133.125 33.8892 133.33 33.7859 133.549 33.7254C133.994 33.6023 134.47 33.6582 134.875 33.8811C135.28 34.104 135.581 34.4761 135.714 34.9178C135.78 35.136 135.801 35.3652 135.776 35.5918C135.752 35.8183 135.682 36.0377 135.571 36.2367L134.936 37.3801C135.726 38.0542 136.384 38.8682 136.877 39.7812L138.15 39.4219C138.595 39.2978 139.071 39.3533 139.475 39.5764C139.879 39.7995 140.179 40.1723 140.311 40.6142C140.375 40.8326 140.396 41.0616 140.371 41.288C140.347 41.5144 140.277 41.7337 140.167 41.9332C140.057 42.1314 139.908 42.3057 139.73 42.4459C139.551 42.5861 139.347 42.6894 139.128 42.7499L137.859 43.1051C137.941 44.128 137.83 45.1572 137.531 46.1392L138.694 46.7803C138.895 46.8895 139.073 47.0373 139.217 47.2153C139.361 47.3933 139.469 47.598 139.533 47.8175C139.6 48.0355 139.623 48.2649 139.598 48.4917C139.573 48.7185 139.502 48.9379 139.39 49.1364C139.278 49.3359 139.129 49.5114 138.949 49.653C138.77 49.7947 138.564 49.8996 138.344 49.9618C138.124 50.024 137.894 50.0423 137.666 50.0156C137.439 49.9888 137.219 49.9177 137.02 49.8061L135.857 49.1691C135.183 49.9442 134.37 50.5868 133.459 51.0638L133.835 52.3215C133.962 52.763 133.911 53.2365 133.692 53.6405C133.58 53.8384 133.431 54.0124 133.252 54.1525C133.073 54.2927 132.867 54.3962 132.648 54.4572C132.203 54.5814 131.726 54.526 131.321 54.3029C130.916 54.0799 130.615 53.7071 130.483 53.2648L130.11 51.9989C129.074 52.0726 128.033 51.9535 127.041 51.6478L126.41 52.7911C126.24 53.0895 125.986 53.3313 125.679 53.4866C125.372 53.6419 125.026 53.7038 124.684 53.6647C124.342 53.6255 124.019 53.487 123.756 53.2664C123.492 53.0457 123.299 52.7527 123.201 52.4236C123.135 52.2055 123.113 51.9762 123.138 51.7495C123.162 51.5229 123.233 51.3035 123.344 51.1047L123.979 49.9613C123.19 49.2863 122.532 48.4724 122.039 47.5602L120.766 47.9196C120.321 48.0425 119.845 47.9865 119.441 47.7636C119.037 47.5406 118.737 47.1686 118.605 46.7272L118.596 46.7068ZM122.116 40.9164L122.035 41.1532C121.679 42.2034 121.559 43.3185 121.683 44.42L121.707 44.6732L119.935 45.1714C119.65 45.2523 119.408 45.4424 119.263 45.7003C119.119 45.9581 119.082 46.2627 119.161 46.5475C119.249 46.8372 119.446 47.0813 119.711 47.2278C119.977 47.3743 120.289 47.4115 120.582 47.3315L122.333 46.8374L122.444 47.0579C122.945 48.0597 123.657 48.9415 124.531 49.6428L124.728 49.802L123.852 51.3864C123.779 51.5157 123.733 51.6584 123.718 51.8059C123.703 51.9534 123.717 52.1025 123.762 52.244C123.848 52.5344 124.045 52.7794 124.31 52.9259C124.574 53.0724 124.885 53.1087 125.175 53.0268C125.465 52.9448 125.71 52.7514 125.858 52.489L126.734 50.9087L126.975 50.9903C128.036 51.3522 129.163 51.4818 130.278 51.3701L130.528 51.3456L131.044 53.0851C131.129 53.376 131.327 53.6215 131.592 53.7683C131.858 53.9151 132.172 53.9513 132.464 53.8692C132.749 53.7883 132.99 53.5981 133.135 53.3403C133.28 53.0825 133.317 52.7779 133.238 52.493L132.722 50.7453L132.951 50.6351C133.952 50.1517 134.834 49.4546 135.534 48.5933L135.694 48.3973L137.298 49.2794C137.561 49.4251 137.871 49.4614 138.161 49.3803C138.451 49.2993 138.697 49.1075 138.845 48.8465C138.92 48.718 138.967 48.5751 138.982 48.4274C138.998 48.2796 138.982 48.1302 138.935 47.989C138.893 47.8449 138.823 47.7105 138.729 47.5934C138.635 47.4764 138.519 47.3791 138.387 47.307L136.786 46.425L136.864 46.1882C137.219 45.138 137.34 44.0229 137.216 42.9214L137.192 42.6682L138.948 42.17C139.091 42.131 139.224 42.0635 139.34 41.9715C139.456 41.8796 139.553 41.7652 139.623 41.6351C139.765 41.3799 139.801 41.079 139.721 40.798C139.635 40.5077 139.437 40.2629 139.172 40.1163C138.906 39.9696 138.593 39.9329 138.301 40.014L136.549 40.5081L136.439 40.2876C135.937 39.2853 135.225 38.4024 134.351 37.6986L134.155 37.5394L135.03 35.955C135.103 35.8262 135.148 35.6842 135.163 35.5375C135.179 35.3908 135.164 35.2425 135.121 35.1015C135.079 34.9572 135.009 34.8225 134.915 34.7054C134.821 34.5882 134.704 34.4911 134.572 34.4196C134.306 34.2728 133.993 34.2361 133.7 34.3175C133.558 34.3572 133.424 34.425 133.308 34.5168C133.192 34.6087 133.096 34.7228 133.025 34.8525L132.149 36.4368L131.907 36.3552C130.846 35.9933 129.72 35.8637 128.604 35.9754L128.354 35.9999L127.839 34.2563C127.752 33.9661 127.555 33.7216 127.289 33.5756C127.023 33.4297 126.71 33.394 126.418 33.4763C126.276 33.516 126.142 33.5838 126.026 33.6756C125.91 33.7675 125.814 33.8816 125.743 34.0113C125.6 34.2736 125.566 34.5817 125.649 34.8688L126.169 36.6124L125.935 36.7268C124.935 37.2102 124.053 37.9072 123.353 38.7685L123.193 38.9645L121.588 38.0825C121.324 37.9355 121.012 37.8988 120.721 37.9804C120.578 38.0206 120.444 38.0886 120.328 38.1804C120.211 38.2722 120.114 38.386 120.041 38.5153C119.968 38.6445 119.922 38.7872 119.907 38.9348C119.891 39.0823 119.906 39.2314 119.951 39.3729C120.037 39.6633 120.234 39.9083 120.5 40.0548L122.116 40.9164ZM123.5 45.249C123.064 43.717 123.256 42.075 124.032 40.6836C124.635 39.6271 125.536 38.7708 126.623 38.2212C127.71 37.6717 128.935 37.4532 130.146 37.5929C131.356 37.7326 132.499 38.2243 133.432 39.0069C134.364 39.7896 135.045 40.8285 135.391 41.9944C135.622 42.7663 135.696 43.5763 135.61 44.3772C135.523 45.178 135.278 45.9537 134.888 46.6589C134.497 47.3641 133.97 47.9846 133.337 48.4843C132.704 48.984 131.977 49.3529 131.199 49.5693C129.621 50.0112 127.932 49.8161 126.497 49.0261C125.062 48.2361 123.995 46.9146 123.529 45.347C123.517 45.3149 123.508 45.2822 123.5 45.249ZM134.834 42.2721L134.809 42.1864C134.496 41.1385 133.882 40.2052 133.042 39.5019C132.203 38.7986 131.175 38.3562 130.086 38.2293C128.998 38.1025 127.896 38.2967 126.916 38.7881C125.937 39.2795 125.124 40.0464 124.576 40.994C124.225 41.6294 124.005 42.3281 123.927 43.0494C123.849 43.7708 123.915 44.5004 124.122 45.1959C124.541 46.6133 125.505 47.808 126.803 48.5198C128.099 49.2376 129.626 49.4138 131.052 49.0098C132.448 48.615 133.63 47.684 134.339 46.421C135.048 45.1579 135.226 43.6659 134.834 42.2721Z" fill="white"/>
<path opacity="0.81" d="M130.081 112.887H142.582" stroke="white" stroke-width="2" stroke-miterlimit="10" stroke-linecap="round"/>
<path opacity="0.81" d="M130.081 119.956H142.582" stroke="white" stroke-width="2" stroke-miterlimit="10" stroke-linecap="round"/>
<path opacity="0.66" d="M152.365 104.165H101.478C101.092 104.165 100.778 104.478 100.778 104.863V126.395C100.778 126.781 101.092 127.094 101.478 127.094H152.365C152.751 127.094 153.065 126.781 153.065 126.395V104.863C153.065 104.478 152.751 104.165 152.365 104.165Z" stroke="white" stroke-width="2" stroke-miterlimit="10" stroke-linecap="round"/>
<path opacity="0.81" d="M108.195 109.457H142.582" stroke="white" stroke-width="2" stroke-miterlimit="10" stroke-linecap="round"/>
<path opacity="0.81" d="M108.195 116.317H142.582" stroke="white" stroke-width="2" stroke-miterlimit="10" stroke-linecap="round"/>
<path opacity="0.81" d="M108.195 112.887H126.733" stroke="white" stroke-width="2" stroke-miterlimit="10" stroke-linecap="round"/>
<path opacity="0.81" d="M108.195 119.956H126.733" stroke="white" stroke-width="2" stroke-miterlimit="10" stroke-linecap="round"/>
<path opacity="0.81" d="M108.195 123.231H120.7" stroke="white" stroke-width="2" stroke-miterlimit="10" stroke-linecap="round"/>
<path d="M114.349 42.2407L62.0097 40.6363C61.6527 40.6253 61.3544 40.9052 61.3434 41.2613L59.1561 112.276C59.1451 112.632 59.4257 112.93 59.7827 112.941L112.122 114.545C112.479 114.556 112.777 114.276 112.788 113.92L114.976 42.9054C114.987 42.5493 114.706 42.2517 114.349 42.2407Z" fill="#FFD252"/>
<path d="M104.769 36.6252L53.648 47.9409C53.2993 48.0181 53.0793 48.3626 53.1567 48.7105L68.5831 118.072C68.6605 118.42 69.0059 118.639 69.3546 118.562L120.476 107.246C120.824 107.169 121.044 106.825 120.967 106.477L105.54 37.1153C105.463 36.7674 105.118 36.548 104.769 36.6252Z" fill="white"/>
<path d="M120.446 108.285L120.282 108.326L69.9975 119.45C69.4591 119.568 68.8958 119.468 68.4309 119.173C67.966 118.877 67.6373 118.41 67.517 117.873L52.2576 49.3406C52.1392 48.8035 52.2391 48.2415 52.5352 47.7777C52.8313 47.3139 53.2996 46.986 53.8375 46.866L104.139 35.7385C104.405 35.6795 104.681 35.6735 104.95 35.7207C105.219 35.768 105.476 35.8677 105.706 36.0141C105.937 36.1604 106.136 36.3506 106.292 36.5738C106.449 36.797 106.56 37.0487 106.619 37.3147L121.862 105.852C121.979 106.363 121.898 106.899 121.635 107.353C121.372 107.808 120.948 108.146 120.446 108.302V108.285ZM54.2714 48.8424C54.2587 48.8462 54.2479 48.8546 54.2411 48.8659C54.2343 48.8772 54.232 48.8907 54.2346 48.9036L69.4776 117.445C69.4821 117.458 69.4909 117.47 69.5028 117.478C69.5146 117.486 69.5288 117.49 69.5431 117.49L119.844 106.354C119.857 106.349 119.868 106.34 119.876 106.328C119.883 106.316 119.886 106.302 119.885 106.289L104.642 37.7476C104.641 37.7405 104.638 37.7338 104.634 37.7279C104.63 37.722 104.624 37.717 104.618 37.7131C104.612 37.7093 104.605 37.7068 104.598 37.7057C104.591 37.7046 104.584 37.7049 104.577 37.7068L54.2755 48.8383L54.2714 48.8424Z" fill="#A4BDF1"/>
<path d="M100.639 50.1981H100.586L87.8441 53.0198C87.6723 53.0504 87.4954 53.0136 87.3503 52.917C87.2052 52.8204 87.1032 52.6715 87.0656 52.5016C87.0281 52.3317 87.0579 52.1538 87.1488 52.0053C87.2397 51.8568 87.3847 51.7492 87.5534 51.7049L100.287 48.8955C100.459 48.8555 100.639 48.8837 100.789 48.9742C100.94 49.0647 101.05 49.2103 101.094 49.3799C101.139 49.5496 101.116 49.7301 101.029 49.8829C100.943 50.0357 100.8 50.1488 100.631 50.1981H100.639Z" fill="#FFD252"/>
<path d="M101.544 54.2572H101.491L88.7485 57.0747C88.6605 57.0978 88.5688 57.1029 88.4788 57.0898C88.3887 57.0766 88.3023 57.0454 88.2247 56.9981C88.1471 56.9508 88.0798 56.8883 88.027 56.8145C87.9741 56.7406 87.9368 56.6568 87.9172 56.5682C87.8976 56.4796 87.8962 56.3879 87.913 56.2987C87.9298 56.2095 87.9645 56.1246 88.015 56.0491C88.0655 55.9737 88.1307 55.9091 88.2068 55.8594C88.2829 55.8097 88.3683 55.7758 88.4579 55.7599L101.2 52.9423C101.367 52.9125 101.539 52.9465 101.682 53.0375C101.825 53.1285 101.928 53.2699 101.972 53.4335C102.015 53.5971 101.995 53.7709 101.916 53.9205C101.837 54.0701 101.704 54.1844 101.544 54.2408V54.2572Z" fill="#FFD252"/>
<path d="M85.5512 105.803H85.498L72.7559 108.624C72.6688 108.645 72.5783 108.649 72.4897 108.635C72.4012 108.62 72.3164 108.589 72.2403 108.542C72.1642 108.494 72.0983 108.432 72.0464 108.359C71.9945 108.286 71.9577 108.204 71.9381 108.117C71.9186 108.029 71.9166 107.939 71.9324 107.851C71.9482 107.763 71.9814 107.679 72.0301 107.604C72.0788 107.529 72.142 107.464 72.216 107.413C72.29 107.363 72.3734 107.328 72.4612 107.31L85.2033 104.488C85.3765 104.442 85.5609 104.466 85.7159 104.556C85.871 104.646 85.984 104.793 86.0301 104.966C86.0763 105.138 86.0517 105.322 85.9619 105.477C85.8721 105.632 85.7244 105.744 85.5512 105.791V105.803Z" fill="#FFD252"/>
<path d="M79.4606 84.0787H79.4074L68.0775 86.586C67.9057 86.6166 67.7288 86.5797 67.5837 86.4832C67.4386 86.3866 67.3366 86.2377 67.299 86.0678C67.2615 85.8978 67.2913 85.72 67.3822 85.5715C67.4731 85.423 67.6181 85.3153 67.7868 85.2711L79.1168 82.7638C79.2881 82.7238 79.4682 82.7521 79.6189 82.8426C79.7696 82.933 79.879 83.0786 79.9238 83.2483C79.9686 83.418 79.9452 83.5984 79.8587 83.7512C79.7722 83.904 79.6294 84.0171 79.4606 84.0664V84.0787Z" fill="#A4BDF1"/>
<path d="M90.9671 97.3378H90.9139L71.4303 101.65C71.3426 101.67 71.2518 101.673 71.163 101.658C71.0742 101.644 70.9893 101.611 70.9131 101.563C70.8369 101.516 70.7711 101.453 70.7193 101.38C70.6676 101.306 70.631 101.223 70.6117 101.135C70.5899 101.048 70.586 100.957 70.6001 100.869C70.6142 100.78 70.6461 100.695 70.6938 100.619C70.7416 100.543 70.8042 100.477 70.878 100.425C70.9518 100.374 71.0352 100.337 71.1233 100.319L90.6069 96.0025C90.6926 95.9797 90.782 95.974 90.87 95.9856C90.9579 95.9973 91.0427 96.0262 91.1195 96.0705C91.1963 96.1149 91.2635 96.1739 91.3174 96.2442C91.3714 96.3145 91.4109 96.3947 91.4337 96.4802C91.4565 96.5658 91.4623 96.6549 91.4506 96.7427C91.4389 96.8304 91.41 96.915 91.3655 96.9916C91.321 97.0682 91.2619 97.1353 91.1914 97.1891C91.1209 97.2429 91.0405 97.2823 90.9548 97.3051L90.9671 97.3378Z" fill="#A4BDF1"/>
<path d="M84.5566 90.8654H84.5034L69.7679 94.1321C69.5962 94.1628 69.4192 94.1259 69.2741 94.0294C69.129 93.9328 69.027 93.7839 68.9895 93.614C68.9519 93.444 68.9817 93.2662 69.0726 93.1177C69.1636 92.9692 69.3086 92.8615 69.4773 92.8173L84.2128 89.5505C84.384 89.5105 84.5642 89.5388 84.7149 89.6292C84.8656 89.7197 84.975 89.8653 85.0198 90.035C85.0645 90.2047 85.0412 90.3851 84.9547 90.5379C84.8682 90.6907 84.7254 90.8038 84.5566 90.8531V90.8654Z" fill="#A4BDF1"/>
<path d="M104.679 71.228H104.625L66.481 79.6685C66.3936 79.6896 66.3029 79.6931 66.2141 79.6788C66.1253 79.6644 66.0403 79.6326 65.9641 79.585C65.8878 79.5375 65.8219 79.4752 65.7701 79.4019C65.7182 79.3286 65.6816 79.2457 65.6624 79.1581C65.6394 79.0708 65.6346 78.9798 65.6482 78.8906C65.6618 78.8015 65.6935 78.716 65.7414 78.6395C65.7893 78.563 65.8524 78.4971 65.9268 78.4458C66.0012 78.3946 66.0853 78.359 66.174 78.3414L104.323 69.9008C104.49 69.8711 104.662 69.9051 104.805 69.9961C104.948 70.0871 105.051 70.2284 105.094 70.392C105.138 70.5556 105.118 70.7295 105.038 70.8791C104.959 71.0287 104.826 71.143 104.666 71.1994L104.679 71.228Z" fill="#A4BDF1"/>
<path d="M107.471 85.7202H107.418L89.1909 89.7547C89.1029 89.7778 89.0111 89.7829 88.9211 89.7697C88.8311 89.7566 88.7447 89.7254 88.6671 89.6781C88.5894 89.6308 88.5222 89.5683 88.4694 89.4944C88.4165 89.4206 88.3792 89.3368 88.3596 89.2482C88.34 89.1596 88.3386 89.0679 88.3554 88.9787C88.3722 88.8895 88.4068 88.8046 88.4573 88.7291C88.5078 88.6536 88.5731 88.5891 88.6492 88.5394C88.7253 88.4897 88.8107 88.4558 88.9003 88.4398L107.127 84.4054C107.299 84.3654 107.479 84.3936 107.629 84.4841C107.78 84.5746 107.889 84.7202 107.934 84.8898C107.979 85.0595 107.956 85.24 107.869 85.3928C107.783 85.5455 107.64 85.6586 107.471 85.708V85.7202Z" fill="#A4BDF1"/>
<path d="M107.066 77.9657H107.012L83.6034 83.0415C83.4328 83.069 83.2581 83.0302 83.1153 82.9331C82.9725 82.836 82.8724 82.6879 82.8357 82.5195C82.799 82.351 82.8284 82.1749 82.9179 82.0274C83.0074 81.8799 83.1502 81.7722 83.3169 81.7266L106.722 76.6508C106.889 76.6211 107.061 76.6551 107.204 76.7461C107.347 76.8371 107.45 76.9784 107.494 77.142C107.537 77.3056 107.517 77.4795 107.438 77.6291C107.358 77.7787 107.226 77.893 107.066 77.9494V77.9657Z" fill="#A4BDF1"/>
</g>
<defs>
<clipPath id="clip0">
<rect width="185" height="154" fill="white"/>
</clipPath>
</defs>
</svg>
