<svg width="40" height="40" viewBox="0 0 40 40" fill="none" xmlns="http://www.w3.org/2000/svg">
<rect width="40" height="40" rx="4" fill="white"/>
<path d="M31.1977 23.4979C30.6447 23.1689 29.9272 23.3509 29.5993 23.905C29.2703 24.4592 29.4523 25.1755 30.0065 25.5034C31.0763 26.1392 31.6667 26.8287 31.6667 27.4447C31.6667 29.0979 27.1213 31.5 20 31.5C12.8787 31.5 8.33333 29.0979 8.33333 27.4447C8.33333 26.8287 8.92367 26.1392 9.99467 25.5022C10.5488 25.1744 10.7308 24.4569 10.4018 23.9039C10.074 23.3497 9.3565 23.1642 8.8035 23.4967C6.4865 24.8722 6 26.404 6 27.4447C6 31.5945 13.2135 33.8333 20 33.8333C26.7865 33.8333 34 31.5945 34 27.4447C34 26.404 33.5135 24.8722 31.1977 23.4979Z" fill="#3B7CFF" fill-opacity="0.8"/>
<path d="M17.3735 17.4942C17.2603 16.8607 16.6653 16.4337 16.0213 16.5504C13.2785 17.0369 11.9193 17.9002 11.847 19.1812C11.8447 19.2045 11.833 19.2255 11.833 19.25V25.9584C11.833 28.1739 15.935 29.1667 19.9997 29.1667C24.0643 29.1667 28.1663 28.1739 28.1663 25.9584V19.25C28.1663 19.2255 28.1547 19.2045 28.1523 19.1812C28.08 17.9002 26.7208 17.0369 23.978 16.5504C23.334 16.4302 22.7378 16.8619 22.6258 17.4954C22.5127 18.13 22.9362 18.7344 23.5708 18.8475C24.3898 18.9934 24.958 19.1625 25.336 19.3084C24.4423 19.6525 22.6223 20.0317 19.9997 20.0317C17.377 20.0317 15.557 19.6525 14.6645 19.3072C15.0413 19.1614 15.6107 18.9922 16.4297 18.8464C17.0632 18.7344 17.4867 18.1289 17.3735 17.4942Z" fill="#3B7CFF" fill-opacity="0.8"/>
<path d="M19.1733 17.2842C19.6353 17.7835 20.4251 17.78 20.8825 17.2772L23.854 14.0082C24.0885 13.7515 24.1503 13.3828 24.0103 13.0643C23.8703 12.7458 23.5565 12.5417 23.2088 12.5417H20.8755V7.875C20.8755 7.392 20.4835 7 20.0005 7C19.5175 7 19.1255 7.392 19.1255 7.875V12.5417H16.7921C16.4445 12.5417 16.1318 12.747 15.9906 13.0643C15.8495 13.3817 15.9125 13.7515 16.147 14.0082L19.1733 17.2842Z" fill="#3B7CFF" fill-opacity="0.8"/>
</svg>
