<svg width="41" height="46" viewBox="0 0 41 46" fill="none" xmlns="http://www.w3.org/2000/svg">
<path d="M-0.000976562 30.4708V14.9812C-0.000670818 13.8386 0.29863 12.716 0.867184 11.7249C1.43574 10.7339 2.25375 9.90882 3.23993 9.33181L17.0555 1.23128C18.0712 0.636228 19.2285 0.326023 20.4057 0.333317C21.5829 0.340611 22.7363 0.665133 23.7445 1.27272L37.0996 9.32029C38.0662 9.90281 38.8658 10.7252 39.4209 11.7078C39.976 12.6904 40.2678 13.7997 40.268 14.9283V30.5237C40.2678 31.6523 39.976 32.7616 39.4209 33.7442C38.8658 34.7268 38.0662 35.5492 37.0996 36.1317L23.7445 44.1793C22.7363 44.7869 21.5829 45.1114 20.4057 45.1187C19.2285 45.126 18.0712 44.8158 17.0555 44.2207L3.23993 36.1202C2.25375 35.5432 1.43574 34.7181 0.867184 33.7271C0.29863 32.736 -0.000670818 31.6134 -0.000976562 30.4708Z" fill="url(#paint0_linear)"/>
<path fill-rule="evenodd" clip-rule="evenodd" d="M7.64471 30.2963H11.6617C12.1054 30.2963 12.4651 30.6484 12.4651 31.0826C12.4651 31.5169 12.1054 31.8689 11.6617 31.8689H7.64471C7.201 31.8689 6.84131 31.5169 6.84131 31.0826C6.84131 30.6484 7.201 30.2963 7.64471 30.2963Z" fill="url(#paint1_linear)"/>
<path fill-rule="evenodd" clip-rule="evenodd" d="M3.62811 27.9384H7.6451C8.08881 27.9384 8.4485 28.2905 8.4485 28.7247C8.4485 29.159 8.08881 29.511 7.6451 29.511H3.62811C3.1844 29.511 2.82471 29.159 2.82471 28.7247C2.82471 28.2905 3.1844 27.9384 3.62811 27.9384Z" fill="url(#paint2_linear)"/>
<path d="M31.35 25.2794L31.9086 23.9493C31.9836 23.7611 32.1196 23.6035 32.2949 23.5018C32.4701 23.4001 32.6745 23.3602 32.8751 23.3885C33.0637 23.4136 33.2393 23.4987 33.3758 23.6312C33.5123 23.7638 33.6026 23.9367 33.6333 24.1245C33.6654 24.3057 33.643 24.4924 33.569 24.6609L33.0214 25.9534L32.7554 26.5209C31.8465 28.6786 30.9361 30.8363 30.0243 32.994C29.7871 33.5571 29.5499 34.1224 29.3105 34.6855C29.1747 35 28.9956 35.294 28.7784 35.5589C28.6485 35.6961 28.4991 35.8133 28.335 35.907C28.1864 36.019 28.0267 36.1156 27.8584 36.1952C27.6349 36.2922 27.398 36.355 27.1557 36.3814C26.7658 36.4255 26.3713 36.4015 25.9896 36.3104C25.7669 36.2544 25.5559 36.159 25.3667 36.0289C25.2536 35.9535 25.145 35.8826 25.0209 35.8072C24.8265 35.6326 24.6512 35.4379 24.4977 35.2264C24.3986 35.0991 24.3235 34.9549 24.276 34.8008L22.5558 30.7262C21.9483 29.2897 21.3402 27.8525 20.7313 26.4145C20.7236 26.3812 20.7049 26.3515 20.6781 26.3302L20.3345 27.1394L17.7253 33.3266C17.5368 33.7699 17.344 34.2133 17.16 34.6567C17.0995 34.8511 17.0122 35.0361 16.9006 35.2064C16.7853 35.3505 16.6789 35.4946 16.5503 35.6365C16.4716 35.7168 16.3829 35.7869 16.2865 35.8449C16.093 36.0001 15.8807 36.1305 15.6547 36.2328C15.4006 36.3343 15.132 36.3949 14.8589 36.4124C14.5203 36.4322 14.1806 36.4031 13.8502 36.3259C13.5274 36.2404 13.2256 36.0895 12.9635 35.8826C12.8992 35.836 12.8305 35.7961 12.7662 35.7473C12.7017 35.7053 12.6459 35.6511 12.6022 35.5877C12.4035 35.3354 12.2298 35.0644 12.0834 34.7786C11.6822 33.7145 11.2233 32.677 10.7821 31.6285C10.7307 31.5199 10.7015 31.4021 10.6962 31.282C10.6909 31.162 10.7096 31.0421 10.7513 30.9294C10.793 30.8167 10.8567 30.7134 10.9388 30.6257C11.021 30.538 11.1198 30.4675 11.2295 30.4185C11.3392 30.3695 11.4576 30.3429 11.5777 30.3402C11.6978 30.3376 11.8173 30.359 11.9291 30.4031C12.0408 30.4473 12.1426 30.5133 12.2285 30.5973C12.3144 30.6814 12.3827 30.7817 12.4292 30.8925C12.7972 31.7792 13.1963 32.646 13.5377 33.5527C13.6006 33.7279 13.6746 33.899 13.7593 34.0648C13.8429 34.2178 13.9577 34.3515 14.0963 34.4571C14.2469 34.5789 14.4372 34.6405 14.6306 34.6301C14.7979 34.6289 14.961 34.5771 15.0983 34.4815C15.2867 34.3448 15.432 34.1572 15.5173 33.9406L16.7543 31.01L19.8579 23.6767C19.9245 23.5079 20.0404 23.363 20.1904 23.261C20.3404 23.1589 20.5177 23.1043 20.6992 23.1043C20.8806 23.1043 21.0579 23.1589 21.2079 23.261C21.358 23.363 21.4738 23.5079 21.5405 23.6767L23.8681 29.1855C24.5509 30.7979 25.2315 32.4095 25.9098 34.0204C26.0081 34.2604 26.1934 34.4544 26.4286 34.5636C26.5604 34.6271 26.7066 34.6548 26.8525 34.6439C26.9985 34.633 27.139 34.5839 27.2599 34.5015C27.4738 34.3538 27.6341 34.1406 27.7166 33.8941L30.9886 26.1351L31.35 25.2794Z" fill="white"/>
<path d="M35.4727 15.45C35.6035 15.1419 35.7342 14.8337 35.8628 14.5234C35.9578 14.3232 35.9773 14.0955 35.9179 13.8821C35.8584 13.6687 35.7239 13.484 35.5392 13.3617C35.348 13.2291 35.1141 13.1728 34.8835 13.204C34.6529 13.2351 34.4424 13.3515 34.2933 13.5302C34.2406 13.5984 34.1967 13.6728 34.1625 13.7519C33.4487 15.4411 32.7341 17.1311 32.0188 18.8218L30.0237 23.5503C29.3498 25.1346 28.6766 26.7137 28.0041 28.2877C27.8667 28.6114 27.7293 28.9395 27.5896 29.2631C27.5222 29.4305 27.4063 29.5739 27.2568 29.6749C27.1073 29.7759 26.931 29.8299 26.7505 29.8299C26.5701 29.8299 26.3938 29.7759 26.2442 29.6749C26.0947 29.5739 25.9788 29.4305 25.9114 29.2631C24.5695 26.0753 23.2298 22.8875 21.8923 19.6997C21.797 19.478 21.6995 19.2452 21.6041 19.0169C21.5363 18.8306 21.4111 18.6705 21.2466 18.5598C21.0821 18.4491 20.8867 18.3933 20.6886 18.4006C20.4892 18.3969 20.2935 18.4539 20.1272 18.564C19.9609 18.674 19.832 18.832 19.7575 19.0169C19.2535 20.2081 18.7525 21.4 18.2545 22.5926C17.3219 24.8095 16.3894 27.0263 15.4569 29.2432C15.3988 29.4122 15.2899 29.5592 15.145 29.664C15.0002 29.7688 14.8265 29.8262 14.6477 29.8284C14.4737 29.8433 14.2994 29.8037 14.1488 29.7151C13.9983 29.6265 13.879 29.4934 13.8075 29.334C13.6767 29.0769 13.5858 28.8042 13.4661 28.5382C11.7636 24.4962 10.064 20.4541 8.3674 16.4121L7.27006 13.8073C7.19928 13.6211 7.0727 13.4613 6.90762 13.3498C6.74254 13.2383 6.54704 13.1805 6.34786 13.1844C6.2273 13.1841 6.1079 13.2079 5.99671 13.2545C5.88551 13.3011 5.78479 13.3695 5.70047 13.4557C5.61616 13.5418 5.54996 13.644 5.50581 13.7562C5.46165 13.8684 5.44043 13.9883 5.44339 14.1088C5.4474 14.2327 5.47525 14.3546 5.52541 14.4679C6.50673 16.8089 7.48954 19.1499 8.47382 21.4909L10.4512 26.1795C10.501 26.2887 10.5285 26.4067 10.5321 26.5266C10.5358 26.6465 10.5154 26.766 10.4723 26.8779C10.4292 26.9899 10.3642 27.0922 10.2812 27.1787C10.1981 27.2653 10.0985 27.3344 9.98839 27.382C9.87826 27.4296 9.75974 27.4548 9.63977 27.4561C9.51979 27.4573 9.40077 27.4346 9.28966 27.3893C9.17856 27.344 9.0776 27.277 8.99271 27.1922C8.90782 27.1074 8.84068 27.0066 8.79525 26.8955C8.54253 26.3059 8.29646 25.7117 8.04817 25.1221C6.95897 22.5372 5.87199 19.9509 4.78722 17.3631C4.47243 16.6161 4.15542 15.8712 3.84506 15.1219C3.69455 14.7586 3.62499 14.3669 3.64122 13.9741C3.65746 13.5812 3.7591 13.1966 3.93907 12.8469C4.11905 12.4973 4.37303 12.1911 4.68336 11.9496C4.99368 11.7082 5.3529 11.5372 5.73602 11.4486C6.375 11.2931 7.04863 11.3725 7.63388 11.6725C8.21914 11.9724 8.67698 12.4729 8.92383 13.0824C10.7786 17.488 12.6333 21.8936 14.4881 26.2992L14.5812 26.5209C14.5812 26.5364 14.5812 26.5652 14.6167 26.5652C14.6521 26.5652 14.6433 26.5364 14.6521 26.5187C14.7652 26.2482 14.8738 25.9755 14.9935 25.7051C16.0288 23.24 17.0552 20.7704 18.0971 18.3119C18.2768 17.8581 18.5762 17.4615 18.9634 17.1644C19.3507 16.8674 19.8113 16.6809 20.2962 16.6249C20.9099 16.5271 21.5386 16.6407 22.0792 16.9473C22.6198 17.2538 23.0401 17.735 23.2712 18.3119C24.4151 21.0342 25.5597 23.7572 26.7051 26.481C26.7157 26.5178 26.733 26.5524 26.7561 26.583C26.7937 26.5586 26.7982 26.5187 26.8137 26.4854L28.3655 22.8387L30.3606 18.1279L31.6508 15.0754C31.9435 14.3859 32.2272 13.6943 32.5376 13.0093C32.7079 12.5848 32.9891 12.2138 33.3518 11.935C33.7144 11.6562 34.1452 11.4798 34.5992 11.4242C35.0896 11.3372 35.5945 11.3888 36.057 11.5733C36.5196 11.7577 36.9215 12.0677 37.2173 12.4684C37.616 12.9826 37.8103 13.6261 37.7627 14.2751C37.7278 14.692 37.6174 15.0992 37.4368 15.4766C37.3614 15.6562 37.2838 15.8357 37.2151 16.0131L37.1419 16.2702C36.6247 17.491 36.1074 18.7117 35.5901 19.9324C35.5487 20.0479 35.4843 20.1538 35.4007 20.2436C35.3171 20.3334 35.2161 20.4052 35.1038 20.4548C34.9916 20.5043 34.8704 20.5305 34.7478 20.5317C34.6251 20.5329 34.5034 20.5092 34.3902 20.4619C34.277 20.4146 34.1746 20.3448 34.0892 20.2567C34.0038 20.1686 33.9373 20.064 33.8936 19.9494C33.8499 19.8348 33.8299 19.7124 33.835 19.5899C33.8401 19.4673 33.8701 19.347 33.9231 19.2364C34.2261 18.5166 34.5312 17.7954 34.8386 17.0727C34.965 16.7779 35.0891 16.4808 35.2133 16.186L35.4727 15.45Z" fill="white"/>
<defs>
<linearGradient id="paint0_linear" x1="20.2685" y1="-20.1668" x2="20.2685" y2="58.9422" gradientUnits="userSpaceOnUse">
<stop stop-color="#8BADF0"/>
<stop offset="1" stop-color="#3B7CFF"/>
</linearGradient>
<linearGradient id="paint1_linear" x1="4.10963" y1="31.1275" x2="4.94605" y2="34.0333" gradientUnits="userSpaceOnUse">
<stop stop-color="white"/>
<stop offset="1" stop-color="white"/>
</linearGradient>
<linearGradient id="paint2_linear" x1="0.0930252" y1="28.7696" x2="0.929448" y2="31.6754" gradientUnits="userSpaceOnUse">
<stop stop-color="white"/>
<stop offset="1" stop-color="white"/>
</linearGradient>
</defs>
</svg>

