<svg width="80" height="80" viewBox="0 0 80 80" fill="none" xmlns="http://www.w3.org/2000/svg">
<rect opacity="0.16" width="80" height="80" rx="4" fill="#56CCF2"/>
<path fill-rule="evenodd" clip-rule="evenodd" d="M42 20H28C25.7909 20 24 21.7909 24 24V56C24 58.2091 25.7909 60 28 60H52C54.2091 60 56 58.2091 56 56V34L42 20Z" stroke="#56CCF2" stroke-width="2" stroke-linecap="round" stroke-linejoin="round"/>
<path d="M42 20V34H56" stroke="#56CCF2" stroke-width="2" stroke-linecap="round" stroke-linejoin="round"/>
<path d="M31.507 43.6C32.251 43.6 32.895 43.724 33.439 43.972C33.991 44.22 34.415 44.572 34.711 45.028C35.007 45.484 35.155 46.024 35.155 46.648C35.155 47.264 35.007 47.804 34.711 48.268C34.415 48.724 33.991 49.076 33.439 49.324C32.895 49.564 32.251 49.684 31.507 49.684H29.815V52H27.871V43.6H31.507ZM31.399 48.1C31.983 48.1 32.427 47.976 32.731 47.728C33.035 47.472 33.187 47.112 33.187 46.648C33.187 46.176 33.035 45.816 32.731 45.568C32.427 45.312 31.983 45.184 31.399 45.184H29.815V48.1H31.399ZM36.5429 43.6H40.3589C41.2709 43.6 42.0749 43.776 42.7709 44.128C43.4749 44.472 44.0189 44.96 44.4029 45.592C44.7949 46.224 44.9909 46.96 44.9909 47.8C44.9909 48.64 44.7949 49.376 44.4029 50.008C44.0189 50.64 43.4749 51.132 42.7709 51.484C42.0749 51.828 41.2709 52 40.3589 52H36.5429V43.6ZM40.2629 50.404C41.1029 50.404 41.7709 50.172 42.2669 49.708C42.7709 49.236 43.0229 48.6 43.0229 47.8C43.0229 47 42.7709 46.368 42.2669 45.904C41.7709 45.432 41.1029 45.196 40.2629 45.196H38.4869V50.404H40.2629ZM48.4009 45.16V47.38H52.2889V48.94H48.4009V52H46.4569V43.6H52.8049V45.16H48.4009Z" fill="#56CCF2"/>
</svg>
