<svg width="80" height="80" viewBox="0 0 80 80" fill="none" xmlns="http://www.w3.org/2000/svg">
<rect opacity="0.16" width="80" height="80" rx="4" fill="#56CCF2"/>
<path fill-rule="evenodd" clip-rule="evenodd" d="M42 20H28C25.7909 20 24 21.7909 24 24V56C24 58.2091 25.7909 60 28 60H52C54.2091 60 56 58.2091 56 56V34L42 20Z" stroke="#56CCF2" stroke-width="2" stroke-linecap="round" stroke-linejoin="round"/>
<path d="M42 20V34H56" stroke="#56CCF2" stroke-width="2" stroke-linecap="round" stroke-linejoin="round"/>
<path d="M33.9499 46.18L34.7779 44.44C33.9019 43.876 32.6539 43.492 31.4179 43.492C29.3899 43.492 28.0579 44.488 28.0579 46.06C28.0579 49.036 32.4859 48.172 32.4859 49.6C32.4859 50.044 32.0779 50.284 31.4299 50.284C30.5539 50.284 29.2459 49.756 28.3819 49.012L27.5299 50.728C28.5379 51.556 30.0019 52.072 31.4059 52.072C33.2779 52.072 34.7899 51.196 34.7899 49.48C34.7899 46.456 30.3619 47.248 30.3619 45.856C30.3619 45.472 30.7099 45.28 31.2379 45.28C31.9339 45.28 33.0619 45.676 33.9499 46.18ZM35.0717 43.588L38.3357 52H40.6157L43.9037 43.588H41.6477L39.5357 49.672L37.4357 43.588H35.0717ZM50.1281 49.828C49.6241 50.08 49.0961 50.224 48.6761 50.224C47.3081 50.224 46.2761 49.18 46.2761 47.8C46.2761 46.432 47.2961 45.388 48.6521 45.388C49.4201 45.388 50.2721 45.748 50.8721 46.312L52.1201 44.776C51.2561 44.008 49.9241 43.528 48.6641 43.528C46.0001 43.528 44.0201 45.352 44.0201 47.8C44.0201 50.248 45.9521 52.096 48.5201 52.096C49.6961 52.096 51.1241 51.64 52.0241 51.016V47.704H50.1281V49.828Z" fill="#56CCF2"/>
</svg>
