<svg width="80" height="80" viewBox="0 0 80 80" fill="none" xmlns="http://www.w3.org/2000/svg">
<rect opacity="0.16" width="80" height="80" rx="4" fill="#BB6BD9"/>
<path fill-rule="evenodd" clip-rule="evenodd" d="M42 20H28C25.7909 20 24 21.7909 24 24V56C24 58.2091 25.7909 60 28 60H52C54.2091 60 56 58.2091 56 56V34L42 20Z" stroke="#BB6BD9" stroke-width="2" stroke-linecap="round" stroke-linejoin="round"/>
<path d="M42 20V34H56" stroke="#BB6BD9" stroke-width="2" stroke-linecap="round" stroke-linejoin="round"/>
<path d="M31.3215 43.6C32.0655 43.6 32.7095 43.724 33.2535 43.972C33.8055 44.22 34.2295 44.572 34.5255 45.028C34.8215 45.484 34.9695 46.024 34.9695 46.648C34.9695 47.264 34.8215 47.804 34.5255 48.268C34.2295 48.724 33.8055 49.076 33.2535 49.324C32.7095 49.564 32.0655 49.684 31.3215 49.684H29.6295V52H27.6855V43.6H31.3215ZM31.2135 48.1C31.7975 48.1 32.2415 47.976 32.5455 47.728C32.8495 47.472 33.0015 47.112 33.0015 46.648C33.0015 46.176 32.8495 45.816 32.5455 45.568C32.2415 45.312 31.7975 45.184 31.2135 45.184H29.6295V48.1H31.2135ZM43.5613 43.6V52H41.9653L37.7773 46.9V52H35.8573V43.6H37.4653L41.6413 48.7V43.6H43.5613ZM50.7247 47.668H52.5007V51.076C52.0447 51.42 51.5167 51.684 50.9167 51.868C50.3167 52.052 49.7127 52.144 49.1047 52.144C48.2327 52.144 47.4487 51.96 46.7527 51.592C46.0567 51.216 45.5087 50.7 45.1087 50.044C44.7167 49.38 44.5207 48.632 44.5207 47.8C44.5207 46.968 44.7167 46.224 45.1087 45.568C45.5087 44.904 46.0607 44.388 46.7647 44.02C47.4687 43.644 48.2607 43.456 49.1407 43.456C49.8767 43.456 50.5447 43.58 51.1447 43.828C51.7447 44.076 52.2487 44.436 52.6567 44.908L51.4087 46.06C50.8087 45.428 50.0847 45.112 49.2367 45.112C48.7007 45.112 48.2247 45.224 47.8087 45.448C47.3927 45.672 47.0687 45.988 46.8367 46.396C46.6047 46.804 46.4887 47.272 46.4887 47.8C46.4887 48.32 46.6047 48.784 46.8367 49.192C47.0687 49.6 47.3887 49.92 47.7967 50.152C48.2127 50.376 48.6847 50.488 49.2127 50.488C49.7727 50.488 50.2767 50.368 50.7247 50.128V47.668Z" fill="#BB6BD9"/>
</svg>
