<svg width="80" height="80" viewBox="0 0 80 80" fill="none" xmlns="http://www.w3.org/2000/svg">
<rect opacity="0.16" width="80" height="80" rx="4" fill="#4AAF05"/>
<path fill-rule="evenodd" clip-rule="evenodd" d="M42 20H28C25.7909 20 24 21.7909 24 24V56C24 58.2091 25.7909 60 28 60H52C54.2091 60 56 58.2091 56 56V34L42 20Z" stroke="#4AAF05" stroke-width="2" stroke-linecap="round" stroke-linejoin="round"/>
<path d="M42 20V34H56" stroke="#4AAF05" stroke-width="2" stroke-linecap="round" stroke-linejoin="round"/>
<path d="M34.0245 49.264V43.588H28.9365V45.4H31.8165V49.216C31.8165 49.852 31.4805 50.188 30.9405 50.188C30.4485 50.188 29.7885 49.876 29.1765 49.24L28.1685 50.74C28.9125 51.604 29.8845 52.096 31.0965 52.096C32.8965 52.096 34.0245 51.064 34.0245 49.264ZM39.2093 43.588H35.5133V52H37.7093V49.672H39.2093C41.3573 49.672 42.5933 48.52 42.5933 46.54C42.5933 44.668 41.3573 43.588 39.2093 43.588ZM39.1013 47.92H37.7093V45.34H39.1013C39.9893 45.34 40.5053 45.784 40.5053 46.612C40.5053 47.464 39.9893 47.92 39.1013 47.92ZM49.2375 49.828C48.7335 50.08 48.2055 50.224 47.7855 50.224C46.4175 50.224 45.3855 49.18 45.3855 47.8C45.3855 46.432 46.4055 45.388 47.7615 45.388C48.5295 45.388 49.3815 45.748 49.9815 46.312L51.2295 44.776C50.3655 44.008 49.0335 43.528 47.7735 43.528C45.1095 43.528 43.1295 45.352 43.1295 47.8C43.1295 50.248 45.0615 52.096 47.6295 52.096C48.8055 52.096 50.2335 51.64 51.1335 51.016V47.704H49.2375V49.828Z" fill="#4AAF05"/>
</svg>
