<svg width="80" height="80" viewBox="0 0 80 80" fill="none" xmlns="http://www.w3.org/2000/svg">
<rect opacity="0.16" width="80" height="80" rx="4" fill="#007AFF"/>
<path fill-rule="evenodd" clip-rule="evenodd" d="M42 20H28C25.7909 20 24 21.7909 24 24V56C24 58.2091 25.7909 60 28 60H52C54.2091 60 56 58.2091 56 56V34L42 20Z" stroke="#007AFF" stroke-width="2" stroke-linecap="round" stroke-linejoin="round"/>
<path d="M42 20V34H56" stroke="#007AFF" stroke-width="2" stroke-linecap="round" stroke-linejoin="round"/>
<path d="M31.9612 43.588H28.2652V52H30.4612V49.672H31.9612C34.1092 49.672 35.3452 48.52 35.3452 46.54C35.3452 44.668 34.1092 43.588 31.9612 43.588ZM31.8532 47.92H30.4612V45.34H31.8532C32.7412 45.34 33.2572 45.784 33.2572 46.612C33.2572 47.464 32.7412 47.92 31.8532 47.92ZM42.2175 46.18L43.0455 44.44C42.1695 43.876 40.9215 43.492 39.6855 43.492C37.6575 43.492 36.3255 44.488 36.3255 46.06C36.3255 49.036 40.7535 48.172 40.7535 49.6C40.7535 50.044 40.3455 50.284 39.6975 50.284C38.8215 50.284 37.5135 49.756 36.6495 49.012L35.7975 50.728C36.8055 51.556 38.2695 52.072 39.6735 52.072C41.5455 52.072 43.0575 51.196 43.0575 49.48C43.0575 46.456 38.6295 47.248 38.6295 45.856C38.6295 45.472 38.9775 45.28 39.5055 45.28C40.2015 45.28 41.3295 45.676 42.2175 46.18ZM47.8033 43.588H44.1793V52H47.7193C50.4433 52 52.2793 50.296 52.2793 47.788C52.2793 45.292 50.4673 43.588 47.8033 43.588ZM47.8633 50.224H46.3753V45.376H47.7553C49.0873 45.376 50.0353 46.36 50.0353 47.812C50.0353 49.252 49.1353 50.224 47.8633 50.224Z" fill="#007AFF"/>
</svg>
